fira-math.sfdir
StartChar: exclam
Encoding: 33 33 0
Width: 241
Flags: W
HStem: -12 139<100.5 140> 669 20G<68 170 170 170>
VStem: 51 139<38.5 77> 73.5 91.5
LayerCount: 2
Fore
SplineSet
170 689 m 1xd0
 160 230 l 1
 79 230 l 1
 68 689 l 1
 170 689 l 1xd0
120 127 m 0xe0
 160 127 190 96 190 58 c 0
 190 19 160 -12 120 -12 c 0
 81 -12 51 19 51 58 c 0
 51 96 81 127 120 127 c 0xe0
EndSplineSet
Validated: 1
EndChar
StartChar: quotedbl
Encoding: 34 34 1
Width: 399
Flags: W
HStem: 427 262<75 75 75 144 255 324 255 255>
VStem: 67.5 84 247.5 84
LayerCount: 2
Fore
SplineSet
75 427 m 1
 60 689 l 1
 159 689 l 1
 144 427 l 1
 75 427 l 1
255 427 m 1
 240 689 l 1
 339 689 l 1
 324 427 l 1
 255 427 l 1
EndSplineSet
Validated: 1
EndChar
StartChar: dollar
Encoding: 36 36 3
Width: 531
Flags: W
HStem: -155 219<230 290.5 215 310 230 230> -11 75<230 230> -8 21G<310 310> 604 73<233.5 310>
VStem: 52 95<481 541 481 552> 230 80<-155 -11 -11 -11 678 824> 395 96<143 215.5>
LayerCount: 2
Fore
SplineSet
491 186 m 0x5e
 491 86 425 11 310 -8 c 1x3e
 310 -155 l 1
 230 -155 l 1x9e
 230 -11 l 1
 144 -7 77 24 25 75 c 1
 79 134 l 1
 124 90 179 64 251 64 c 0
 330 64 395 103 395 183 c 0
 395 248 364 277 250 312 c 0
 120 352 52 402 52 505 c 0
 52 599 125 666 230 678 c 1
 230 824 l 1
 310 824 l 1
 310 677 l 1
 377 670 425 644 470 602 c 1
 417 544 l 1
 371 587 323 604 267 604 c 0
 200 604 147 573 147 509 c 0
 147 453 173 426 293 389 c 0
 400 356 491 314 491 186 c 0x5e
EndSplineSet
Validated: 1
EndChar
StartChar: percent
Encoding: 37 37 4
Width: 826
Flags: W
HStem: -12 62<587 651.5 587 666> 263 63<587 651.5> 341 62<175 239.5 175 254> 617 62<175 239.5>
VStem: 45 81<484 537 484 562> 288 82<483 536> 456 82<131 184 131 209> 700 81<130 183>
LayerCount: 2
Fore
SplineSet
613 711 m 1
 677 669 l 1
 214 -31 l 1
 150 11 l 1
 613 711 l 1
207 679 m 0
 301 679 370 614 370 510 c 0
 370 406 301 341 207 341 c 0
 114 341 45 406 45 510 c 0
 45 614 114 679 207 679 c 0
207 617 m 0
 143 617 126 564 126 510 c 0
 126 458 143 403 207 403 c 0
 272 403 288 456 288 510 c 0
 288 562 272 617 207 617 c 0
619 326 m 0xff
 713 326 781 261 781 157 c 0
 781 53 713 -12 619 -12 c 0
 525 -12 456 53 456 157 c 0
 456 261 525 326 619 326 c 0xff
619 263 m 0
 555 263 538 211 538 157 c 0
 538 105 555 50 619 50 c 0
 684 50 700 103 700 157 c 0
 700 209 684 263 619 263 c 0
EndSplineSet
Validated: 1
EndChar
StartChar: uni0026
Encoding: 38 38 6
Width: 729
Flags: W
HStem: -12 73<274 347 274 352.5> 633 68<274 331>
VStem: 81 94<141 207.5 141 218.5> 123 90<521 571.5 521 589.5> 395 90<517.5 572>
LayerCount: 2
Fore
SplineSet
302 701 m 0xe8
 411 701 485 636 485 549 c 0
 485 463 419 410 344 366 c 1
 520 200 l 1
 543 247 565 304 580 369 c 1
 666 344 l 1
 641 262 610 197 577 147 c 1
 689 42 l 1
 623 -12 l 1
 526 82 l 1
 470 21 400 -12 305 -12 c 0
 173 -12 81 61 81 175 c 0xe8
 81 262 135 320 220 374 c 1
 161 431 123 477 123 546 c 0xd8
 123 633 186 701 302 701 c 0xe8
303 633 m 0xd8
 245 633 213 596 213 547 c 0
 213 495 244 460 292 415 c 1
 354 453 395 491 395 544 c 0
 395 600 359 633 303 633 c 0xd8
273 324 m 1xe8
 207 281 175 237 175 178 c 0
 175 104 233 61 315 61 c 0
 379 61 428 87 473 133 c 1
 273 324 l 1xe8
EndSplineSet
Validated: 1
EndChar
StartChar: parenleft
Encoding: 40 40 7
Width: 324
Flags: W
GlyphVariantsVertical: parenleft parenleft.size1 parenleft.size2 parenleft.size3 parenleft.size4
HStem: -145 990<226 226>
VStem: 40 96<243 457.5 243 468.5>
LayerCount: 2
Fore
SplineSet
226 845 m 1
 284 805 l 1
 194 672 136 565 136 350 c 0
 136 136 194 28 284 -105 c 1
 226 -145 l 1
 128 -6 40 113 40 350 c 0
 40 587 128 706 226 845 c 1
EndSplineSet
Validated: 1
EndChar
StartChar: uni0028
Encoding: 40 40 8
Width: 324
Flags: HW
GlyphVariantsVertical: uni0028 uni0028.size1 uni0028.size2 uni0028.size3 uni0028.size4
GlyphCompositionVertical: 3  uni239D%0,0,150,1485 uni239C%1,150,150,700 uni239B%0,150,0,1485
HStem: -215 990<226 226>
VStem: 40 96<173 387.5 173 398.5>
LayerCount: 2
Fore
SplineSet
226 775 m 1
 284 735 l 1
 194 602 136 495 136 280 c 0
 136 66 194 -42 284 -175 c 1
 226 -215 l 1
 128 -76 40 43 40 280 c 0
 40 517 128 636 226 775 c 1
EndSplineSet
EndChar
StartChar: parenright
Encoding: 41 41 8
Width: 324
Flags: W
GlyphVariantsVertical: parenright parenright.size1 parenright.size2 parenright.size3 parenright.size4
HStem: -145 990<98 98>
VStem: 188 96<243 457.5>
LayerCount: 2
Fore
SplineSet
98 845 m 1
 196 706 284 587 284 350 c 0
 284 113 196 -6 98 -145 c 1
 40 -105 l 1
 130 28 188 136 188 350 c 0
 188 565 130 672 40 805 c 1
 98 845 l 1
EndSplineSet
Validated: 1
EndChar
StartChar: uni0029
Encoding: 41 41 9
Width: 324
Flags: HW
GlyphVariantsVertical: uni0029 uni0029.size1 uni0029.size2 uni0029.size3 uni0029.size4
GlyphCompositionVertical: 3  uni23A0%0,0,150,1485 uni239F%1,150,150,700 uni239E%0,150,0,1485
HStem: -215 990<98 98>
VStem: 188 96<173 387.5>
LayerCount: 2
Fore
SplineSet
98 775 m 1
 196 636 284 517 284 280 c 0
 284 43 196 -76 98 -215 c 1
 40 -175 l 5
 130 -42 188 66 188 280 c 0
 188 495 130 602 40 735 c 1
 98 775 l 1
EndSplineSet
EndChar
StartChar: uni002A
Encoding: 42 42 10
Width: 439
Flags: W
HStem: 508 20G<172 172 266 266> 719 20G<174 264 264 264>
VStem: 181.5 75
LayerCount: 2
Fore
SplineSet
419 561 m 1
 266 528 l 1
 370 412 l 1
 298 359 l 1
 219 493 l 1
 141 359 l 1
 69 411 l 1
 172 528 l 1
 20 561 l 1
 47 643 l 1
 189 582 l 1
 174 739 l 1
 264 739 l 1
 249 581 l 1
 391 644 l 1
 419 561 l 1
EndSplineSet
Validated: 1
EndChar
StartChar: plus
Encoding: 43 43 10
Width: 500
Flags: W
HStem: 294 76<63 208 292 437>
VStem: 208 84<144 294 370 520>
LayerCount: 2
Fore
SplineSet
292 520 m 1
 292 370 l 1
 437 370 l 1
 437 294 l 1
 292 294 l 1
 292 144 l 1
 208 144 l 1
 208 294 l 1
 63 294 l 1
 63 370 l 1
 208 370 l 1
 208 520 l 1
 292 520 l 1
EndSplineSet
EndChar
StartChar: uni002B
Encoding: 43 43 11
Width: 500
Flags: W
HStem: 242 76<62 208 292 438>
VStem: 208 84<92 242 318 468>
LayerCount: 2
Fore
SplineSet
292 468 m 1
 292 318 l 1
 438 318 l 1
 438 242 l 1
 292 242 l 1
 292 92 l 1
 208 92 l 1
 208 242 l 1
 62 242 l 1
 62 318 l 5
 208 318 l 1
 208 468 l 1
 292 468 l 1
EndSplineSet
EndChar
StartChar: hyphen
Encoding: 45 45 12
Width: 403
Flags: W
HStem: 274 78<60 343 60 343>
VStem: 60 283<274 352 274 352>
LayerCount: 2
Fore
SplineSet
60 274 m 1
 60 352 l 1
 343 352 l 1
 343 274 l 1
 60 274 l 1
EndSplineSet
Validated: 1
EndChar
StartChar: uni002F
Encoding: 47 47 15
Width: 520
Flags: W
HStem: -104 911<184 337>
VStem: 105 310
LayerCount: 2
Fore
SplineSet
337 807 m 1
 415 789 l 1
 184 -104 l 1
 105 -85 l 1
 337 807 l 1
EndSplineSet
Validated: 1
EndChar
StartChar: semicolon
Encoding: 59 59 26
Width: 240
Flags: W
HStem: 0 21G<78 78> 356 139<99.5 139>
VStem: 50 139<47 77 47 77 406.5 445>
LayerCount: 2
Fore
SplineSet
119 495 m 0
 159 495 189 464 189 426 c 0
 189 387 159 356 119 356 c 0
 80 356 50 387 50 426 c 0
 50 464 80 495 119 495 c 0
119 127 m 0
 159 127 189 96 189 58 c 0
 189 36 184 16 171 -13 c 2
 104 -166 l 1
 38 -166 l 1
 78 0 l 1
 61 13 50 34 50 58 c 0
 50 96 80 127 119 127 c 0
EndSplineSet
Validated: 1
EndChar
StartChar: less
Encoding: 60 60 27
Width: 500
Flags: W
HStem: 115 436<417 417>
VStem: 50 73<333 333 333 380 333 380>
LayerCount: 2
Fore
SplineSet
417 551 m 1
 450 475 l 1
 123 333 l 1
 450 189 l 1
 417 115 l 1
 50 286 l 1
 50 380 l 1
 417 551 l 1
EndSplineSet
Validated: 1
EndChar
StartChar: equal
Encoding: 61 61 28
Width: 500
Flags: W
HStem: 145 77<62 438> 338 77<62 438>
LayerCount: 2
Fore
SplineSet
62 338 m 1
 62 415 l 1
 438 415 l 1
 438 338 l 1
 62 338 l 1
62 145 m 1
 62 222 l 1
 438 222 l 1
 438 145 l 5
 62 145 l 1
EndSplineSet
EndChar
StartChar: uni003D
Encoding: 61 61 29
Width: 500
Flags: W
HStem: 145 77<62 438> 338 77<62 438>
LayerCount: 2
Fore
SplineSet
62 338 m 1
 62 415 l 1
 438 415 l 1
 438 338 l 1
 62 338 l 1
62 145 m 1
 62 222 l 1
 438 222 l 1
 438 145 l 1
 62 145 l 1
EndSplineSet
EndChar
StartChar: greater
Encoding: 62 62 29
Width: 500
Flags: W
HStem: 115 436<83 83>
VStem: 377 73<333 333>
LayerCount: 2
Fore
SplineSet
83 551 m 1
 450 380 l 1
 450 286 l 1
 83 115 l 1
 50 189 l 1
 377 333 l 1
 50 475 l 1
 83 551 l 1
EndSplineSet
Validated: 1
EndChar
StartChar: uni003F
Encoding: 63 63 31
Width: 459
Flags: W
HStem: -12 139<185.5 225> 625 76<207 263>
VStem: 136 139<38.5 77> 157 91<230 275 230 280 230 364> 333 96<485 566.5>
LayerCount: 2
Fore
SplineSet
238 701 m 0xd8
 364 701 429 625 429 545 c 0
 429 385 248 406 248 275 c 2
 248 230 l 1
 157 230 l 1
 157 280 l 2
 157 448 333 431 333 539 c 0
 333 594 294 625 232 625 c 0
 182 625 134 603 93 553 c 1
 30 602 l 1
 87 669 155 701 238 701 c 0xd8
205 127 m 0xe8
 245 127 275 96 275 58 c 0
 275 19 245 -12 205 -12 c 0
 166 -12 136 19 136 58 c 0
 136 96 166 127 205 127 c 0xe8
EndSplineSet
Validated: 1
EndChar
StartChar: D
Encoding: 68 68 35
Width: 644
Flags: W
HStem: 0 75<195 265> 613 76<195 244 244 265 195 195>
VStem: 100 95<75 613 75 689 75 689> 488 101<234.5 464.5>
LayerCount: 2
Fore
SplineSet
244 689 m 2
 420 689 589 634 589 348 c 0
 589 67 414 0 265 0 c 2
 100 0 l 1
 100 689 l 1
 244 689 l 2
265 613 m 2
 195 613 l 1
 195 75 l 1
 272 75 l 2
 380 75 488 121 488 348 c 0
 488 581 375 613 265 613 c 2
EndSplineSet
Validated: 1
EndChar
StartChar: J
Encoding: 74 74 41
Width: 305
Flags: W
TopAccentHorizontal: 162
HStem: 669 20G<115 210 210 210>
VStem: 115 95<100 689>
LayerCount: 2
Fore
SplineSet
210 689 m 1
 210 96 l 2
 210 -48 141 -102 30 -137 c 1
 5 -68 l 1
 96 -32 115 8 115 100 c 2
 115 689 l 1
 210 689 l 1
EndSplineSet
Validated: 1
EndChar
StartChar: L
Encoding: 76 76 43
Width: 498
Flags: W
TopAccentHorizontal: 148
HStem: 0 83<195 467> 669 20G<100 195 195 195>
VStem: 100 95<83 689 83 689 83 689>
LayerCount: 2
Fore
SplineSet
195 689 m 1
 195 83 l 1
 478 83 l 1
 467 0 l 1
 100 0 l 1
 100 689 l 1
 195 689 l 1
EndSplineSet
Validated: 1
EndChar
StartChar: S
Encoding: 83 83 50
Width: 545
Flags: W
HStem: -12 78<220.5 298.5 220.5 336.5> 623 78<239.5 302.5>
VStem: 53 97<496 558 496 574> 406 99<147.5 222.5>
LayerCount: 2
Fore
SplineSet
270 701 m 0
 365 701 425 673 483 621 c 1
 431 563 l 1
 379 605 331 623 274 623 c 0
 205 623 150 591 150 525 c 0
 150 467 177 439 301 401 c 0
 411 367 505 324 505 192 c 0
 505 72 414 -12 259 -12 c 0
 160 -12 82 21 25 77 c 1
 77 135 l 1
 129 93 183 66 258 66 c 0
 339 66 406 106 406 189 c 0
 406 256 374 286 257 322 c 0
 123 363 53 414 53 521 c 0
 53 627 143 701 270 701 c 0
EndSplineSet
Validated: 1
EndChar
StartChar: T
Encoding: 84 84 51
Width: 517
Flags: W
HStem: 0 21G<211 306 211 211> 608 81<15 211 15 507 306 497 306 306>
VStem: 211 95<0 608 0 608>
LayerCount: 2
Fore
SplineSet
507 689 m 1
 497 608 l 1
 306 608 l 1
 306 0 l 1
 211 0 l 1
 211 608 l 1
 15 608 l 1
 15 689 l 1
 507 689 l 1
EndSplineSet
Validated: 1
EndChar
StartChar: Y
Encoding: 89 89 56
Width: 550
Flags: W
HStem: 0 21G<227 323 227 227> 669 20G<5 110 110 110 446 545 545 545>
VStem: 227 96<0 264 264 264>
LayerCount: 2
Fore
SplineSet
545 689 m 1
 323 265 l 1
 323 0 l 1
 227 0 l 1
 227 264 l 1
 5 689 l 1
 110 689 l 1
 278 348 l 1
 446 689 l 1
 545 689 l 1
EndSplineSet
Validated: 1
EndChar
StartChar: uni005B
Encoding: 91 91 58
Width: 322
Flags: W
GlyphVariantsVertical: uni005B uni005B.size1 uni005B.size2 uni005B.size3 uni005B.size4
GlyphCompositionVertical: 3  uni23A3%0,0,150,1485 uni23A2%1,150,150,700 uni23A1%0,150,0,1485
HStem: -116 76<152 272 152 272> 739 77<152 272 152 152>
VStem: 65 87<-40 739 -40 816 -40 816>
LayerCount: 2
Fore
SplineSet
272 816 m 1
 272 739 l 1
 152 739 l 5
 152 -40 l 1
 272 -40 l 1
 272 -116 l 1
 65 -116 l 1
 65 816 l 1
 272 816 l 1
EndSplineSet
Validated: 1
EndChar
StartChar: backslash
Encoding: 92 92 59
Width: 520
Flags: W
HStem: -104 911<183 336>
VStem: 105 310
LayerCount: 2
Fore
SplineSet
183 807 m 1
 415 -85 l 1
 336 -104 l 1
 105 789 l 1
 183 807 l 1
EndSplineSet
Validated: 1
EndChar
StartChar: uni005C
Encoding: 92 92 60
Width: 520
VWidth: 930
Flags: HW
HStem: -174 911<183 336>
VStem: 105 310
LayerCount: 2
Fore
SplineSet
183 737 m 1
 415 -155 l 1
 336 -174 l 1
 105 719 l 1
 183 737 l 1
EndSplineSet
EndChar
StartChar: bracketright
Encoding: 93 93 60
Width: 322
Flags: W
GlyphVariantsVertical: bracketright bracketright.size1 bracketright.size2 bracketright.size3 bracketright.size4
GlyphCompositionVertical: 3  uni23A6%0,0,150,1485 uni23A5%1,150,150,700 uni23A4%0,150,0,1485
HStem: -116 76<50 170 50 257 50 170> 739 77<50 170 50 257>
VStem: 170 87<-40 739 739 739>
LayerCount: 2
Fore
SplineSet
257 816 m 1
 257 -116 l 1
 50 -116 l 1
 50 -40 l 1
 170 -40 l 1
 170 739 l 1
 50 739 l 1
 50 816 l 1
 257 816 l 1
EndSplineSet
Validated: 1
EndChar
StartChar: uni005D
Encoding: 93 93 61
Width: 322
VWidth: 930
Flags: HW
GlyphVariantsVertical: uni005D uni005D.size1 uni005D.size2 uni005D.size3 uni005D.size4
GlyphCompositionVertical: 3  uni23A6%0,0,150,1485 uni23A5%1,150,150,700 uni23A4%0,150,0,1485
HStem: -186 76<50 170 50 257 50 170> 669 77<50 170 50 257>
VStem: 170 87<-110 669 669 669>
LayerCount: 2
Fore
SplineSet
257 746 m 1
 257 -186 l 1
 50 -186 l 1
 50 -110 l 1
 170 -110 l 1
 170 669 l 1
 50 669 l 1
 50 746 l 1
 257 746 l 1
EndSplineSet
EndChar
StartChar: asciicircum
Encoding: 94 94 61
Width: 540
Flags: W
HStem: 527 313<40 311 40 311 229 500 229 402>
VStem: 40 460<527 527>
LayerCount: 2
Fore
SplineSet
311 840 m 1
 500 527 l 1
 402 527 l 1
 269 760 l 1
 137 527 l 1
 40 527 l 1
 229 840 l 1
 311 840 l 1
EndSplineSet
Validated: 1
EndChar
StartChar: uni005F
Encoding: 95 95 63
Width: 520
Flags: W
HStem: -142 79<17 503 17 503>
VStem: 17 486<-142 -63 -142 -63>
LayerCount: 2
Fore
SplineSet
17 -142 m 1
 17 -63 l 1
 503 -63 l 1
 503 -142 l 1
 17 -142 l 1
EndSplineSet
Validated: 1
EndChar
StartChar: grave
Encoding: 96 96 63
Width: 300
Flags: W
TopAccentHorizontal: 150
HStem: 638 163
VStem: 30 240<687 724>
LayerCount: 2
Fore
SplineSet
71 801 m 1
 270 687 l 1
 242 638 l 1
 30 724 l 1
 71 801 l 1
EndSplineSet
Validated: 1
EndChar
StartChar: b
Encoding: 98 98 65
Width: 594
Flags: W
HStem: -12 73<296 341.5 279.5 389> 0 21G<95 176 95 95> 466 73<304 347> 719 20G<95 95> 730 20G<187 187>
VStem: 95 92<132 384 461 739 739 739> 433 99<192 339>
LayerCount: 2
Fore
SplineSet
336 539 m 0xae
 455 539 532 440 532 264 c 0
 532 99 453 -12 325 -12 c 0
 267 -12 221 14 185 58 c 1xae
 176 0 l 1
 95 0 l 1
 95 739 l 1x76
 187 750 l 1
 187 461 l 1
 223 510 272 539 336 539 c 0xae
303 61 m 0
 380 61 433 120 433 264 c 0
 433 414 384 466 310 466 c 0
 252 466 214 426 187 384 c 1
 187 132 l 1
 214 90 256 61 303 61 c 0
EndSplineSet
Validated: 1
EndChar
StartChar: uni0064
Encoding: 100 100 68
Width: 598
Flags: W
TopAccentHorizontal: 457
HStem: -12 73<243 293.5> 0 21G<422 503 422 422> 466 73<249.5 300 204.5 315> 719 20G<503 503> 730 20G<411 411>
VStem: 62 99<193.5 331.5 193.5 341.5> 411 92<139 397 397 397 474 739 0 750 0 750>
LayerCount: 2
Fore
SplineSet
411 750 m 1xae
 503 739 l 1
 503 0 l 1
 422 0 l 1x76
 413 73 l 1
 379 20 326 -12 261 -12 c 0
 133 -12 62 97 62 261 c 0
 62 422 140 539 269 539 c 0
 331 539 376 511 411 474 c 1
 411 750 l 1xae
281 61 m 0xae
 340 61 376 90 411 139 c 1
 411 397 l 1
 378 439 341 466 289 466 c 0
 210 466 161 400 161 263 c 0
 161 124 205 61 281 61 c 0xae
EndSplineSet
Validated: 1
EndChar
StartChar: g
Encoding: 103 103 70
Width: 520
Flags: W
TopAccentHorizontal: 272
HStem: -213 72<193 308 193 332.5> 16 77<169 318 234 299> 175 61<246 290 218 321> 473 66<216.5 252 194 289.5> 487 52
VStem: 25 83<-83 -53 -83 -53> 49 94<321 389.5 320 409> 80 85<124 133> 365 94<318 384.5 302 394.5> 405 93<-85.5 -34>
LayerCount: 2
Fore
SplineSet
493 586 m 1xf280
 520 503 l 1
 476 489 426 487 366 487 c 1
 428 459 459 415 459 354 c 0
 459 250 384 175 258 175 c 0
 234 175 213 178 191 185 c 1
 176 174 165 155 165 136 c 0
 165 112 180 93 234 93 c 2xe980
 318 93 l 2
 426 93 498 31 498 -53 c 0
 498 -155 414 -213 251 -213 c 0
 79 -213 25 -160 25 -53 c 1
 108 -53 l 1xf440
 108 -113 135 -141 251 -141 c 0
 365 -141 405 -112 405 -59 c 0
 405 -9 365 16 299 16 c 2
 216 16 l 2
 122 16 80 63 80 116 c 0xf140
 80 150 100 184 138 209 c 1
 77 241 49 287 49 355 c 0
 49 463 136 539 252 539 c 0
 383 536 431 558 493 586 c 1xf280
252 473 m 0xf280
 181 473 143 424 143 355 c 0
 143 285 182 236 254 236 c 0
 326 236 365 280 365 356 c 0
 365 433 327 473 252 473 c 0xf280
EndSplineSet
Validated: 33
EndChar
StartChar: h
Encoding: 104 104 71
Width: 586
Flags: W
TopAccentHorizontal: 141
HStem: 0 21G<95 187 95 95 404 496 404 404> 467 72<310 345> 728 20G<187 187>
VStem: 95 92<0 375 0 454 454 738 738 738> 404 92<0 365 365 378 0 404.5>
LayerCount: 2
Fore
SplineSet
343 539 m 0
 439 539 496 477 496 378 c 2
 496 0 l 1
 404 0 l 1
 404 365 l 2
 404 444 370 467 320 467 c 0
 263 467 222 430 187 375 c 1
 187 0 l 1
 95 0 l 1
 95 738 l 1
 187 748 l 1
 187 454 l 1
 225 506 277 539 343 539 c 0
EndSplineSet
Validated: 1
EndChar
StartChar: k
Encoding: 107 107 74
Width: 512
Flags: W
HStem: 0 21G<95 187 95 95 402 402 402 512> 507 20G<387 490 490 490> 719 20G<95 95> 730 20G<187 187>
VStem: 95 92<0 739 739 739>
LayerCount: 2
Fore
SplineSet
187 750 m 1xd8
 187 0 l 1
 95 0 l 1
 95 739 l 1xe8
 187 750 l 1xd8
490 527 m 1
 296 294 l 1
 512 0 l 1
 402 0 l 1
 193 288 l 1
 387 527 l 1
 490 527 l 1
EndSplineSet
Validated: 1
EndChar
StartChar: l
Encoding: 108 108 75
Width: 293
Flags: W
TopAccentHorizontal: 136
HStem: -12 76<203 213.5> 719 20G<90 90> 730 20G<182 182>
VStem: 90 92<104 106 106 739 739 739>
LayerCount: 2
Fore
SplineSet
200 -12 m 0xb0
 133 -12 90 29 90 104 c 2
 90 739 l 1xd0
 182 750 l 1
 182 106 l 2
 182 78 191 64 215 64 c 0
 228 64 239 66 249 70 c 1
 273 6 l 1
 253 -5 227 -12 200 -12 c 0xb0
EndSplineSet
Validated: 1
EndChar
StartChar: m
Encoding: 109 109 76
Width: 857
Flags: W
HStem: 0 21G<95 187 95 95 385 477 385 385 675 767 675 675> 467 72<299.5 331 588.5 621> 507 20G<95 174 174 174>
VStem: 95 92<0 374 0 527> 385 92<0 365 365 374 0 404.5> 675 92<0 365 365 378 0 404.5>
LayerCount: 2
Fore
SplineSet
624 539 m 0xdc
 710 539 767 477 767 378 c 2
 767 0 l 1
 675 0 l 1
 675 365 l 2
 675 444 641 467 601 467 c 0
 544 467 513 430 477 374 c 1
 477 0 l 1
 385 0 l 1
 385 365 l 2
 385 444 351 467 311 467 c 0
 254 467 222 430 187 374 c 1xdc
 187 0 l 1
 95 0 l 1
 95 527 l 1
 174 527 l 1xbc
 182 450 l 1
 217 503 265 539 334 539 c 0
 399 539 447 504 467 444 c 1
 505 501 553 539 624 539 c 0xdc
EndSplineSet
Validated: 1
EndChar
StartChar: n
Encoding: 110 110 77
Width: 586
Flags: W
HStem: 0 21G<95 187 95 95 404 496 404 404> 467 72<308.5 346.5> 507 20G<95 174 174 174>
VStem: 95 92<0 374 0 527> 404 92<0 365 365 378 0 404.5>
LayerCount: 2
Fore
SplineSet
343 539 m 0xd8
 440 539 496 478 496 378 c 2
 496 0 l 1
 404 0 l 1
 404 365 l 2
 404 444 372 467 321 467 c 0
 262 467 222 430 187 374 c 1xd8
 187 0 l 1
 95 0 l 1
 95 527 l 1
 174 527 l 1xb8
 182 449 l 1
 218 503 274 539 343 539 c 0xd8
EndSplineSet
Validated: 1
EndChar
StartChar: uni0070
Encoding: 112 112 80
Width: 594
Flags: W
TopAccentHorizontal: 314
HStem: -213 21G<95 95> -202 21G<187 187> -12 75<296.5 345 279 393> 466 73<307 353.5> 507 20G<95 174 174 174>
VStem: 95 92<-202 48 -202 127 127 384> 433 99<195 332.5>
LayerCount: 2
Fore
SplineSet
337 539 m 0x76
 477 539 532 430 532 264 c 0
 532 104 461 -12 325 -12 c 0
 268 -12 221 7 187 48 c 1
 187 -202 l 1x76
 95 -213 l 1
 95 527 l 1
 174 527 l 1xae
 181 456 l 1
 220 510 277 539 337 539 c 0x76
303 63 m 0
 387 63 433 126 433 264 c 0
 433 401 393 466 314 466 c 0
 258 466 215 426 187 384 c 1
 187 127 l 1
 214 86 255 63 303 63 c 0
EndSplineSet
Validated: 1
EndChar
StartChar: q
Encoding: 113 113 80
Width: 598
Flags: W
HStem: -213 21G<503 503> -202 21G<411 411> -12 73<243 293> 466 73<249.5 301.5 204.5 315> 507 20G<424 503 503 503>
VStem: 62 99<193.5 331.5 193.5 341.5> 411 92<-202 70 70 70 139 397 397 397>
LayerCount: 2
Fore
SplineSet
424 527 m 1x6e
 503 527 l 1
 503 -213 l 1xae
 411 -202 l 1
 411 70 l 1
 377 19 325 -12 261 -12 c 0
 133 -12 62 97 62 261 c 0
 62 422 140 539 269 539 c 0
 334 539 381 508 417 468 c 1x76
 424 527 l 1x6e
281 61 m 0
 340 61 376 90 411 139 c 1
 411 397 l 1
 378 439 341 466 289 466 c 0x76
 210 466 161 400 161 263 c 0
 161 124 205 61 281 61 c 0
EndSplineSet
Validated: 1
EndChar
StartChar: r
Encoding: 114 114 81
Width: 386
Flags: W
HStem: 0 21G<95 187 95 95> 449 90<292 322.5> 507 20G<95 174 174 174> 513 20G<376 376>
VStem: 95 92<0 301 0 527>
LayerCount: 2
Fore
SplineSet
324 539 m 0xc8
 341 539 360 537 376 533 c 1x98
 359 443 l 1
 343 447 332 449 313 449 c 0xc8
 247 449 209 402 187 301 c 1
 187 0 l 1
 95 0 l 1
 95 527 l 1
 174 527 l 1xa8
 183 420 l 1
 211 499 260 539 324 539 c 0xc8
EndSplineSet
Validated: 1
EndChar
StartChar: u
Encoding: 117 117 84
Width: 582
Flags: W
TopAccentHorizontal: 288
HStem: -12 72<234.5 274.5> 0 21G<408 487 408 408> 507 20G<90 182 182 182 395 487 487 487>
VStem: 90 92<149 159 159 527> 395 92<151 527 0 527>
LayerCount: 2
Fore
SplineSet
487 527 m 1xb8
 487 0 l 1
 408 0 l 1x78
 401 82 l 1
 361 18 312 -12 237 -12 c 0
 145 -12 90 46 90 149 c 2
 90 527 l 1
 182 527 l 1
 182 159 l 2
 182 87 206 60 263 60 c 0
 320 60 363 98 395 151 c 1
 395 527 l 1
 487 527 l 1xb8
EndSplineSet
Validated: 1
EndChar
StartChar: v
Encoding: 118 118 85
Width: 492
Flags: W
TopAccentHorizontal: 246
HStem: 0 21G<192 303 192 192> 0 82<248 248 248 303 192 248> 507 20G<10 110 110 110 385 482 482 482>
VStem: 10 472<527 527>
LayerCount: 2
Fore
SplineSet
482 527 m 1xb0
 303 0 l 1
 192 0 l 1
 10 527 l 1
 110 527 l 1
 248 82 l 1x70
 385 527 l 1
 482 527 l 1xb0
EndSplineSet
Validated: 1
EndChar
StartChar: w
Encoding: 119 119 86
Width: 717
Flags: W
ItalicCorrection: 20
TopAccentHorizontal: 358
HStem: 0 64<207 207 207 265> 444 83<360 360> 507 20G<20 112 112 112 311 414 414 414 609 697 697 697>
VStem: 20 677<527 527>
LayerCount: 2
Fore
SplineSet
697 527 m 1xb0
 577 0 l 1
 452 0 l 1
 360 444 l 1xd0
 265 0 l 1
 143 0 l 1
 20 527 l 1
 112 527 l 1
 207 64 l 1
 311 527 l 1
 414 527 l 1
 513 64 l 1
 609 527 l 1
 697 527 l 1xb0
EndSplineSet
Validated: 1
EndChar
StartChar: y
Encoding: 121 121 88
Width: 492
Flags: W
ItalicCorrection: 20
TopAccentHorizontal: 246
HStem: -213 21G<61 61> 0 21G<187 218 187 187> 507 20G<10 108 108 108 387 482 482 482>
VStem: 10 472<527 527>
LayerCount: 2
Fore
SplineSet
482 527 m 1
 306 -3 l 2
 269 -115 207 -197 61 -213 c 1
 51 -141 l 1
 158 -123 188 -82 218 0 c 1
 187 0 l 1
 10 527 l 1
 108 527 l 1
 249 67 l 1
 387 527 l 1
 482 527 l 1
EndSplineSet
Validated: 1
EndChar
StartChar: braceleft
Encoding: 123 123 90
Width: 322
Flags: W
GlyphVariantsVertical: braceleft braceleft.size1 braceleft.size2 braceleft.size3 braceleft.size4
HStem: -136 71<200.61 277> 313 74<25 81.837> 765 71<200.61 277>
VStem: 95 87<-47.3274 300.21 399.79 747.327>
CounterMasks: 1 e0
LayerCount: 2
Fore
SplineSet
277 836 m 1
 277 765 l 1
 210 765 182 747 182 697 c 2
 182 458 l 2
 182 385 154 366 107 350 c 1
 154 334 182 315 182 242 c 2
 182 3 l 2
 182 -47 210 -65 277 -65 c 1
 277 -136 l 1
 142 -136 95 -92 95 13 c 2
 95 235 l 2
 95 290 78 313 25 313 c 1
 25 387 l 1
 78 387 95 410 95 465 c 2
 95 687 l 2
 95 792 142 836 277 836 c 1
EndSplineSet
EndChar
StartChar: bar
Encoding: 124 124 91
Width: 403
Flags: W
GlyphVariantsVertical: bar bar.size1 bar.size2 bar.size3 bar.size4
GlyphCompositionVertical: 2  bar.ext%0,0,200,800 bar.ext%1,200,200,800
VStem: 160 83<-116 816>
LayerCount: 2
Fore
SplineSet
243 816 m 1
 243 -116 l 1
 160 -116 l 1
 160 816 l 1
 243 816 l 1
EndSplineSet
EndChar
StartChar: uni007C
Encoding: 124 124 92
Width: 403
VWidth: 930
Flags: HW
GlyphVariantsVertical: uni007C uni007C.size1 uni007C.size2 uni007C.size3 uni007C.size4
GlyphCompositionVertical: 2  uni007C.ext%0,0,200,800 uni007C.ext%1,200,200,800
VStem: 160 83<-186 746>
LayerCount: 2
Fore
SplineSet
243 746 m 1
 243 -186 l 1
 160 -186 l 1
 160 746 l 1
 243 746 l 1
EndSplineSet
EndChar
StartChar: braceright
Encoding: 125 125 92
Width: 322
Flags: W
HStem: -136 71<45 78.5 45 112.5> 311 76<270.5 297> 765 71<45 78.5>
VStem: 140 87<3 13 13 235 458 465 465 687>
LayerCount: 2
Fore
SplineSet
45 836 m 1
 180 836 227 792 227 687 c 2
 227 465 l 2
 227 410 244 387 297 387 c 1
 297 311 l 1
 244 311 227 290 227 235 c 2
 227 13 l 2
 227 -92 180 -136 45 -136 c 1
 45 -65 l 1
 112 -65 140 -47 140 3 c 2
 140 242 l 2
 140 315 168 333 215 349 c 1
 168 365 140 385 140 458 c 2
 140 697 l 2
 140 747 112 765 45 765 c 1
 45 836 l 1
EndSplineSet
Validated: 1
EndChar
StartChar: uni007D
Encoding: 125 125 93
Width: 322
VWidth: 930
Flags: HW
GlyphVariantsVertical: uni007D uni007D.size1 uni007D.size2 uni007D.size3 uni007D.size4
GlyphCompositionVertical: 5  uni23AD%0,0,150,700 uni23AA%1,150,150,800 uni23AC%0,150,150,800 uni23AA%1,150,150,800 uni23AB%0,150,0,700
HStem: -206 71<45 78.5 45 112.5> 241 76<270.5 297> 695 71<45 78.5>
VStem: 140 87<-67 -57 -57 165 388 395 395 617>
LayerCount: 2
Fore
SplineSet
45 766 m 1
 180 766 227 722 227 617 c 2
 227 395 l 2
 227 340 244 317 297 317 c 1
 297 241 l 1
 244 241 227 220 227 165 c 2
 227 -57 l 2
 227 -162 180 -206 45 -206 c 1
 45 -135 l 1
 112 -135 140 -117 140 -67 c 2
 140 172 l 2
 140 245 168 263 215 279 c 1
 168 295 140 315 140 388 c 2
 140 627 l 2
 140 677 112 695 45 695 c 1
 45 766 l 1
EndSplineSet
EndChar
StartChar: asciitilde
Encoding: 126 126 93
Width: 488
Flags: W
HStem: 250 73<305.5 343 305.5 355.5> 312 72<146.5 184>
VStem: 35 418<287 341>
LayerCount: 2
Fore
SplineSet
319 250 m 0xa0
 242 250 205 312 163 312 c 0
 130 312 107 284 91 258 c 1
 35 287 l 1
 56 328 97 384 172 384 c 0x60
 246 384 283 323 328 323 c 0
 358 323 382 345 398 371 c 1
 453 341 l 1
 432 300 392 250 319 250 c 0xa0
EndSplineSet
Validated: 1
EndChar
StartChar: uni00A2
Encoding: 162 162 97
Width: 478
Flags: W
HStem: -154 220<249.5 313 249.5 329 249 313> -9 21G<249 249 329 329> -9 75<249 313 249.5 329> 463 73<250 250 250 313> 463 221<250 313> 516 20G<250 250 329 329>
VStem: 57 99<192 329.5 192 335.5> 250 79<536 684>
LayerCount: 2
Fore
SplineSet
406 106 m 1x33
 448 46 l 1
 412 17 373 -2 329 -9 c 1x47
 329 -154 l 1
 249 -154 l 1x87
 249 -9 l 1
 129 7 57 105 57 259 c 0
 57 412 129 519 250 536 c 1x47
 250 684 l 1
 329 684 l 1x4b
 329 536 l 1
 373 530 411 513 448 482 c 1
 404 424 l 1
 368 450 335 463 291 463 c 0
 208 463 156 398 156 261 c 0
 156 123 208 66 291 66 c 0
 335 66 366 80 406 106 c 1x33
EndSplineSet
EndChar
StartChar: sterling
Encoding: 163 163 538
Width: 520
Flags: W
HStem: 0 77<152 461> 322 60<56 122 56 122 213 421> 604 75<283 340>
VStem: 122 91<205 322 382 493 493 494>
LayerCount: 2
Fore
SplineSet
213 204 m 2
 213 139 201 104 152 77 c 1
 472 77 l 1
 461 0 l 1
 40 0 l 1
 40 73 l 1
 108 98 122 123 122 205 c 2
 122 322 l 1
 56 322 l 1
 56 382 l 1
 122 382 l 1
 122 493 l 2
 122 600 189 679 311 679 c 0
 384 679 442 653 490 596 c 1
 430 550 l 1
 398 587 365 604 315 604 c 0
 251 604 213 566 213 494 c 2
 213 382 l 1
 421 382 l 1
 421 322 l 1
 213 322 l 1
 213 204 l 2
EndSplineSet
EndChar
StartChar: currency
Encoding: 164 164 539
Width: 560
Flags: W
HStem: 132 73<255.5 301.5> 479 70<256 301.5 256 321.5> 520 20G<29 29 531 531>
VStem: 71 88<318.5 363> 404 88<318 364 318 384.5>
LayerCount: 2
Fore
SplineSet
492 341 m 0xb8
 492 295 479 253 455 218 c 1
 531 143 l 1
 476 88 l 1
 398 164 l 1
 365 144 325 132 278 132 c 0
 233 132 193 145 160 167 c 1
 82 88 l 1
 29 143 l 1
 107 221 l 1
 84 255 71 296 71 341 c 0
 71 385 84 426 106 460 c 1
 29 540 l 1
 84 595 l 1xb8
 162 515 l 1
 194 537 234 549 278 549 c 0
 325 549 366 537 399 516 c 1
 478 595 l 1xd8
 531 540 l 1
 455 463 l 1
 479 429 492 387 492 341 c 0xb8
281 205 m 0
 362 205 404 256 404 342 c 0
 404 427 362 479 281 479 c 0xd8
 202 479 159 427 159 342 c 0
 159 256 202 205 281 205 c 0
EndSplineSet
EndChar
StartChar: brokenbar
Encoding: 166 166 541
Width: 403
Flags: W
HStem: -102 909<160 243 160 243>
VStem: 160 83<-102 262 -102 262 443 807>
LayerCount: 2
Fore
SplineSet
243 807 m 1
 243 443 l 1
 160 443 l 1
 160 807 l 1
 243 807 l 1
243 262 m 1
 243 -102 l 1
 160 -102 l 1
 160 262 l 1
 243 262 l 1
EndSplineSet
EndChar
StartChar: section
Encoding: 167 167 542
Width: 533
Flags: W
HStem: -71 72<222 277 222 303> 606 71<249.5 307.5>
VStem: 70 89<299 335.5 299 336> 94 91<517.5 560.5 517.5 578.5> 349 92<45 89.5> 375 88<267.5 303.5>
LayerCount: 2
Fore
SplineSet
387 173 m 1xd8
 423 148 441 117 441 75 c 0
 441 -15 360 -71 246 -71 c 0
 175 -71 119 -50 78 -21 c 1
 113 40 l 1
 153 13 195 1 249 1 c 0
 305 1 349 24 349 66 c 0
 349 113 327 130 225 163 c 0
 120 197 70 231 70 311 c 0xe8
 70 361 101 404 147 432 c 1
 112 456 94 487 94 533 c 0
 94 624 173 677 281 677 c 0
 355 677 408 655 452 623 c 1
 417 565 l 1
 375 592 335 606 280 606 c 0
 219 606 185 581 185 540 c 0
 185 495 206 474 307 440 c 0
 413 404 463 366 463 293 c 0xd4
 463 242 430 202 387 173 c 1xd8
159 323 m 0xe4
 159 275 180 257 254 233 c 0
 284 223 310 213 333 203 c 1
 359 227 375 255 375 280 c 0
 375 327 353 345 267 376 c 0
 242 385 220 394 200 403 c 1
 174 378 159 348 159 323 c 0xe4
EndSplineSet
EndChar
StartChar: dieresis
Encoding: 168 168 543
Width: 385
Flags: W
HStem: 654 114<71.5 104 281 313.5>
VStem: 30 115<695 727> 240 115<695 727>
LayerCount: 2
Fore
SplineSet
88 768 m 0
 120 768 145 743 145 711 c 0
 145 679 120 654 88 654 c 0
 55 654 30 679 30 711 c 0
 30 743 55 768 88 768 c 0
297 768 m 0
 330 768 355 743 355 711 c 0
 355 679 330 654 297 654 c 0
 265 654 240 679 240 711 c 0
 240 743 265 768 297 768 c 0
EndSplineSet
EndChar
StartChar: copyright
Encoding: 169 169 544
Width: 810
Flags: W
HStem: 121 53<333.5 478 333.5 492.5> 245 63<385 429.5 385 436.5> 565 60<386.5 426> 696 52<333.5 478>
VStem: 92 61<357 511.5 357 526> 245 76<391.5 481.5 391.5 497> 658 60<357 511.5>
LayerCount: 2
Fore
SplineSet
406 748 m 0
 579 748 718 618 718 434 c 0
 718 251 579 121 406 121 c 0
 232 121 92 251 92 434 c 0
 92 618 232 748 406 748 c 0
406 696 m 0
 261 696 153 589 153 434 c 0
 153 280 261 174 406 174 c 0
 550 174 658 280 658 434 c 0
 658 589 550 696 406 696 c 0
408 625 m 0
 459 625 492 610 525 585 c 1
 490 538 l 1
 465 556 440 565 412 565 c 0
 361 565 321 528 321 435 c 0
 321 348 358 308 412 308 c 0
 447 308 471 320 496 339 c 1
 528 291 l 1
 500 266 464 245 409 245 c 0
 313 245 245 312 245 435 c 0
 245 559 320 625 408 625 c 0
EndSplineSet
EndChar
StartChar: ordfeminine
Encoding: 170 170 545
Width: 500
Flags: W
HStem: 0 77<71 447 71 447> 271 66<203 226.5> 470 55<255 265 265 313> 620 69<221.5 258>
VStem: 65 94<378.5 422.5 378.5 436> 313 89<390 470 470 470 525 549 549 554>
LayerCount: 2
Fore
SplineSet
255 525 m 2
 313 525 l 1
 313 549 l 2
 313 602 286 620 230 620 c 0
 200 620 160 613 117 599 c 1
 95 661 l 1
 148 680 198 689 245 689 c 0
 354 689 402 640 402 554 c 2
 402 384 l 2
 402 351 414 340 435 333 c 1
 416 272 l 1
 371 277 342 292 327 331 c 1
 298 289 252 271 201 271 c 0
 116 271 65 321 65 393 c 0
 65 479 134 525 255 525 c 2
224 337 m 0
 264 337 292 356 313 390 c 1
 313 470 l 1
 265 470 l 2
 195 470 159 447 159 398 c 0
 159 359 182 337 224 337 c 0
71 77 m 1
 447 77 l 1
 447 0 l 1
 71 0 l 1
 71 77 l 1
EndSplineSet
EndChar
StartChar: guillemotleft
Encoding: 171 171 546
Width: 575
Flags: W
HStem: 515 20G<230 230 465 465>
VStem: 55 465<77 318 77 318>
LayerCount: 2
Fore
SplineSet
230 535 m 1
 285 497 l 1
 150 287 l 1
 285 77 l 1
 230 39 l 1
 55 255 l 1
 55 318 l 1
 230 535 l 1
465 535 m 1
 520 497 l 1
 385 287 l 1
 520 77 l 1
 465 39 l 1
 290 255 l 1
 290 318 l 1
 465 535 l 1
EndSplineSet
EndChar
StartChar: logicalnot
Encoding: 172 172 547
Width: 500
Flags: W
HStem: 284 77<62 355 62 438>
VStem: 355 83<141 284 284 284>
LayerCount: 2
Fore
SplineSet
438 361 m 1
 438 141 l 1
 355 141 l 1
 355 284 l 1
 62 284 l 1
 62 361 l 1
 438 361 l 1
EndSplineSet
EndChar
StartChar: softhyphen
Encoding: 173 173 548
Width: 403
Flags: W
HStem: 274 78<60 343 60 343>
VStem: 60 283<274 352 274 352>
LayerCount: 2
Fore
SplineSet
60 274 m 1
 60 352 l 1
 343 352 l 1
 343 274 l 1
 60 274 l 1
EndSplineSet
EndChar
StartChar: macron
Encoding: 175 175 550
Width: 333
Flags: W
HStem: 667 69<30 303 30 303>
VStem: 30 273<667 736 667 736>
LayerCount: 2
Fore
SplineSet
303 667 m 1
 30 667 l 1
 30 736 l 1
 303 736 l 1
 303 667 l 1
EndSplineSet
EndChar
StartChar: degree
Encoding: 176 176 551
Width: 523
Flags: W
HStem: 381 62<196.5 242 196.5 261> 638 63<196.5 242>
VStem: 55 77<507.5 574.5 507.5 592.5> 306 77<507 573>
LayerCount: 2
Fore
SplineSet
219 381 m 0
 136 381 55 438 55 541 c 0
 55 644 136 701 219 701 c 0
 303 701 383 643 383 540 c 0
 383 437 303 381 219 381 c 0
219 443 m 0
 265 443 306 474 306 540 c 0
 306 606 265 638 219 638 c 0
 174 638 132 608 132 541 c 0
 132 474 174 443 219 443 c 0
EndSplineSet
EndChar
StartChar: plusminus
Encoding: 177 177 552
Width: 500
Flags: W
HStem: 47 77<62 438> 312 77<62 208 292 438> 518 20G<208 292>
VStem: 208 84<163 312 389 538>
LayerCount: 2
Fore
SplineSet
62 47 m 1
 62 124 l 1
 438 124 l 1
 438 47 l 1
 62 47 l 1
292 538 m 1
 292 389 l 1
 438 389 l 1
 438 312 l 1
 292 312 l 1
 292 163 l 1
 208 163 l 1
 208 312 l 1
 62 312 l 1
 62 389 l 1
 208 389 l 1
 208 538 l 1
 292 538 l 1
EndSplineSet
EndChar
StartChar: uni00B2
Encoding: 178 178 113
Width: 400
Flags: W
HStem: 322 62<155 336> 684 62<171.5 208>
VStem: 254 80<592.5 640.5>
LayerCount: 2
Fore
SplineSet
195 746 m 0
 283 746 334 694 334 626 c 0
 334 559 290 507 155 384 c 1
 344 384 l 1
 336 322 l 1
 67 322 l 1
 67 380 l 1
 217 525 254 564 254 620 c 0
 254 661 227 684 189 684 c 0
 154 684 131 671 104 640 c 1
 55 678 l 1
 90 721 136 746 195 746 c 0
EndSplineSet
EndChar
StartChar: uni00B3
Encoding: 179 179 554
Width: 400
Flags: W
HStem: 313 61<170 211.5 170 240> 512 31 512 56<162 185 185 187 153 185> 687 59<174 211>
VStem: 257 77<615 648.5> 267 81<423 470>
LayerCount: 2
Fore
SplineSet
197 746 m 0xb8
 286 746 334 698 334 641 c 0xd8
 334 589 299 556 248 543 c 1xd4
 303 538 348 506 348 441 c 0
 348 370 289 313 191 313 c 0
 133 313 86 334 52 373 c 1
 97 415 l 1
 124 386 153 374 187 374 c 0
 236 374 267 401 267 445 c 0
 267 495 237 512 187 512 c 2xb4
 153 512 l 1
 162 568 l 1
 185 568 l 2
 226 568 257 590 257 631 c 0
 257 666 231 687 191 687 c 0
 157 687 131 675 103 650 c 1
 63 694 l 1
 102 729 146 746 197 746 c 0xb8
EndSplineSet
EndChar
StartChar: acute
Encoding: 180 180 555
Width: 300
Flags: W
HStem: 638 163
VStem: 30 240<687 724>
LayerCount: 2
Fore
SplineSet
229 801 m 1
 270 724 l 1
 58 638 l 1
 30 687 l 1
 229 801 l 1
EndSplineSet
EndChar
StartChar: uni00B4
Encoding: 180 180 115
Width: 300
Flags: W
TopAccentHorizontal: 150
HStem: 638 163
VStem: 30 240<687 724>
LayerCount: 2
Fore
SplineSet
229 801 m 1
 270 724 l 1
 58 638 l 1
 30 687 l 1
 229 801 l 1
EndSplineSet
EndChar
StartChar: uni00B6
Encoding: 182 182 117
Width: 734
Flags: W
HStem: -215 21G<314 314 511 511> -202 21G<397 397 594 594> 616 73<397 511 397 397>
VStem: 314 83<-202 282 282 282> 511 83<-202 616 616 616>
LayerCount: 2
Fore
SplineSet
336 689 m 2x78
 594 689 l 1
 594 -202 l 1x78
 511 -215 l 1xb8
 511 616 l 1
 397 616 l 1
 397 -202 l 1x78
 314 -215 l 1xb8
 314 282 l 1
 157 290 90 375 90 486 c 0
 90 616 185 689 336 689 c 2x78
EndSplineSet
EndChar
StartChar: cedilla
Encoding: 184 184 559
Width: 275
Flags: W
HStem: -241 60<105 132 105 155> -99 115<93 111>
VStem: 93 59<-56 16> 168 77<-155.5 -127.5>
LayerCount: 2
Fore
SplineSet
152 16 m 1
 152 -56 l 1xf0
 220 -62 245 -100 245 -141 c 0
 245 -207 189 -241 121 -241 c 0
 83 -241 50 -232 30 -217 c 1
 55 -165 l 1
 74 -175 92 -181 118 -181 c 0
 146 -181 168 -170 168 -141 c 0
 168 -114 143 -99 79 -99 c 1xd0
 93 16 l 1
 152 16 l 1
EndSplineSet
EndChar
StartChar: uni00B9
Encoding: 185 185 120
Width: 400
Flags: W
HStem: 719 20G<205 274 274 274>
VStem: 197 77<322 660 660 660>
LayerCount: 2
Fore
SplineSet
274 739 m 1
 274 322 l 1
 197 322 l 1
 197 660 l 1
 99 603 l 1
 65 656 l 1
 205 739 l 1
 274 739 l 1
EndSplineSet
EndChar
StartChar: uni00BA
Encoding: 186 186 121
Width: 500
Flags: W
HStem: 0 77<62 438 62 438> 271 69<218 282.5 218 311.5> 620 69<218.5 283>
VStem: 56 95<432 528 432 542.5> 349 95<432 528.5>
LayerCount: 2
Fore
SplineSet
251 689 m 0
 374 689 444 609 444 480 c 0
 444 356 373 271 250 271 c 0
 127 271 56 351 56 480 c 0
 56 605 128 689 251 689 c 0
251 620 m 0
 186 620 151 576 151 480 c 0
 151 384 186 340 250 340 c 0
 315 340 349 384 349 480 c 0
 349 577 315 620 251 620 c 0
62 0 m 1
 62 77 l 1
 438 77 l 1
 438 0 l 1
 62 0 l 1
EndSplineSet
EndChar
StartChar: guillemotright
Encoding: 187 187 562
Width: 566
Flags: W
HStem: 515 20G<110 110 336 336>
VStem: 55 456<77 318 255 497>
LayerCount: 2
Fore
SplineSet
110 535 m 1
 285 318 l 1
 285 255 l 1
 110 39 l 1
 55 77 l 1
 190 287 l 1
 55 497 l 1
 110 535 l 1
336 535 m 1
 511 318 l 1
 511 255 l 1
 336 39 l 1
 281 77 l 1
 416 287 l 1
 281 497 l 1
 336 535 l 1
EndSplineSet
EndChar
StartChar: uni00BD
Encoding: 189 189 124
Width: 932
Flags: W
HStem: 0 62<687 868> 362 62<703.5 740> 669 20G<205 274 274 274> 730 20G<640 640>
VStem: 197 77<272 610 610 610> 786 80<270.5 318.5>
LayerCount: 2
Fore
SplineSet
640 750 m 1
 699 721 l 1
 293 -78 l 1
 233 -49 l 1
 640 750 l 1
274 689 m 1
 274 272 l 1
 197 272 l 1
 197 610 l 1
 99 553 l 1
 65 606 l 1
 205 689 l 1
 274 689 l 1
727 424 m 0
 815 424 866 372 866 304 c 0
 866 237 822 185 687 62 c 1
 876 62 l 1
 868 0 l 1
 599 0 l 1
 599 58 l 1
 749 203 786 242 786 298 c 0
 786 339 759 362 721 362 c 0
 686 362 663 349 636 318 c 1
 587 356 l 1
 622 399 668 424 727 424 c 0
EndSplineSet
EndChar
StartChar: threequarters
Encoding: 190 190 565
Width: 932
Flags: W
HStem: 0 156<760 761 655 836 760 760> 96 60<655 760 836 889> 263 61<170 211.5 170 240> 462 56<162 185 185 187 153 185> 637 59<174 211> 730 20G<640 640>
VStem: 257 77<565 598.5> 267 81<373 420> 760 76<0 96 0 96>
LayerCount: 2
Fore
SplineSet
640 750 m 1xbd80
 699 721 l 1
 293 -78 l 1
 233 -49 l 1
 640 750 l 1xbd80
348 391 m 0
 348 320 289 263 191 263 c 0
 133 263 86 284 52 323 c 1
 97 365 l 1
 124 336 153 324 187 324 c 0
 236 324 267 351 267 395 c 0
 267 445 237 462 187 462 c 2xbd80
 153 462 l 1
 162 518 l 1
 185 518 l 2
 226 518 257 540 257 581 c 0
 257 616 231 637 191 637 c 0
 157 637 131 625 103 600 c 1
 63 644 l 1
 102 679 146 696 197 696 c 0
 286 696 334 648 334 591 c 0xbe80
 334 539 299 506 248 493 c 1
 303 488 348 456 348 391 c 0
889 156 m 1
 889 96 l 1
 836 96 l 1x7d80
 836 0 l 1
 760 0 l 1xbd80
 760 96 l 1
 574 96 l 1
 574 150 l 1x7d80
 702 424 l 1
 768 399 l 1
 655 156 l 1
 761 156 l 1xbd80
 768 261 l 1
 836 261 l 1x7d80
 836 156 l 1
 889 156 l 1
EndSplineSet
EndChar
StartChar: questiondown
Encoding: 191 191 566
Width: 459
Flags: W
HStem: -215 76<196 252 196 262.5> 356 139<234 273.5>
VStem: 30 96<-80.5 1 -80.5 21> 184 139<406 444.5> 211 91<206 247 119.5 247>
LayerCount: 2
Fore
SplineSet
254 356 m 0xf0
 214 356 184 387 184 425 c 0
 184 464 214 495 254 495 c 0
 293 495 323 464 323 425 c 0
 323 387 293 356 254 356 c 0xf0
221 -215 m 0
 95 -215 30 -139 30 -59 c 0
 30 101 211 80 211 206 c 2
 211 247 l 1
 302 247 l 1
 302 201 l 2xa8
 302 38 126 55 126 -53 c 0
 126 -108 165 -139 227 -139 c 0
 277 -139 325 -117 366 -67 c 1
 429 -116 l 1
 372 -183 304 -215 221 -215 c 0
EndSplineSet
EndChar
StartChar: uni00C2
Encoding: 194 194 129
Width: 573
Flags: W
HStem: 0 21G<6 102 6 6 467 567 467 467> 173 77<177 392 177 415 154 392> 610 79<285 285> 669 20G<227 347 347 347>
VStem: 6 561<0 0>
LayerCount: 2
Fore
SplineSet
286 840 m 1xd8
 160 759 l 1
 120 804 l 1
 256 914 l 1
 317 914 l 1
 452 804 l 1
 413 759 l 1
 286 840 l 1xd8
467 0 m 1
 415 173 l 1
 154 173 l 1
 102 0 l 1
 6 0 l 1
 227 689 l 1
 347 689 l 1
 567 0 l 1
 467 0 l 1
177 250 m 1
 392 250 l 1
 285 610 l 1xe8
 177 250 l 1
EndSplineSet
EndChar
StartChar: uni00C3
Encoding: 195 195 130
Width: 573
Flags: W
HStem: 0 21G<6 102 6 6 467 567 467 467> 173 77<177 392 177 415 154 392> 610 79<285 285> 669 20G<227 347 347 347> 782 70<326.5 355 326.5 367.5> 830 70<217.5 247>
VStem: 6 561<0 0>
LayerCount: 2
Fore
SplineSet
229 830 m 0xd6
 206 830 192 814 176 784 c 1
 120 812 l 1
 143 861 179 900 229 900 c 0xd6
 285 900 308 852 345 852 c 0
 365 852 380 866 398 896 c 1
 454 868 l 1
 428 811 390 782 345 782 c 0xda
 292 782 265 830 229 830 c 0xd6
467 0 m 1
 415 173 l 1
 154 173 l 1
 102 0 l 1
 6 0 l 1
 227 689 l 1
 347 689 l 1
 567 0 l 1
 467 0 l 1
177 250 m 1
 392 250 l 1
 285 610 l 1xe6
 177 250 l 1
EndSplineSet
EndChar
StartChar: Adieresis
Encoding: 196 196 1092
Width: 573
Flags: W
HStem: 0 21G<6 102 6 6 467 567 467 467> 173 77<177 392 177 415 154 392> 610 79<285 285> 669 20G<227 347 347 347> 780 114<165.5 198 375 407.5>
VStem: 124 115<821 853> 334 115<821 853>
LayerCount: 2
Fore
SplineSet
182 780 m 0xde
 149 780 124 805 124 837 c 0
 124 869 149 894 182 894 c 0
 214 894 239 869 239 837 c 0
 239 805 214 780 182 780 c 0xde
391 780 m 0
 359 780 334 805 334 837 c 0
 334 869 359 894 391 894 c 0
 424 894 449 869 449 837 c 0
 449 805 424 780 391 780 c 0
467 0 m 1
 415 173 l 1
 154 173 l 1
 102 0 l 1
 6 0 l 1
 227 689 l 1
 347 689 l 1
 567 0 l 1
 467 0 l 1
177 250 m 1
 392 250 l 1
 285 610 l 1xee
 177 250 l 1
EndSplineSet
EndChar
StartChar: uni00C5
Encoding: 197 197 132
Width: 573
Flags: W
HStem: 0 21G<6 102 6 6 467 567 467 467> 173 77<177 392 177 415 154 392> 610 79<285 285> 669 20G<227 347 347 347> 750 50<270.5 303 270.5 320.5> 912 50<270.5 303.5>
VStem: 173 61<838.5 873.5 838.5 885.5> 340 61<838.5 873.5>
LayerCount: 2
Fore
SplineSet
287 750 m 0xdf
 220 750 173 797 173 856 c 0
 173 915 220 962 287 962 c 0
 354 962 401 915 401 856 c 0
 401 797 354 750 287 750 c 0xdf
287 912 m 0
 254 912 234 891 234 856 c 0
 234 821 254 800 287 800 c 0
 319 800 340 821 340 856 c 0
 340 891 320 912 287 912 c 0
467 0 m 1
 415 173 l 1
 154 173 l 1
 102 0 l 1
 6 0 l 1
 227 689 l 1
 347 689 l 1
 567 0 l 1
 467 0 l 1
177 250 m 1
 392 250 l 1
 285 610 l 1xef
 177 250 l 1
EndSplineSet
EndChar
StartChar: Ccedilla
Encoding: 199 199 1093
Width: 560
Flags: W
HStem: -241 60<329 356 329 379> -99 167<303 335> -11 79<314 314> -10 78<376 376> 623 78<295 371>
VStem: 55 101<245.5 449 245.5 461.5> 308.5 67.5 392 77<-155.5 -127.5>
LayerCount: 2
Fore
SplineSet
540 65 m 1x9c
 507 31 452 -3 376 -10 c 1x9e
 376 -56 l 1xce
 444 -62 469 -100 469 -141 c 0
 469 -207 413 -241 345 -241 c 0
 307 -241 274 -232 254 -217 c 1
 279 -165 l 1
 298 -175 316 -181 342 -181 c 0
 370 -181 392 -170 392 -141 c 0xcd
 392 -114 367 -99 303 -99 c 1xce
 314 -11 l 1xac
 162 3 55 127 55 345 c 0
 55 578 185 701 341 701 c 0
 428 701 477 677 532 633 c 1
 480 572 l 1
 437 607 395 623 347 623 c 0
 243 623 156 553 156 345 c 0
 156 146 239 68 346 68 c 0
 411 68 454 96 493 125 c 1
 540 65 l 1x9c
EndSplineSet
EndChar
StartChar: Edieresis
Encoding: 203 203 1097
Width: 535
Flags: W
HStem: 0 76<195 481 195 481> 312 76<195 427 195 427> 613 76<195 462 195 195> 780 114<168.5 201 378 410.5>
VStem: 100 95<76 312 388 613> 127 115<821 853> 337 115<821 853>
LayerCount: 2
Fore
SplineSet
185 894 m 0xf6
 217 894 242 869 242 837 c 0
 242 805 217 780 185 780 c 0
 152 780 127 805 127 837 c 0
 127 869 152 894 185 894 c 0xf6
394 894 m 0
 427 894 452 869 452 837 c 0
 452 805 427 780 394 780 c 0
 362 780 337 805 337 837 c 0
 337 869 362 894 394 894 c 0
473 689 m 1
 462 613 l 1
 195 613 l 1
 195 388 l 1
 427 388 l 1
 427 312 l 1
 195 312 l 1
 195 76 l 1
 481 76 l 1
 481 0 l 1
 100 0 l 1
 100 689 l 1xe8
 473 689 l 1
EndSplineSet
EndChar
StartChar: Igrave
Encoding: 204 204 1098
Width: 295
Flags: W
HStem: 0 21G<100 195 100 100> 669 20G<100 195 195 195>
VStem: 100 95<0 689 0 689>
LayerCount: 2
Fore
SplineSet
56 911 m 1
 257 804 l 1
 233 755 l 1
 17 834 l 1
 56 911 l 1
195 689 m 1
 195 0 l 1
 100 0 l 1
 100 689 l 1
 195 689 l 1
EndSplineSet
EndChar
StartChar: Iacute
Encoding: 205 205 1099
Width: 295
Flags: W
HStem: 0 21G<100 195 100 100> 669 20G<100 195 195 195>
VStem: 100 95<0 689 0 689>
LayerCount: 2
Fore
SplineSet
227 911 m 1
 267 834 l 1
 51 755 l 1
 27 804 l 1
 227 911 l 1
195 689 m 1
 195 0 l 1
 100 0 l 1
 100 689 l 1
 195 689 l 1
EndSplineSet
EndChar
StartChar: uni00CF
Encoding: 207 207 142
Width: 295
Flags: W
HStem: 0 21G<100 195 100 100> 669 20G<100 195 195 195> 780 114<25.5 58 235 267.5>
VStem: -16 115<821 853> 100 95<0 689 0 689> 194 115<821 853>
LayerCount: 2
Fore
SplineSet
42 894 m 0xf4
 74 894 99 869 99 837 c 0
 99 805 74 780 42 780 c 0
 9 780 -16 805 -16 837 c 0
 -16 869 9 894 42 894 c 0xf4
251 894 m 0
 284 894 309 869 309 837 c 0
 309 805 284 780 251 780 c 0
 219 780 194 805 194 837 c 0
 194 869 219 894 251 894 c 0
195 689 m 1xe8
 195 0 l 1
 100 0 l 1
 100 689 l 1
 195 689 l 1xe8
EndSplineSet
EndChar
StartChar: uni00D5
Encoding: 213 213 148
Width: 692
Flags: W
HStem: -12 78<290 404 290 432.5> 623 78<288.5 405> 782 70<385.5 414 385.5 426.5> 830 70<276.5 306>
VStem: 55 101<243.5 442.5 243.5 456.5> 536 101<244 443>
LayerCount: 2
Fore
SplineSet
404 782 m 0xec
 351 782 324 830 288 830 c 0
 265 830 251 814 235 784 c 1
 179 812 l 1
 202 861 238 900 288 900 c 0xdc
 344 900 367 852 404 852 c 0
 424 852 439 866 457 896 c 1
 513 868 l 1
 487 811 449 782 404 782 c 0xec
346 701 m 0
 519 701 637 576 637 344 c 0
 637 116 519 -12 346 -12 c 0
 174 -12 55 112 55 343 c 0
 55 570 174 701 346 701 c 0
346 623 m 0
 231 623 156 542 156 343 c 0
 156 144 234 66 346 66 c 0
 462 66 536 144 536 344 c 0
 536 542 464 623 346 623 c 0
EndSplineSet
EndChar
StartChar: uni00D6
Encoding: 214 214 149
Width: 692
Flags: W
HStem: -12 78<290 404 290 432.5> 623 78<288.5 405> 780 114<224.5 257 434 466.5>
VStem: 55 101<243.5 442.5 243.5 456.5> 183 115<821 853> 393 115<821 853> 536 101<244 443>
LayerCount: 2
Fore
SplineSet
241 894 m 0
 273 894 298 869 298 837 c 0
 298 805 273 780 241 780 c 0
 208 780 183 805 183 837 c 0
 183 869 208 894 241 894 c 0
450 894 m 0
 483 894 508 869 508 837 c 0
 508 805 483 780 450 780 c 0
 418 780 393 805 393 837 c 0
 393 869 418 894 450 894 c 0
346 701 m 0xd2
 519 701 637 576 637 344 c 0
 637 116 519 -12 346 -12 c 0
 174 -12 55 112 55 343 c 0
 55 570 174 701 346 701 c 0xd2
346 623 m 0
 231 623 156 542 156 343 c 0
 156 144 234 66 346 66 c 0
 462 66 536 144 536 344 c 0
 536 542 464 623 346 623 c 0
EndSplineSet
EndChar
StartChar: multiply
Encoding: 215 215 668
Width: 500
Flags: W
HStem: 129 357<128 128 128 372>
VStem: 72 356<185 185 185 429>
LayerCount: 2
Fore
SplineSet
372 486 m 1
 428 429 l 1
 308 309 l 1
 428 185 l 1
 372 129 l 1
 252 253 l 1
 128 129 l 1
 72 185 l 1
 192 305 l 1
 72 429 l 1
 128 486 l 1
 248 361 l 1
 372 486 l 1
EndSplineSet
EndChar
StartChar: uni00D8
Encoding: 216 216 151
Width: 692
Flags: W
HStem: -12 78<337 404 337 432.5> -5 21G<279 279> 623 78<288.5 355> 674 20G<412 412>
VStem: 55 101<277 442.5 277 456.5> 536 101<244 411.5>
LayerCount: 2
Fore
SplineSet
486 667 m 1xac
 580 616 637 506 637 344 c 0
 637 116 519 -12 346 -12 c 0xac
 323 -12 301 -10 279 -5 c 1
 244 -127 l 1
 165 -106 l 1
 205 22 l 1
 112 74 55 183 55 343 c 0
 55 570 174 701 346 701 c 0x6c
 369 701 391 699 412 694 c 1x9c
 449 819 l 1
 528 798 l 1
 486 667 l 1xac
346 623 m 0
 231 623 156 542 156 343 c 0
 156 211 187 135 238 97 c 1
 396 618 l 1
 380 621 364 623 346 623 c 0
346 66 m 0
 462 66 536 144 536 344 c 0
 536 479 506 556 452 594 c 1
 296 71 l 1
 311 68 328 66 346 66 c 0
EndSplineSet
EndChar
StartChar: uni00D9
Encoding: 217 217 152
Width: 662
Flags: W
HStem: -12 80<281 379.5 281 407.5> 669 20G<90 185 185 185 476 572 572 572>
VStem: 90 95<221 228 228 689> 476 96<228 689>
LayerCount: 2
Fore
SplineSet
240 911 m 1
 441 804 l 1
 417 755 l 1
 201 834 l 1
 240 911 l 1
572 689 m 1
 572 221 l 2
 572 84 485 -12 330 -12 c 0
 173 -12 90 84 90 221 c 2
 90 689 l 1
 185 689 l 1
 185 228 l 2
 185 121 232 68 330 68 c 0
 429 68 476 121 476 228 c 2
 476 689 l 1
 572 689 l 1
EndSplineSet
EndChar
StartChar: Ucircumflex
Encoding: 219 219 1111
Width: 662
Flags: W
HStem: -12 80<281 379.5 281 407.5> 669 20G<90 185 185 185 476 572 572 572>
VStem: 90 95<221 228 228 689> 476 96<228 689>
LayerCount: 2
Fore
SplineSet
204 759 m 1
 164 804 l 1
 300 914 l 1
 361 914 l 1
 496 804 l 1
 457 759 l 1
 330 840 l 1
 204 759 l 1
572 689 m 1
 572 221 l 2
 572 84 485 -12 330 -12 c 0
 173 -12 90 84 90 221 c 2
 90 689 l 1
 185 689 l 1
 185 228 l 2
 185 121 232 68 330 68 c 0
 429 68 476 121 476 228 c 2
 476 689 l 1
 572 689 l 1
EndSplineSet
EndChar
StartChar: uni00DE
Encoding: 222 222 157
Width: 589
Flags: W
HStem: 0 21G<100 195 100 100> 127 75<195 278 278 282 195 278> 497 74<195 280 195 281> 669 20G<100 195 195 195>
VStem: 100 95<0 127 0 202 202 497 571 689> 448 101<292.5 406.5>
LayerCount: 2
Fore
SplineSet
281 571 m 2
 447 571 549 503 549 354 c 0
 549 192 434 127 282 127 c 2
 195 127 l 1
 195 0 l 1
 100 0 l 1
 100 689 l 1
 195 689 l 1
 195 571 l 1
 281 571 l 2
278 202 m 2
 380 202 448 232 448 353 c 0
 448 460 382 497 280 497 c 2
 195 497 l 1
 195 202 l 1
 278 202 l 2
EndSplineSet
EndChar
StartChar: germandbls
Encoding: 223 223 1086
Width: 590
Flags: W
HStem: -12 74<348.5 390 347 418.5> 0 21G<92 184 92 92> 678 72<257.5 317.5>
VStem: 92 92<0 539 0 605.5> 275 87<385 459 385 468> 385 88<557.5 627.5> 456 94<129 229>
LayerCount: 2
Fore
SplineSet
293 750 m 0x7c
 405 750 473 687 473 607 c 0
 473 499 362 491 362 427 c 0
 362 343 550 336 550 162 c 0
 550 54 465 -12 372 -12 c 0
 325 -12 296 -3 270 11 c 1
 297 75 l 1
 311 68 331 62 363 62 c 0
 417 62 456 95 456 163 c 0xba
 456 295 275 297 275 420 c 0
 275 516 385 513 385 602 c 0
 385 653 343 678 292 678 c 0
 223 678 184 634 184 539 c 2
 184 0 l 1
 92 0 l 1
 92 539 l 2
 92 672 165 750 293 750 c 0x7c
EndSplineSet
EndChar
StartChar: acircumflex
Encoding: 226 226 1117
Width: 544
Flags: W
HStem: -12 69<204 245> 260 61<277 289 289 358> 464 75<235.5 284.5>
VStem: 45 98<121 188 121 203.5> 358 92<139 260 260 260 321 360 360 364>
LayerCount: 2
Fore
SplineSet
261 718 m 1
 134 634 l 1
 95 679 l 1
 230 792 l 1
 291 792 l 1
 427 679 l 1
 387 634 l 1
 261 718 l 1
450 123 m 2
 450 77 467 62 494 52 c 1
 473 -12 l 1
 420 -6 386 15 370 67 c 1
 333 12 277 -12 213 -12 c 0
 108 -12 45 53 45 147 c 0
 45 260 130 321 277 321 c 2
 358 321 l 1
 358 360 l 2
 358 436 321 464 248 464 c 0
 209 464 160 454 106 436 c 1
 83 503 l 1
 148 527 206 539 265 539 c 0
 392 539 450 474 450 364 c 2
 450 123 l 2
234 57 m 0
 288 57 328 84 358 139 c 1
 358 260 l 1
 289 260 l 2
 192 260 143 224 143 152 c 0
 143 90 174 57 234 57 c 0
EndSplineSet
EndChar
StartChar: atilde
Encoding: 227 227 1118
Width: 544
Flags: W
HStem: -12 69<204 245> 260 61<277 289 289 358> 464 75<235.5 284.5> 656 70<300.5 329 300.5 341.5> 704 70<191.5 221> 722 20G<428 428>
VStem: 45 98<121 188 121 203.5> 358 92<139 260 260 260 321 360 360 364>
LayerCount: 2
Fore
SplineSet
203 704 m 0xeb
 180 704 166 688 150 658 c 1
 94 686 l 1
 117 735 153 774 203 774 c 0xeb
 259 774 282 726 319 726 c 0
 339 726 354 740 372 770 c 1xf3
 428 742 l 1xe7
 402 685 364 656 319 656 c 0xf3
 266 656 239 704 203 704 c 0xeb
450 123 m 2xe7
 450 77 467 62 494 52 c 1
 473 -12 l 1
 420 -6 386 15 370 67 c 1
 333 12 277 -12 213 -12 c 0
 108 -12 45 53 45 147 c 0
 45 260 130 321 277 321 c 2
 358 321 l 1
 358 360 l 2
 358 436 321 464 248 464 c 0
 209 464 160 454 106 436 c 1
 83 503 l 1
 148 527 206 539 265 539 c 0
 392 539 450 474 450 364 c 2
 450 123 l 2xe7
234 57 m 0
 288 57 328 84 358 139 c 1
 358 260 l 1
 289 260 l 2
 192 260 143 224 143 152 c 0
 143 90 174 57 234 57 c 0
EndSplineSet
EndChar
StartChar: uni00E5
Encoding: 229 229 164
Width: 544
Flags: W
HStem: -12 69<204 245> 260 61<277 289 289 358> 464 75<235.5 284.5> 624 50<244.5 277 244.5 294.5> 786 50<244.5 277.5>
VStem: 45 98<121 188 121 203.5> 147 61<712.5 747.5 712.5 759.5> 314 61<712.5 747.5> 358 92<139 260 260 260 321 360 360 364>
LayerCount: 2
Fore
SplineSet
261 624 m 0xfb
 194 624 147 671 147 730 c 0
 147 789 194 836 261 836 c 0
 328 836 375 789 375 730 c 0
 375 671 328 624 261 624 c 0xfb
261 786 m 0
 228 786 208 765 208 730 c 0
 208 695 228 674 261 674 c 0
 293 674 314 695 314 730 c 0
 314 765 294 786 261 786 c 0
450 123 m 2xfc80
 450 77 467 62 494 52 c 1
 473 -12 l 1
 420 -6 386 15 370 67 c 1
 333 12 277 -12 213 -12 c 0
 108 -12 45 53 45 147 c 0
 45 260 130 321 277 321 c 2
 358 321 l 1
 358 360 l 2
 358 436 321 464 248 464 c 0
 209 464 160 454 106 436 c 1
 83 503 l 1
 148 527 206 539 265 539 c 0
 392 539 450 474 450 364 c 2
 450 123 l 2xfc80
234 57 m 0
 288 57 328 84 358 139 c 1
 358 260 l 1
 289 260 l 2
 192 260 143 224 143 152 c 0
 143 90 174 57 234 57 c 0
EndSplineSet
EndChar
StartChar: uni00E6
Encoding: 230 230 165
Width: 848
Flags: W
HStem: -12 69<207 256.5> -12 75<563 627 563 630.5> 232 68<459 706 459 795 459 706> 260 61<280 292 292 361> 466 73<547.5 623.5>
VStem: 45 101<121 188 121 203.5> 361 98<232 260 232 260 232 360> 706 91<300 306 306 357.5>
LayerCount: 2
Fore
SplineSet
797 279 m 0xaf
 797 261 796 244 795 232 c 1
 459 232 l 1
 468 110 525 63 601 63 c 0
 653 63 692 77 738 109 c 1x6f
 778 54 l 1
 726 13 667 -12 594 -12 c 0
 509 -12 444 23 404 85 c 1
 355 14 297 -12 216 -12 c 0
 110 -12 45 53 45 147 c 0
 45 260 133 321 280 321 c 2
 361 321 l 1x9f
 361 360 l 2
 361 436 324 464 251 464 c 0
 212 464 163 454 109 436 c 1
 86 503 l 1
 151 527 209 539 268 539 c 0
 352 539 399 506 425 455 c 1
 461 508 511 539 584 539 c 0
 722 539 797 440 797 279 c 0xaf
706 300 m 1
 706 306 l 2
 706 409 665 466 582 466 c 0
 512 466 466 417 459 300 c 1
 706 300 l 1
237 57 m 0
 294 57 336 86 376 149 c 1
 366 181 361 217 361 257 c 2
 361 260 l 1
 292 260 l 2x9f
 195 260 146 224 146 152 c 0
 146 90 177 57 237 57 c 0
EndSplineSet
EndChar
StartChar: uni00E7
Encoding: 231 231 166
Width: 477
Flags: W
HStem: -241 60<261 288 261 311> -99 43<235 308> -11 77<308 308> 463 76<249.5 313>
VStem: 57 99<192 329.5 192 343> 240.5 67.5 324 77<-155.5 -127.5>
LayerCount: 2
Fore
SplineSet
448 46 m 1
 406 12 360 -7 308 -11 c 1
 308 -56 l 1xfc
 376 -62 401 -100 401 -141 c 0
 401 -207 345 -241 277 -241 c 0
 239 -241 206 -232 186 -217 c 1
 211 -165 l 1
 230 -175 248 -181 274 -181 c 0
 302 -181 324 -170 324 -141 c 0xfe
 324 -114 299 -99 235 -99 c 1
 246 -9 l 1
 128 9 57 106 57 259 c 0
 57 427 144 539 287 539 c 0
 349 539 399 523 448 482 c 1
 404 424 l 1
 368 450 335 463 291 463 c 0
 208 463 156 398 156 261 c 0
 156 123 208 66 291 66 c 0
 335 66 366 80 406 106 c 1
 448 46 l 1
EndSplineSet
EndChar
StartChar: edieresis
Encoding: 235 235 1126
Width: 544
Flags: W
HStem: -12 75<259 323 259 326.5> 232 68<155 402 155 491 155 402> 466 73<243 319.5> 654 114<157.5 190 367 399.5>
VStem: 57 98<232 232 232 300 232 340> 116 115<695 727> 326 115<695 727> 402 91<300 306 306 357.5>
LayerCount: 2
Fore
SplineSet
174 654 m 0xf6
 141 654 116 679 116 711 c 0
 116 743 141 768 174 768 c 0
 206 768 231 743 231 711 c 0
 231 679 206 654 174 654 c 0xf6
383 654 m 0
 351 654 326 679 326 711 c 0
 326 743 351 768 383 768 c 0
 416 768 441 743 441 711 c 0
 441 679 416 654 383 654 c 0
493 279 m 0xe9
 493 261 492 244 491 232 c 1
 155 232 l 1
 164 110 221 63 297 63 c 0
 349 63 388 77 434 109 c 1
 474 54 l 1
 422 13 363 -12 290 -12 c 0
 143 -12 57 91 57 258 c 0
 57 422 140 539 276 539 c 0
 418 539 493 440 493 279 c 0xe9
402 300 m 1
 402 306 l 2
 402 409 361 466 278 466 c 0
 208 466 162 417 155 300 c 1
 402 300 l 1
EndSplineSet
EndChar
StartChar: iacute
Encoding: 237 237 1128
Width: 276
Flags: W
HStem: 0 21G<92 184 92 92> 507 20G<92 184 184 184>
VStem: 92 92<0 527 0 527>
LayerCount: 2
Fore
SplineSet
217 801 m 1
 258 724 l 1
 46 638 l 1
 18 687 l 1
 217 801 l 1
184 527 m 1
 184 0 l 1
 92 0 l 1
 92 527 l 1
 184 527 l 1
EndSplineSet
EndChar
StartChar: uni00EF
Encoding: 239 239 174
Width: 276
Flags: W
HStem: 0 21G<92 184 92 92> 507 20G<92 184 184 184> 654 114<16.5 49 226 258.5>
VStem: -25 115<695 727> 92 92<0 527 0 527> 185 115<695 727>
LayerCount: 2
Fore
SplineSet
33 768 m 0
 65 768 90 743 90 711 c 0
 90 679 65 654 33 654 c 0
 0 654 -25 679 -25 711 c 0
 -25 743 0 768 33 768 c 0
242 768 m 0
 275 768 300 743 300 711 c 0
 300 679 275 654 242 654 c 0
 210 654 185 679 185 711 c 0
 185 743 210 768 242 768 c 0
184 527 m 1xe8
 184 0 l 1
 92 0 l 1
 92 527 l 1
 184 527 l 1xe8
EndSplineSet
EndChar
StartChar: ntilde
Encoding: 241 241 1131
Width: 579
Flags: W
HStem: 0 21G<92 184 92 92 401 493 401 401> 467 72<305.5 343.5> 507 20G<92 171 171 171> 656 70<334.5 363 334.5 375.5> 704 70<225.5 255> 722 20G<462 462>
VStem: 92 92<0 374 0 527> 401 92<0 365 365 378 0 404.5>
LayerCount: 2
Fore
SplineSet
237 704 m 0xcb
 214 704 200 688 184 658 c 1
 128 686 l 1
 151 735 187 774 237 774 c 0xcb
 293 774 316 726 353 726 c 0
 373 726 388 740 406 770 c 1xd3
 462 742 l 1xc7
 436 685 398 656 353 656 c 0xd3
 300 656 273 704 237 704 c 0xcb
340 539 m 0xc7
 437 539 493 478 493 378 c 2
 493 0 l 1
 401 0 l 1
 401 365 l 2
 401 444 369 467 318 467 c 0
 259 467 219 430 184 374 c 1xc7
 184 0 l 1
 92 0 l 1
 92 527 l 1
 171 527 l 1xa7
 179 449 l 1
 215 503 271 539 340 539 c 0xc7
EndSplineSet
EndChar
StartChar: otilde
Encoding: 245 245 1135
Width: 584
Flags: W
HStem: -12 74<248 336 248 366.5> 465 74<249 336.5> 656 70<331.5 360 331.5 372.5> 704 70<222.5 252> 722 20G<459 459>
VStem: 57 99<194.5 332 194.5 344.5> 428 99<195 332.5>
LayerCount: 2
Fore
SplineSet
350 656 m 0xe6
 297 656 270 704 234 704 c 0
 211 704 197 688 181 658 c 1
 125 686 l 1
 148 735 184 774 234 774 c 0xd6
 290 774 313 726 350 726 c 0
 370 726 385 740 403 770 c 1xe6
 459 742 l 1xce
 433 685 395 656 350 656 c 0xe6
293 539 m 0xce
 443 539 527 431 527 264 c 0
 527 101 441 -12 292 -12 c 0
 142 -12 57 96 57 263 c 0
 57 426 143 539 293 539 c 0xce
293 465 m 0
 205 465 156 401 156 263 c 0
 156 126 204 62 292 62 c 0
 380 62 428 126 428 264 c 0
 428 401 380 465 293 465 c 0
EndSplineSet
EndChar
StartChar: uni00F6
Encoding: 246 246 181
Width: 584
Flags: W
HStem: -12 74<248 336 248 366.5> 465 74<249 336.5> 654 114<170.5 203 380 412.5>
VStem: 57 99<194.5 332 194.5 344.5> 129 115<695 727> 339 115<695 727> 428 99<195 332.5>
LayerCount: 2
Fore
SplineSet
187 768 m 0xec
 219 768 244 743 244 711 c 0
 244 679 219 654 187 654 c 0
 154 654 129 679 129 711 c 0
 129 743 154 768 187 768 c 0xec
396 768 m 0
 429 768 454 743 454 711 c 0
 454 679 429 654 396 654 c 0
 364 654 339 679 339 711 c 0
 339 743 364 768 396 768 c 0
293 539 m 0xd2
 443 539 527 431 527 264 c 0
 527 101 441 -12 292 -12 c 0
 142 -12 57 96 57 263 c 0
 57 426 143 539 293 539 c 0xd2
293 465 m 0
 205 465 156 401 156 263 c 0
 156 126 204 62 292 62 c 0
 380 62 428 126 428 264 c 0
 428 401 380 465 293 465 c 0
EndSplineSet
EndChar
StartChar: divide
Encoding: 247 247 669
Width: 500
Flags: W
HStem: 75 139<199.729 301.157> 294 76<62 438> 451 139<199.729 301.157>
VStem: 181 139<94.2058 194.908 470.206 570.908>
LayerCount: 2
Fore
SplineSet
250 590 m 0
 290 590 320 559 320 521 c 0
 320 482 290 451 250 451 c 0
 211 451 181 482 181 521 c 0
 181 559 211 590 250 590 c 0
62 294 m 1
 62 370 l 1
 438 370 l 1
 438 294 l 1
 62 294 l 1
250 214 m 0
 290 214 320 183 320 145 c 0
 320 106 290 75 250 75 c 0
 211 75 181 106 181 145 c 0
 181 183 211 214 250 214 c 0
EndSplineSet
EndChar
StartChar: uni00F9
Encoding: 249 249 184
Width: 575
Flags: W
HStem: -12 72<230.5 270.5> 0 21G<404 483 404 404> 507 20G<86 178 178 178 391 483 483 483>
VStem: 86 92<149 159 159 527> 391 92<151 527 0 527>
LayerCount: 2
Fore
SplineSet
216 801 m 1xb8
 415 687 l 1
 387 638 l 1
 175 724 l 1
 216 801 l 1xb8
483 527 m 1
 483 0 l 1
 404 0 l 1x78
 397 82 l 1
 357 18 308 -12 233 -12 c 0
 141 -12 86 46 86 149 c 2
 86 527 l 1
 178 527 l 1
 178 159 l 2
 178 87 202 60 259 60 c 0
 316 60 359 98 391 151 c 1
 391 527 l 1
 483 527 l 1
EndSplineSet
EndChar
StartChar: ucircumflex
Encoding: 251 251 1139
Width: 575
Flags: W
HStem: -12 72<230.5 270.5> 0 21G<404 483 404 404> 507 20G<86 178 178 178 391 483 483 483>
VStem: 86 92<149 159 159 527> 391 92<151 527 0 527>
LayerCount: 2
Fore
SplineSet
158 634 m 1xb8
 119 679 l 1
 254 792 l 1
 315 792 l 1
 451 679 l 1
 411 634 l 1
 285 718 l 1
 158 634 l 1xb8
483 527 m 1
 483 0 l 1
 404 0 l 1x78
 397 82 l 1
 357 18 308 -12 233 -12 c 0
 141 -12 86 46 86 149 c 2
 86 527 l 1
 178 527 l 1
 178 159 l 2
 178 87 202 60 259 60 c 0
 316 60 359 98 391 151 c 1
 391 527 l 1
 483 527 l 1
EndSplineSet
EndChar
StartChar: thorn
Encoding: 254 254 1142
Width: 586
Flags: W
HStem: -213 21G<92 92> -12 75<293.5 342 276 390> 466 73<305 350.5> 719 20G<92 92> 730 20G<184 184>
VStem: 92 92<-198 48 -198 127 127 384 463 739 739 739> 430 99<195 332.5>
LayerCount: 2
Fore
SplineSet
334 539 m 0xee
 474 539 529 430 529 264 c 0
 529 104 458 -12 322 -12 c 0
 265 -12 218 7 184 48 c 1
 184 -198 l 1
 92 -213 l 1
 92 739 l 1xf6
 184 750 l 1
 184 463 l 1
 222 513 276 539 334 539 c 0xee
300 63 m 0
 384 63 430 126 430 264 c 0
 430 401 390 466 311 466 c 0
 255 466 212 426 184 384 c 1
 184 127 l 1
 211 86 252 63 300 63 c 0
EndSplineSet
EndChar
StartChar: ydieresis
Encoding: 255 255 1143
Width: 492
Flags: W
HStem: -213 21G<61 61> 0 21G<187 218 187 187> 507 20G<10 108 108 108 387 482 482 482> 654 114<124.5 157 334 366.5>
VStem: 83 115<695 727> 293 115<695 727>
LayerCount: 2
Fore
SplineSet
141 768 m 0
 173 768 198 743 198 711 c 0
 198 679 173 654 141 654 c 0
 108 654 83 679 83 711 c 0
 83 743 108 768 141 768 c 0
350 768 m 0
 383 768 408 743 408 711 c 0
 408 679 383 654 350 654 c 0
 318 654 293 679 293 711 c 0
 293 743 318 768 350 768 c 0
482 527 m 1
 306 -3 l 2
 269 -115 207 -197 61 -213 c 1
 51 -141 l 1
 158 -123 188 -82 218 0 c 1
 187 0 l 1
 10 527 l 1
 108 527 l 1
 249 67 l 1
 387 527 l 1
 482 527 l 1
EndSplineSet
EndChar
StartChar: uni0100
Encoding: 256 256 191
Width: 573
Flags: W
HStem: 0 21G<6 102 6 6 467 567 467 467> 173 77<177 392 177 415 154 392> 610 79<285 285> 669 20G<227 347 347 347> 793 69<150 423 150 423>
VStem: 150 273<793 862 793 862>
LayerCount: 2
Fore
SplineSet
423 862 m 1xdc
 423 793 l 1
 150 793 l 1
 150 862 l 1
 423 862 l 1xdc
467 0 m 1
 415 173 l 1
 154 173 l 1
 102 0 l 1
 6 0 l 1
 227 689 l 1
 347 689 l 1
 567 0 l 1
 467 0 l 1
177 250 m 1
 392 250 l 1
 285 610 l 1xec
 177 250 l 1
EndSplineSet
EndChar
StartChar: uni0102
Encoding: 258 258 193
Width: 573
Flags: W
HStem: 0 21G<6 102 6 6 467 567 467 467> 173 77<177 392 177 415 154 392> 610 79<285 285> 669 20G<227 347 347 347> 758 70<261.5 308.5 261.5 325.5>
VStem: 6 561<0 0>
LayerCount: 2
Fore
SplineSet
285 758 m 0xdc
 205 758 143 807 135 881 c 1
 196 894 l 1
 210 854 238 828 285 828 c 0
 332 828 363 854 377 894 c 1
 438 881 l 1
 430 807 366 758 285 758 c 0xdc
467 0 m 1
 415 173 l 1
 154 173 l 1
 102 0 l 1
 6 0 l 1
 227 689 l 1
 347 689 l 1
 567 0 l 1
 467 0 l 1
177 250 m 1
 392 250 l 1
 285 610 l 1xec
 177 250 l 1
EndSplineSet
EndChar
StartChar: aogonek
Encoding: 261 261 1149
Width: 544
Flags: W
HStem: -244 70<385.5 408> -12 21G<160.5 245 473 473> -12 69<204 245> 260 61<277 289 289 358> 464 75<235.5 284.5>
VStem: 45 98<121 188 121 203.5> 270 80<-141 -110.5> 358 92<139 260 260 260 321 360 360 364>
LayerCount: 2
Fore
SplineSet
473 -12 m 1xbd
 371 -56 350 -90 350 -126 c 0
 350 -156 365 -174 406 -174 c 0
 427 -174 443 -172 467 -167 c 1
 458 -237 l 1
 438 -241 421 -244 395 -244 c 0
 318 -244 270 -201 270 -143 c 0xbf
 270 -78 316 -30 414 6 c 1xdd
 393 19 379 38 370 67 c 1
 333 12 277 -12 213 -12 c 0
 108 -12 45 53 45 147 c 0
 45 260 130 321 277 321 c 2
 358 321 l 1
 358 360 l 2
 358 436 321 464 248 464 c 0
 209 464 160 454 106 436 c 1
 83 503 l 1
 148 527 206 539 265 539 c 0
 392 539 450 474 450 364 c 2
 450 123 l 2
 450 77 467 62 494 52 c 1
 473 -12 l 1xbd
234 57 m 0
 288 57 328 84 358 139 c 1
 358 260 l 1
 289 260 l 2
 192 260 143 224 143 152 c 0
 143 90 174 57 234 57 c 0
EndSplineSet
EndChar
StartChar: ccircumflex
Encoding: 265 265 1153
Width: 477
Flags: W
HStem: -12 78<249.5 313 249.5 317.5> 463 76<249.5 313>
VStem: 57 99<192 329.5 192 343>
LayerCount: 2
Fore
SplineSet
162 634 m 1
 123 679 l 1
 258 792 l 1
 319 792 l 1
 455 679 l 1
 415 634 l 1
 289 718 l 1
 162 634 l 1
287 539 m 0
 349 539 399 523 448 482 c 1
 404 424 l 1
 368 450 335 463 291 463 c 0
 208 463 156 398 156 261 c 0
 156 123 208 66 291 66 c 0
 335 66 366 80 406 106 c 1
 448 46 l 1
 401 8 348 -12 287 -12 c 0
 145 -12 57 89 57 259 c 0
 57 427 144 539 287 539 c 0
EndSplineSet
EndChar
StartChar: cdotaccent
Encoding: 267 267 1155
Width: 477
Flags: W
HStem: -12 78<249.5 313 249.5 317.5> 463 76<249.5 313> 655 125<269 307.5>
VStem: 57 99<192 329.5 192 343> 224 129<699.5 735>
LayerCount: 2
Fore
SplineSet
288 780 m 0
 327 780 353 753 353 717 c 0
 353 682 327 655 288 655 c 0
 250 655 224 682 224 717 c 0
 224 753 250 780 288 780 c 0
287 539 m 0
 349 539 399 523 448 482 c 1
 404 424 l 1
 368 450 335 463 291 463 c 0
 208 463 156 398 156 261 c 0
 156 123 208 66 291 66 c 0
 335 66 366 80 406 106 c 1
 448 46 l 1
 401 8 348 -12 287 -12 c 0
 145 -12 57 89 57 259 c 0
 57 427 144 539 287 539 c 0
EndSplineSet
EndChar
StartChar: uni010D
Encoding: 269 269 204
Width: 477
Flags: W
HStem: -12 78<249.5 313 249.5 317.5> 463 76<249.5 313> 627 74<289 289 289 320 259 289> 681 20G<289 289> 720 20G<123 123 455 455>
VStem: 57 99<192 329.5 192 343>
LayerCount: 2
Fore
SplineSet
416 785 m 1xdc
 455 740 l 1
 320 627 l 1
 259 627 l 1xec
 123 740 l 1
 163 785 l 1
 289 701 l 1
 416 785 l 1xdc
287 539 m 0
 349 539 399 523 448 482 c 1
 404 424 l 1
 368 450 335 463 291 463 c 0
 208 463 156 398 156 261 c 0
 156 123 208 66 291 66 c 0
 335 66 366 80 406 106 c 1
 448 46 l 1
 401 8 348 -12 287 -12 c 0
 145 -12 57 89 57 259 c 0
 57 427 144 539 287 539 c 0
EndSplineSet
EndChar
StartChar: dcaron
Encoding: 271 271 1159
Width: 598
Flags: W
HStem: -12 73<238 288.5> 0 21G<417 498 417 417> 466 73<244.5 295 199.5 310> 719 20G<498 498 651 651> 729 20G<568 568> 730 20G<406 406>
VStem: 57 99<193.5 331.5 193.5 341.5> 406 92<139 397 397 397 474 739 0 750 0 750>
LayerCount: 2
Fore
SplineSet
406 474 m 1xa7
 406 750 l 1xa7
 498 739 l 1
 498 0 l 1
 417 0 l 1x73
 408 73 l 1
 374 20 321 -12 256 -12 c 0
 128 -12 57 97 57 261 c 0
 57 422 135 539 264 539 c 0
 326 539 371 511 406 474 c 1xa7
568 749 m 1xab
 651 739 l 1xb3
 601 555 l 1
 548 563 l 1
 568 749 l 1xab
276 61 m 0
 335 61 371 90 406 139 c 1
 406 397 l 1
 373 439 336 466 284 466 c 0
 205 466 156 400 156 263 c 0
 156 124 200 61 276 61 c 0
EndSplineSet
EndChar
StartChar: uni0111
Encoding: 273 273 1081
Width: 604
Flags: W
HStem: -12 73<238 288.5> 0 21G<417 498 417 417> 466 73<244.5 295 199.5 310> 606 70<253 406 253 406 498 582> 719 20G<498 498> 730 20G<406 406>
VStem: 57 99<193.5 331.5 193.5 341.5> 406 92<139 397 397 397 474 606 0 606 676 739>
LayerCount: 2
Fore
SplineSet
498 676 m 1xb7
 582 676 l 1
 582 606 l 1
 498 606 l 1
 498 0 l 1
 417 0 l 1x77
 408 73 l 1
 374 20 321 -12 256 -12 c 0
 128 -12 57 97 57 261 c 0
 57 422 135 539 264 539 c 0
 326 539 371 511 406 474 c 1
 406 606 l 1
 253 606 l 1
 253 676 l 1
 406 676 l 1
 406 750 l 1xb7
 498 739 l 1xbb
 498 676 l 1xb7
276 61 m 0xb7
 335 61 371 90 406 139 c 1
 406 397 l 1
 373 439 336 466 284 466 c 0
 205 466 156 400 156 263 c 0
 156 124 200 61 276 61 c 0xb7
EndSplineSet
EndChar
StartChar: uni0112
Encoding: 274 274 209
Width: 535
Flags: W
HStem: 0 76<195 481 195 481> 312 76<195 427 195 427> 613 76<195 462 195 195> 793 69<153 426 153 426>
VStem: 100 95<76 312 388 613> 153 273<793 862 793 862>
LayerCount: 2
Fore
SplineSet
426 793 m 1xf4
 153 793 l 1
 153 862 l 1
 426 862 l 1
 426 793 l 1xf4
473 689 m 1
 462 613 l 1
 195 613 l 1
 195 388 l 1
 427 388 l 1
 427 312 l 1
 195 312 l 1
 195 76 l 1
 481 76 l 1
 481 0 l 1
 100 0 l 1
 100 689 l 1xf8
 473 689 l 1
EndSplineSet
EndChar
StartChar: Eogonek
Encoding: 280 280 1167
Width: 535
Flags: W
HStem: -232 70<353.5 376> 0 76<195 339 441 481 441 441> 312 76<195 427 195 427> 613 76<195 462 195 195>
VStem: 100 95<76 76 76 312 388 613> 238 80<-129 -103.5>
LayerCount: 2
Fore
SplineSet
195 76 m 1
 481 76 l 1
 481 0 l 1
 441 0 l 1
 339 -44 318 -78 318 -114 c 0
 318 -144 333 -162 374 -162 c 0
 395 -162 411 -160 435 -155 c 1
 426 -225 l 1
 406 -229 389 -232 363 -232 c 0
 286 -232 238 -189 238 -131 c 0
 238 -76 271 -34 339 0 c 1
 100 0 l 1
 100 689 l 1
 473 689 l 1
 462 613 l 1
 195 613 l 1
 195 388 l 1
 427 388 l 1
 427 312 l 1
 195 312 l 1
 195 76 l 1
EndSplineSet
EndChar
StartChar: Ecaron
Encoding: 282 282 1169
Width: 535
Flags: W
HStem: 0 76<195 481 195 481> 312 76<195 427 195 427> 613 76<195 462 195 195>
VStem: 100 95<76 312 388 613>
LayerCount: 2
Fore
SplineSet
417 909 m 1
 456 864 l 1
 321 754 l 1
 260 754 l 1
 124 864 l 1
 164 909 l 1
 290 828 l 1
 417 909 l 1
473 689 m 1
 462 613 l 1
 195 613 l 1
 195 388 l 1
 427 388 l 1
 427 312 l 1
 195 312 l 1
 195 76 l 1
 481 76 l 1
 481 0 l 1
 100 0 l 1
 100 689 l 1
 473 689 l 1
EndSplineSet
EndChar
StartChar: Gbreve
Encoding: 286 286 1173
Width: 631
Flags: W
HStem: -12 78<283.5 367 283.5 388> 305 77<353 475 353 353> 623 78<304.5 385> 758 70<329.5 376.5 329.5 393.5>
VStem: 55 101<246 446.5 246 461> 475 94<97 305 305 305>
LayerCount: 2
Fore
SplineSet
353 758 m 0
 273 758 211 807 203 881 c 1
 264 894 l 1
 278 854 306 828 353 828 c 0
 400 828 431 854 445 894 c 1
 506 881 l 1
 498 807 434 758 353 758 c 0
354 701 m 0
 445 701 502 674 561 625 c 1
 505 567 l 1
 457 606 416 623 354 623 c 0
 255 623 156 548 156 345 c 0
 156 147 223 66 344 66 c 0
 390 66 436 75 475 97 c 1
 475 305 l 1
 353 305 l 1
 342 382 l 1
 569 382 l 1
 569 49 l 1
 504 12 432 -12 344 -12 c 0
 166 -12 55 107 55 345 c 0
 55 577 195 701 354 701 c 0
EndSplineSet
EndChar
StartChar: gbreve
Encoding: 287 287 1174
Width: 520
Flags: W
HStem: -213 72<193 308 193 332.5> 16 77<169 318 234 299> 175 61<246 290 218 321> 473 66<216.5 252 194 289.5> 487 52 643 70<234.5 281.5 234.5 298.5>
VStem: 25 83<-83 -53 -83 -53> 49 94<321 389.5 320 409> 80 85<124 133> 365 94<318 384.5 302 394.5> 405 93<-85.5 -34>
LayerCount: 2
Fore
SplineSet
258 643 m 0xf540
 178 643 116 692 108 776 c 1
 169 789 l 1
 183 739 211 713 258 713 c 0
 305 713 336 739 350 789 c 1
 411 776 l 1
 403 692 339 643 258 643 c 0xf540
493 586 m 1
 520 503 l 1
 476 489 426 487 366 487 c 1
 428 459 459 415 459 354 c 0
 459 250 384 175 258 175 c 0
 234 175 213 178 191 185 c 1
 176 174 165 155 165 136 c 0
 165 112 180 93 234 93 c 2xecc0
 318 93 l 2
 426 93 498 31 498 -53 c 0
 498 -155 414 -213 251 -213 c 0
 79 -213 25 -160 25 -53 c 1
 108 -53 l 1xf620
 108 -113 135 -141 251 -141 c 0
 365 -141 405 -112 405 -59 c 0
 405 -9 365 16 299 16 c 2
 216 16 l 2
 122 16 80 63 80 116 c 0xf4a0
 80 150 100 184 138 209 c 1
 77 241 49 287 49 355 c 0
 49 463 136 539 252 539 c 0
 383 536 431 558 493 586 c 1
252 473 m 0xf540
 181 473 143 424 143 355 c 0
 143 285 182 236 254 236 c 0
 326 236 365 280 365 356 c 0
 365 433 327 473 252 473 c 0xf540
EndSplineSet
EndChar
StartChar: uni0122
Encoding: 290 290 1177
Width: 631
Flags: W
HStem: -12 78<283.5 367 283.5 388> 305 77<353 475 353 353> 623 78<304.5 385>
VStem: 55 101<246 446.5 246 461> 288 115<-141.5 -117 -141.5 -117> 475 94<97 305 305 305>
LayerCount: 2
Fore
SplineSet
354 701 m 0
 445 701 502 674 561 625 c 1
 505 567 l 1
 457 606 416 623 354 623 c 0
 255 623 156 548 156 345 c 0
 156 147 223 66 344 66 c 0
 390 66 436 75 475 97 c 1
 475 305 l 1
 353 305 l 1
 342 382 l 1
 569 382 l 1
 569 49 l 1
 504 12 432 -12 344 -12 c 0
 166 -12 55 107 55 345 c 0
 55 577 195 701 354 701 c 0
346 -77 m 0
 378 -77 403 -101 403 -133 c 0
 403 -150 398 -166 377 -210 c 2
 336 -296 l 1
 283 -296 l 1
 312 -180 l 1
 298 -168 288 -152 288 -133 c 0
 288 -101 314 -77 346 -77 c 0
EndSplineSet
EndChar
StartChar: uni0123
Encoding: 291 291 1178
Width: 520
Flags: W
HStem: -213 72<193 308 193 332.5> 16 77<169 318 234 299> 175 61<246 290 218 321> 473 66<216.5 252 194 289.5> 487 52
VStem: 25 83<-83 -53 -83 -53> 49 94<321 389.5 320 409> 80 85<124 133> 204 115<623 647.5> 365 94<318 384.5 302 394.5> 405 93<-85.5 -34>
LayerCount: 2
Fore
SplineSet
261 583 m 0xf2c0
 229 583 204 607 204 639 c 0
 204 656 209 672 230 716 c 2
 271 802 l 1
 324 802 l 1
 295 686 l 1
 309 674 319 658 319 639 c 0
 319 607 293 583 261 583 c 0xf2c0
493 586 m 1
 520 503 l 1
 476 489 426 487 366 487 c 1
 428 459 459 415 459 354 c 0
 459 250 384 175 258 175 c 0
 234 175 213 178 191 185 c 1
 176 174 165 155 165 136 c 0
 165 112 180 93 234 93 c 2xe9c0
 318 93 l 2
 426 93 498 31 498 -53 c 0
 498 -155 414 -213 251 -213 c 0
 79 -213 25 -160 25 -53 c 1
 108 -53 l 1xf4a0
 108 -113 135 -141 251 -141 c 0
 365 -141 405 -112 405 -59 c 0
 405 -9 365 16 299 16 c 2
 216 16 l 2
 122 16 80 63 80 116 c 0xf1a0
 80 150 100 184 138 209 c 1
 77 241 49 287 49 355 c 0
 49 463 136 539 252 539 c 0
 383 536 431 558 493 586 c 1
252 473 m 0xf2c0
 181 473 143 424 143 355 c 0
 143 285 182 236 254 236 c 0
 326 236 365 280 365 356 c 0
 365 433 327 473 252 473 c 0xf2c0
EndSplineSet
EndChar
StartChar: hcircumflex
Encoding: 293 293 1180
Width: 579
Flags: W
HStem: 0 21G<92 184 92 92 401 493 401 401> 467 72<307 342> 728 20G<184 184>
VStem: 92 92<0 375 0 454 454 738 738 738> 401 92<0 365 365 378 0 404.5>
LayerCount: 2
Fore
SplineSet
288 890 m 1
 162 809 l 1
 122 854 l 1
 258 964 l 1
 319 964 l 1
 454 854 l 1
 415 809 l 1
 288 890 l 1
340 539 m 0
 436 539 493 477 493 378 c 2
 493 0 l 1
 401 0 l 1
 401 365 l 2
 401 444 367 467 317 467 c 0
 260 467 219 430 184 375 c 1
 184 0 l 1
 92 0 l 1
 92 738 l 1
 184 748 l 1
 184 454 l 1
 222 506 274 539 340 539 c 0
EndSplineSet
EndChar
StartChar: Hbar
Encoding: 294 294 1181
Width: 688
Flags: W
HStem: 0 21G<104 199 104 104 489 584 489 489> 323 78<199 489 199 489> 508 69<35 104 35 104 199 489 584 653> 508 181<35 199 35 199 104 199 104 489>
VStem: 104 95<0 323 0 401 401 508 577 689> 489 95<0 323 323 323 401 508 0 508 577 689>
LayerCount: 2
Fore
SplineSet
653 577 m 1xec
 653 508 l 1
 584 508 l 1
 584 0 l 1
 489 0 l 1
 489 323 l 1
 199 323 l 1
 199 0 l 1
 104 0 l 1
 104 508 l 1
 35 508 l 1
 35 577 l 1
 104 577 l 1xec
 104 689 l 1
 199 689 l 1xdc
 199 577 l 1
 489 577 l 1xec
 489 689 l 1
 584 689 l 1xdc
 584 577 l 1
 653 577 l 1xec
489 401 m 1
 489 508 l 1
 199 508 l 1
 199 401 l 1
 489 401 l 1
EndSplineSet
EndChar
StartChar: uni0128
Encoding: 296 296 231
Width: 295
Flags: W
HStem: 0 21G<100 195 100 100> 669 20G<100 195 195 195> 782 70<186.5 215 186.5 227.5> 830 70<77.5 107>
VStem: 100 95<0 689 0 689>
LayerCount: 2
Fore
SplineSet
205 782 m 0xe8
 152 782 125 830 89 830 c 0
 66 830 52 814 36 784 c 1
 -20 812 l 1
 3 861 39 900 89 900 c 0xd8
 145 900 168 852 205 852 c 0
 225 852 240 866 258 896 c 1
 314 868 l 1
 288 811 250 782 205 782 c 0xe8
195 689 m 1xd8
 195 0 l 1
 100 0 l 1
 100 689 l 1
 195 689 l 1xd8
EndSplineSet
EndChar
StartChar: uni0129
Encoding: 297 297 232
Width: 276
Flags: W
HStem: 0 21G<92 184 92 92> 507 20G<92 184 184 184> 656 70<177.5 206 177.5 218.5> 704 70<68.5 98> 722 20G<305 305>
VStem: 92 92<0 527 0 527>
LayerCount: 2
Fore
SplineSet
196 656 m 0xe4
 143 656 116 704 80 704 c 0
 57 704 43 688 27 658 c 1
 -29 686 l 1
 -6 735 30 774 80 774 c 0xd4
 136 774 159 726 196 726 c 0
 216 726 231 740 249 770 c 1xe4
 305 742 l 1xcc
 279 685 241 656 196 656 c 0xe4
184 527 m 1xcc
 184 0 l 1
 92 0 l 1
 92 527 l 1
 184 527 l 1xcc
EndSplineSet
EndChar
StartChar: imacron
Encoding: 299 299 1185
Width: 276
Flags: W
HStem: 0 21G<92 184 92 92> 507 20G<92 184 184 184> 667 69<1 274 1 274>
VStem: 92 92<0 527 0 527>
LayerCount: 2
Fore
SplineSet
274 667 m 1
 1 667 l 1
 1 736 l 1
 274 736 l 1
 274 667 l 1
184 527 m 1
 184 0 l 1
 92 0 l 1
 92 527 l 1
 184 527 l 1
EndSplineSet
EndChar
StartChar: uni012C
Encoding: 300 300 235
Width: 295
Flags: W
HStem: 0 21G<100 195 100 100> 669 20G<100 195 195 195> 758 70<121.5 168.5 121.5 185.5>
VStem: 100 95<0 689 0 689>
LayerCount: 2
Fore
SplineSet
145 758 m 0
 65 758 3 807 -5 881 c 1
 56 894 l 1
 70 854 98 828 145 828 c 0
 192 828 223 854 237 894 c 1
 298 881 l 1
 290 807 226 758 145 758 c 0
195 689 m 1
 195 0 l 1
 100 0 l 1
 100 689 l 1
 195 689 l 1
EndSplineSet
EndChar
StartChar: ibreve
Encoding: 301 301 1187
Width: 276
Flags: W
HStem: 0 21G<92 184 92 92> 507 20G<92 184 184 184> 643 70<112.5 159.5 112.5 176.5>
VStem: 92 92<0 527 0 527>
LayerCount: 2
Fore
SplineSet
136 643 m 0
 56 643 -6 692 -14 776 c 1
 47 789 l 1
 61 739 89 713 136 713 c 0
 183 713 214 739 228 789 c 1
 289 776 l 1
 281 692 217 643 136 643 c 0
184 527 m 1
 184 0 l 1
 92 0 l 1
 92 527 l 1
 184 527 l 1
EndSplineSet
EndChar
StartChar: Iogonek
Encoding: 302 302 1188
Width: 295
Flags: W
HStem: -232 70<107.5 130> 0 21G<195 195> 669 20G<100 195 195 195>
VStem: -8 80<-129 -103> 100 95<3 689>
LayerCount: 2
Fore
SplineSet
195 0 m 1
 93 -44 72 -78 72 -114 c 0
 72 -144 87 -162 128 -162 c 0
 149 -162 165 -160 189 -155 c 1
 180 -225 l 1
 160 -229 143 -232 117 -232 c 0
 40 -232 -8 -189 -8 -131 c 0xf8
 -8 -75 27 -31 100 3 c 1
 100 689 l 1
 195 689 l 1
 195 0 l 1
EndSplineSet
EndChar
StartChar: uni012F
Encoding: 303 303 238
Width: 276
Flags: W
HStem: -232 70<96.5 119> 0 21G<184 184> 507 20G<92 184 184 184> 655 125<118 156.5>
VStem: -19 80<-129 -102.5> 73 129<699.5 735> 92 92<5 527 0 527>
LayerCount: 2
Fore
SplineSet
137 780 m 0xf4
 176 780 202 753 202 717 c 0
 202 682 176 655 137 655 c 0
 99 655 73 682 73 717 c 0
 73 753 99 780 137 780 c 0xf4
92 5 m 1xfa
 92 527 l 1
 184 527 l 1
 184 0 l 1
 82 -44 61 -78 61 -114 c 0
 61 -144 76 -162 117 -162 c 0
 138 -162 154 -160 178 -155 c 1
 169 -225 l 1
 149 -229 132 -232 106 -232 c 0
 29 -232 -19 -189 -19 -131 c 0
 -19 -74 17 -30 92 5 c 1xfa
EndSplineSet
EndChar
StartChar: uni0130
Encoding: 304 304 239
Width: 295
Flags: W
HStem: 0 21G<100 195 100 100> 669 20G<100 195 195 195> 781 125<127 165.5>
VStem: 82 129<825.5 861> 100 95<0 689 0 689>
LayerCount: 2
Fore
SplineSet
146 906 m 0xf0
 185 906 211 879 211 843 c 0
 211 808 185 781 146 781 c 0
 108 781 82 808 82 843 c 0
 82 879 108 906 146 906 c 0xf0
195 689 m 1xe8
 195 0 l 1
 100 0 l 1
 100 689 l 1
 195 689 l 1xe8
EndSplineSet
EndChar
StartChar: dotlessi
Encoding: 305 305 478
Width: 282
Flags: W
HStem: 0 21G<95 187 95 95> 507 20G<95 187 187 187>
VStem: 95 92<0 527 0 527>
LayerCount: 2
Fore
SplineSet
187 527 m 1
 187 0 l 1
 95 0 l 1
 95 527 l 1
 187 527 l 1
EndSplineSet
EndChar
StartChar: IJ
Encoding: 306 306 670
Width: 600
Flags: W
HStem: 0 21G<100 195 100 100> 669 20G<100 195 195 195 410 505 505 505>
VStem: 100 95<0 689 0 689> 410 95<100 689>
LayerCount: 2
Fore
SplineSet
195 689 m 1
 195 0 l 1
 100 0 l 1
 100 689 l 1
 195 689 l 1
505 689 m 1
 505 96 l 2
 505 -48 436 -102 325 -137 c 1
 300 -68 l 1
 391 -32 410 8 410 100 c 2
 410 689 l 1
 505 689 l 1
EndSplineSet
EndChar
StartChar: Jcircumflex
Encoding: 308 308 1191
Width: 305
Flags: W
HStem: 669 20G<115 210 210 210>
VStem: 115 95<100 689>
LayerCount: 2
Fore
SplineSet
36 759 m 1
 -4 804 l 1
 132 914 l 1
 193 914 l 1
 328 804 l 1
 289 759 l 1
 162 840 l 1
 36 759 l 1
210 689 m 1
 210 96 l 2
 210 -48 141 -102 30 -137 c 1
 5 -68 l 1
 96 -32 115 8 115 100 c 2
 115 689 l 1
 210 689 l 1
EndSplineSet
EndChar
StartChar: uni0135
Encoding: 309 309 244
Width: 277
Flags: W
HStem: -212 21G<18 18> 507 20G<93 185 185 185>
VStem: 93 92<26 32 32 527>
LayerCount: 2
Fore
SplineSet
13 634 m 1
 -26 679 l 1
 109 792 l 1
 170 792 l 1
 306 679 l 1
 266 634 l 1
 140 718 l 1
 13 634 l 1
185 527 m 1
 185 32 l 2
 185 -117 130 -162 18 -212 c 1
 -9 -145 l 1
 60 -113 93 -87 93 26 c 2
 93 527 l 1
 185 527 l 1
EndSplineSet
EndChar
StartChar: uni0136
Encoding: 310 310 1193
Width: 589
Flags: W
HStem: 0 21G<100 195 100 100 472 472 472 589> 669 20G<100 195 195 195 462 570 570 570>
VStem: 100 95<0 689 0 689> 260 115<-141.5 -117 -141.5 -117>
LayerCount: 2
Fore
SplineSet
195 689 m 1
 195 0 l 1
 100 0 l 1
 100 689 l 1
 195 689 l 1
570 689 m 1
 309 374 l 1
 589 0 l 1
 472 0 l 1
 200 368 l 1
 462 689 l 1
 570 689 l 1
318 -77 m 0
 350 -77 375 -101 375 -133 c 0
 375 -150 370 -166 349 -210 c 2
 308 -296 l 1
 255 -296 l 1
 284 -180 l 1
 270 -168 260 -152 260 -133 c 0
 260 -101 286 -77 318 -77 c 0
EndSplineSet
EndChar
StartChar: uni0137
Encoding: 311 311 1194
Width: 509
Flags: W
HStem: 0 21G<92 184 92 92 399 399 399 509> 507 20G<384 487 487 487> 719 20G<92 92> 730 20G<184 184>
VStem: 92 92<0 739 739 739> 197 115<-141.5 -117 -141.5 -117>
LayerCount: 2
Fore
SplineSet
184 750 m 1xd8
 184 0 l 1
 92 0 l 1
 92 739 l 1xe8
 184 750 l 1xd8
487 527 m 1
 293 294 l 1
 509 0 l 1
 399 0 l 1
 190 288 l 1
 384 527 l 1
 487 527 l 1
255 -77 m 0xdc
 287 -77 312 -101 312 -133 c 0
 312 -150 307 -166 286 -210 c 2
 245 -296 l 1
 192 -296 l 1
 221 -180 l 1
 207 -168 197 -152 197 -133 c 0
 197 -101 223 -77 255 -77 c 0xdc
EndSplineSet
EndChar
StartChar: kgreenlandic
Encoding: 312 312 1195
Width: 506
Flags: W
HStem: 0 21G<92 184 92 92 396 396 396 506> 507 20G<92 184 184 184 381 484 484 484>
VStem: 92 92<0 527 0 527>
LayerCount: 2
Fore
SplineSet
184 527 m 1
 184 0 l 1
 92 0 l 1
 92 527 l 1
 184 527 l 1
484 527 m 1
 290 284 l 1
 506 0 l 1
 396 0 l 1
 187 278 l 1
 381 527 l 1
 484 527 l 1
EndSplineSet
EndChar
StartChar: uni0139
Encoding: 313 313 248
Width: 498
Flags: W
HStem: 0 83<195 467> 669 20G<100 195 195 195>
VStem: 100 95<83 689 83 689 83 689>
LayerCount: 2
Fore
SplineSet
228 911 m 1
 268 834 l 1
 52 755 l 1
 28 804 l 1
 228 911 l 1
195 689 m 1
 195 83 l 1
 478 83 l 1
 467 0 l 1
 100 0 l 1
 100 689 l 1
 195 689 l 1
EndSplineSet
EndChar
StartChar: lacute
Encoding: 314 314 1197
Width: 294
Flags: W
HStem: -12 76<199 209.5> 719 20G<86 86> 730 20G<178 178>
VStem: 86 92<104 106 106 739 739 739>
LayerCount: 2
Fore
SplineSet
212 961 m 1xb0
 252 884 l 1
 36 805 l 1
 12 854 l 1
 212 961 l 1xb0
196 -12 m 0
 129 -12 86 29 86 104 c 2
 86 739 l 1xd0
 178 750 l 1
 178 106 l 2
 178 78 187 64 211 64 c 0
 224 64 235 66 245 70 c 1
 269 6 l 1
 249 -5 223 -12 196 -12 c 0
EndSplineSet
EndChar
StartChar: uni013B
Encoding: 315 315 1198
Width: 498
Flags: W
HStem: 0 83<195 467> 669 20G<100 195 195 195>
VStem: 100 95<83 689 83 689 83 689> 229 115<-141.5 -117 -141.5 -117>
LayerCount: 2
Fore
SplineSet
195 689 m 1
 195 83 l 1
 478 83 l 1
 467 0 l 1
 100 0 l 1
 100 689 l 1
 195 689 l 1
287 -77 m 0
 319 -77 344 -101 344 -133 c 0
 344 -150 339 -166 318 -210 c 2
 277 -296 l 1
 224 -296 l 1
 253 -180 l 1
 239 -168 229 -152 229 -133 c 0
 229 -101 255 -77 287 -77 c 0
EndSplineSet
EndChar
StartChar: uni013D
Encoding: 317 317 252
Width: 498
Flags: W
HStem: 0 83<195 467> 669 20G<100 195 195 195 353 353>
VStem: 100 95<83 689 83 689 83 689>
LayerCount: 2
Fore
SplineSet
303 505 m 1
 353 689 l 1
 270 699 l 1
 250 513 l 1
 303 505 l 1
195 689 m 1
 195 83 l 1
 478 83 l 1
 467 0 l 1
 100 0 l 1
 100 689 l 1
 195 689 l 1
EndSplineSet
EndChar
StartChar: uni013F
Encoding: 319 319 254
Width: 498
Flags: W
HStem: 0 83<195 467> 325 125<371 409.5> 669 20G<100 195 195 195>
VStem: 100 95<83 689 83 689 83 689> 326 129<369.5 405>
LayerCount: 2
Fore
SplineSet
195 689 m 1
 195 83 l 1
 478 83 l 1
 467 0 l 1
 100 0 l 1
 100 689 l 1
 195 689 l 1
390 450 m 0
 429 450 455 423 455 387 c 0
 455 352 429 325 390 325 c 0
 352 325 326 352 326 387 c 0
 326 423 352 450 390 450 c 0
EndSplineSet
EndChar
StartChar: ldot
Encoding: 320 320 1203
Width: 332
Flags: W
HStem: -12 76<199 209.5> 315 125<278 316.5> 719 20G<86 86> 730 20G<178 178>
VStem: 86 92<104 106 106 739 739 739> 233 129<359.5 395>
LayerCount: 2
Fore
SplineSet
196 -12 m 0xd8
 129 -12 86 29 86 104 c 2
 86 739 l 1xe8
 178 750 l 1
 178 106 l 2
 178 78 187 64 211 64 c 0
 224 64 235 66 245 70 c 1
 269 6 l 1
 249 -5 223 -12 196 -12 c 0xd8
297 440 m 0xdc
 336 440 362 413 362 377 c 0
 362 342 336 315 297 315 c 0
 259 315 233 342 233 377 c 0
 233 413 259 440 297 440 c 0xdc
EndSplineSet
EndChar
StartChar: Lslash
Encoding: 321 321 1204
Width: 514
Flags: W
HStem: 0 83<211 483> 669 20G<116 211 211 211>
VStem: 116 95<83 83 83 257 257 257 399 689>
LayerCount: 2
Fore
SplineSet
211 83 m 1
 494 83 l 1
 483 0 l 1
 116 0 l 1
 116 257 l 1
 60 222 l 1
 22 282 l 1
 116 340 l 1
 116 689 l 1
 211 689 l 1
 211 399 l 1
 371 498 l 1
 409 438 l 1
 211 316 l 1
 211 83 l 1
EndSplineSet
EndChar
StartChar: lslash
Encoding: 322 322 1205
Width: 312
Flags: W
HStem: -12 76<205 215.5> 719 20G<92 92> 730 20G<184 184>
VStem: 92 92<104 106 106 298 298 298 435 739 739 739>
LayerCount: 2
Fore
SplineSet
217 64 m 0xb0
 230 64 241 66 251 70 c 1
 275 6 l 1
 255 -5 229 -12 202 -12 c 0
 135 -12 92 29 92 104 c 2
 92 298 l 1
 45 269 l 1
 10 328 l 1
 92 379 l 1
 92 739 l 1xd0
 184 750 l 1
 184 435 l 1
 279 492 l 1
 312 432 l 1
 184 354 l 1
 184 106 l 2
 184 78 193 64 217 64 c 0xb0
EndSplineSet
EndChar
StartChar: uni0145
Encoding: 325 325 260
Width: 683
Flags: W
HStem: 0 21G<100 189 100 100 456 583 456 456> 0 103<507 507 507 583 456 507> 585 104<176 176> 669 20G<100 224 224 224 494 583 583 583>
VStem: 100 89<0 316 0 689> 288 115<-141.5 -117 -141.5 -117> 494 89<313 689 0 689>
LayerCount: 2
Fore
SplineSet
583 689 m 1x9a
 583 0 l 1
 456 0 l 1
 176 585 l 1xae
 181 528 189 444 189 316 c 2
 189 0 l 1
 100 0 l 1
 100 689 l 1
 224 689 l 1
 507 103 l 1x5a
 505 119 494 229 494 313 c 2
 494 689 l 1
 583 689 l 1x9a
346 -77 m 0
 378 -77 403 -101 403 -133 c 0
 403 -150 398 -166 377 -210 c 2
 336 -296 l 1
 283 -296 l 1
 312 -180 l 1
 298 -168 288 -152 288 -133 c 0
 288 -101 314 -77 346 -77 c 0
EndSplineSet
EndChar
StartChar: uni0146
Encoding: 326 326 1209
Width: 579
Flags: W
HStem: 0 21G<92 184 92 92 401 493 401 401> 467 72<305.5 343.5> 507 20G<92 171 171 171>
VStem: 92 92<0 374 0 527> 235 115<-141.5 -117 -141.5 -117> 401 92<0 365 365 378 0 404.5>
LayerCount: 2
Fore
SplineSet
340 539 m 0xd4
 437 539 493 478 493 378 c 2
 493 0 l 1
 401 0 l 1
 401 365 l 2
 401 444 369 467 318 467 c 0
 259 467 219 430 184 374 c 1xd4
 184 0 l 1
 92 0 l 1
 92 527 l 1
 171 527 l 1xb4
 179 449 l 1
 215 503 271 539 340 539 c 0xd4
293 -77 m 0xdc
 325 -77 350 -101 350 -133 c 0
 350 -150 345 -166 324 -210 c 2
 283 -296 l 1
 230 -296 l 1
 259 -180 l 1
 245 -168 235 -152 235 -133 c 0
 235 -101 261 -77 293 -77 c 0xdc
EndSplineSet
EndChar
StartChar: Ncaron
Encoding: 327 327 1210
Width: 683
Flags: W
HStem: 0 21G<100 189 100 100 456 583 456 456> 0 103<507 507 507 583 456 507> 585 104<176 176> 669 20G<100 224 224 224 494 583 583 583>
VStem: 100 89<0 316 0 689> 494 89<313 689 0 689>
LayerCount: 2
Fore
SplineSet
480 909 m 1x9c
 519 864 l 1
 384 754 l 1
 323 754 l 1
 187 864 l 1
 227 909 l 1
 353 828 l 1
 480 909 l 1x9c
583 689 m 1
 583 0 l 1
 456 0 l 1
 176 585 l 1xac
 181 528 189 444 189 316 c 2
 189 0 l 1
 100 0 l 1
 100 689 l 1
 224 689 l 1
 507 103 l 1x5c
 505 119 494 229 494 313 c 2
 494 689 l 1
 583 689 l 1
EndSplineSet
EndChar
StartChar: uni0148
Encoding: 328 328 263
Width: 579
Flags: W
HStem: 0 21G<92 184 92 92 401 493 401 401> 467 72<305.5 343.5> 507 20G<92 171 171 171> 627 74<295 295 295 326 265 295> 681 20G<295 295> 720 20G<129 129 461 461>
VStem: 92 92<0 374 0 527> 401 92<0 365 365 378 0 404.5>
LayerCount: 2
Fore
SplineSet
326 627 m 1xd7
 265 627 l 1
 129 740 l 1
 169 785 l 1
 295 701 l 1
 422 785 l 1
 461 740 l 1
 326 627 l 1xd7
340 539 m 0
 437 539 493 478 493 378 c 2
 493 0 l 1
 401 0 l 1
 401 365 l 2
 401 444 369 467 318 467 c 0
 259 467 219 430 184 374 c 1xcf
 184 0 l 1
 92 0 l 1
 92 527 l 1
 171 527 l 1xaf
 179 449 l 1
 215 503 271 539 340 539 c 0
EndSplineSet
EndChar
StartChar: uni0149
Encoding: 329 329 264
Width: 688
Flags: W
HStem: 0 21G<201 293 201 201 510 602 510 510> 467 72<414.5 452.5> 507 20G<201 280 280 280> 733 20G<87 119>
VStem: 45 115<688.5 713 688.5 713> 201 92<0 374 0 527> 510 92<0 365 365 378 0 404.5>
LayerCount: 2
Fore
SplineSet
103 753 m 0xde
 135 753 160 729 160 697 c 0
 160 680 155 664 134 620 c 2
 93 534 l 1
 40 534 l 1
 69 650 l 1
 55 662 45 678 45 697 c 0
 45 729 71 753 103 753 c 0xde
449 539 m 0
 546 539 602 478 602 378 c 2
 602 0 l 1
 510 0 l 1
 510 365 l 2
 510 444 478 467 427 467 c 0
 368 467 328 430 293 374 c 1xde
 293 0 l 1
 201 0 l 1
 201 527 l 1
 280 527 l 1xbe
 288 449 l 1
 324 503 380 539 449 539 c 0
EndSplineSet
EndChar
StartChar: uni014A
Encoding: 330 330 265
Width: 683
Flags: W
HStem: -213 76<410.5 446.5 410.5 478> 0 21G<100 189 100 100 456 488 456 456> 585 104<176 176> 669 20G<100 224 224 224 494 583 583 583>
VStem: 100 89<0 316 0 689> 494 89<313 689>
LayerCount: 2
Fore
SplineSet
494 689 m 1xdc
 583 689 l 1
 583 -57 l 2
 583 -161 524 -213 432 -213 c 0
 379 -213 342 -194 317 -175 c 1
 354 -115 l 1
 376 -128 394 -137 427 -137 c 0
 466 -137 488 -114 488 -63 c 2
 488 0 l 1
 456 0 l 1
 176 585 l 1xec
 181 528 189 444 189 316 c 2
 189 0 l 1
 100 0 l 1
 100 689 l 1
 224 689 l 1
 507 103 l 1
 505 119 494 229 494 313 c 2
 494 689 l 1xdc
EndSplineSet
EndChar
StartChar: Omacron
Encoding: 332 332 1215
Width: 692
Flags: W
HStem: -12 78<290 404 290 432.5> 623 78<288.5 405> 793 69<209 482 209 482>
VStem: 55 101<243.5 442.5 243.5 456.5> 209 273<793 862 793 862> 536 101<244 443>
LayerCount: 2
Fore
SplineSet
482 793 m 1
 209 793 l 1
 209 862 l 1
 482 862 l 1
 482 793 l 1
346 701 m 0
 519 701 637 576 637 344 c 0
 637 116 519 -12 346 -12 c 0
 174 -12 55 112 55 343 c 0
 55 570 174 701 346 701 c 0
346 623 m 0
 231 623 156 542 156 343 c 0
 156 144 234 66 346 66 c 0
 462 66 536 144 536 344 c 0
 536 542 464 623 346 623 c 0
EndSplineSet
EndChar
StartChar: omacron
Encoding: 333 333 1216
Width: 584
Flags: W
HStem: -12 74<248 336 248 366.5> 465 74<249 336.5> 667 69<155 428 155 428>
VStem: 57 99<194.5 332 194.5 344.5> 155 273<667 736> 428 99<195 332.5>
LayerCount: 2
Fore
SplineSet
428 667 m 1xe8
 155 667 l 1
 155 736 l 1
 428 736 l 1
 428 667 l 1xe8
293 539 m 0xf4
 443 539 527 431 527 264 c 0
 527 101 441 -12 292 -12 c 0
 142 -12 57 96 57 263 c 0
 57 426 143 539 293 539 c 0xf4
293 465 m 0
 205 465 156 401 156 263 c 0
 156 126 204 62 292 62 c 0
 380 62 428 126 428 264 c 0
 428 401 380 465 293 465 c 0
EndSplineSet
EndChar
StartChar: Obreve
Encoding: 334 334 1217
Width: 692
Flags: W
HStem: -12 78<290 404 290 432.5> 623 78<288.5 405> 758 70<320.5 367.5 320.5 384.5>
VStem: 55 101<243.5 442.5 243.5 456.5> 536 101<244 443>
LayerCount: 2
Fore
SplineSet
344 758 m 0
 264 758 202 807 194 881 c 1
 255 894 l 1
 269 854 297 828 344 828 c 0
 391 828 422 854 436 894 c 1
 497 881 l 1
 489 807 425 758 344 758 c 0
346 701 m 0
 519 701 637 576 637 344 c 0
 637 116 519 -12 346 -12 c 0
 174 -12 55 112 55 343 c 0
 55 570 174 701 346 701 c 0
346 623 m 0
 231 623 156 542 156 343 c 0
 156 144 234 66 346 66 c 0
 462 66 536 144 536 344 c 0
 536 542 464 623 346 623 c 0
EndSplineSet
EndChar
StartChar: obreve
Encoding: 335 335 1218
Width: 584
Flags: W
HStem: -12 74<248 336 248 366.5> 465 74<249 336.5> 643 70<266.5 313.5 266.5 330.5>
VStem: 57 99<194.5 332 194.5 344.5> 428 99<195 332.5>
LayerCount: 2
Fore
SplineSet
290 643 m 0
 210 643 148 692 140 776 c 1
 201 789 l 1
 215 739 243 713 290 713 c 0
 337 713 368 739 382 789 c 1
 443 776 l 1
 435 692 371 643 290 643 c 0
293 539 m 0
 443 539 527 431 527 264 c 0
 527 101 441 -12 292 -12 c 0
 142 -12 57 96 57 263 c 0
 57 426 143 539 293 539 c 0
293 465 m 0
 205 465 156 401 156 263 c 0
 156 126 204 62 292 62 c 0
 380 62 428 126 428 264 c 0
 428 401 380 465 293 465 c 0
EndSplineSet
EndChar
StartChar: Ohungarumlaut
Encoding: 336 336 1219
Width: 692
Flags: W
HStem: -12 78<290 404 290 432.5> 623 78<288.5 405>
VStem: 55 101<243.5 442.5 243.5 456.5> 536 101<244 443>
LayerCount: 2
Fore
SplineSet
337 923 m 1
 401 878 l 1
 278 733 l 1
 233 761 l 1
 337 923 l 1
489 915 m 1
 551 866 l 1
 420 728 l 1
 377 759 l 1
 489 915 l 1
346 701 m 0
 519 701 637 576 637 344 c 0
 637 116 519 -12 346 -12 c 0
 174 -12 55 112 55 343 c 0
 55 570 174 701 346 701 c 0
346 623 m 0
 231 623 156 542 156 343 c 0
 156 144 234 66 346 66 c 0
 462 66 536 144 536 344 c 0
 536 542 464 623 346 623 c 0
EndSplineSet
EndChar
StartChar: uni0151
Encoding: 337 337 272
Width: 584
Flags: W
HStem: -12 74<248 336 248 366.5> 465 74<249 336.5> 720 20G<516 516> 732 20G<366 366>
VStem: 57 99<194.5 332 194.5 344.5> 428 99<195 332.5>
LayerCount: 2
Fore
SplineSet
302 797 m 1xdc
 366 752 l 1
 243 597 l 1
 198 625 l 1
 302 797 l 1xdc
454 789 m 1
 516 740 l 1xec
 385 592 l 1
 342 623 l 1
 454 789 l 1
293 539 m 0
 443 539 527 431 527 264 c 0
 527 101 441 -12 292 -12 c 0
 142 -12 57 96 57 263 c 0
 57 426 143 539 293 539 c 0
293 465 m 0
 205 465 156 401 156 263 c 0
 156 126 204 62 292 62 c 0
 380 62 428 126 428 264 c 0
 428 401 380 465 293 465 c 0
EndSplineSet
EndChar
StartChar: uni0152
Encoding: 338 338 273
Width: 897
Flags: W
HStem: -12 78<285 345.5> 0 66<285 843 285 406> 0 76<519 843 519 843> 312 76<616 789 616 616> 613 76<526 824 526 526> 623 66<283.5 835> 623 78<283.5 346.5 253.5 390>
VStem: 55 101<243.5 442.5 243.5 456.5> 516 99<388 388 388 443>
LayerCount: 2
Fore
SplineSet
843 76 m 1x3980
 843 0 l 1
 406 0 l 1x3980
 383 -8 358 -12 333 -12 c 0
 174 -12 55 112 55 343 c 0
 55 570 174 701 333 701 c 0x9380
 360 701 385 697 410 689 c 1
 835 689 l 1
 824 613 l 1
 526 613 l 1
 577 562 608 484 615 388 c 1
 789 388 l 1
 789 312 l 1
 616 312 l 1
 610 214 577 131 519 76 c 1
 843 76 l 1x3980
156 343 m 0x5580
 156 144 234 66 336 66 c 0
 442 66 516 144 516 344 c 0
 516 542 444 623 336 623 c 0
 231 623 156 542 156 343 c 0x5580
EndSplineSet
EndChar
StartChar: uni0156
Encoding: 342 342 1225
Width: 605
Flags: W
HStem: 0 21G<100 195 100 100 467 580 467 467> 292 73<195 291 291 302 195 291> 615 74<195 280 195 195>
VStem: 100 95<0 292 365 615> 254 115<-141.5 -117 -141.5 -117> 442 101<447.5 537>
LayerCount: 2
Fore
SplineSet
394 309 m 1
 580 0 l 1
 467 0 l 1
 302 292 l 1
 195 292 l 1
 195 0 l 1
 100 0 l 1
 100 689 l 1
 281 689 l 2
 453 689 543 623 543 494 c 0
 543 397 493 339 394 309 c 1
195 365 m 1
 291 365 l 2
 387 365 442 401 442 494 c 0
 442 580 393 615 280 615 c 2
 195 615 l 1
 195 365 l 1
312 -77 m 0
 344 -77 369 -101 369 -133 c 0
 369 -150 364 -166 343 -210 c 2
 302 -296 l 1
 249 -296 l 1
 278 -180 l 1
 264 -168 254 -152 254 -133 c 0
 254 -101 280 -77 312 -77 c 0
EndSplineSet
EndChar
StartChar: uni0159
Encoding: 345 345 280
Width: 383
Flags: W
HStem: 0 21G<92 184 92 92> 449 90<289 319.5> 507 20G<92 171 171 171> 513 20G<373 373> 627 74<235 235 235 266 205 235> 681 20G<235 235> 720 20G<69 69 401 401>
VStem: 92 92<0 301 0 527>
LayerCount: 2
Fore
SplineSet
266 627 m 1xcb
 205 627 l 1
 69 740 l 1
 109 785 l 1
 235 701 l 1
 362 785 l 1
 401 740 l 1
 266 627 l 1xcb
180 420 m 1
 208 499 257 539 321 539 c 0xc7
 338 539 357 537 373 533 c 1x97
 356 443 l 1
 340 447 329 449 310 449 c 0xc7
 244 449 206 402 184 301 c 1
 184 0 l 1
 92 0 l 1
 92 527 l 1
 171 527 l 1xa7
 180 420 l 1
EndSplineSet
EndChar
StartChar: uni015B
Encoding: 347 347 282
Width: 467
Flags: W
HStem: -12 74<193.5 256.5 193.5 277.5> 466 73<211 265.5>
VStem: 48 96<375.5 418 375.5 436> 335 97<117 168>
LayerCount: 2
Fore
SplineSet
324 801 m 1
 365 724 l 1
 153 638 l 1
 125 687 l 1
 324 801 l 1
238 539 m 0
 312 539 367 517 417 479 c 1
 378 421 l 1
 331 451 290 466 241 466 c 0
 181 466 144 439 144 397 c 0
 144 354 172 334 257 312 c 0
 368 284 432 240 432 148 c 0
 432 38 331 -12 224 -12 c 0
 135 -12 71 17 25 57 c 1
 74 113 l 1
 116 81 165 62 222 62 c 0
 291 62 335 92 335 142 c 0
 335 194 309 214 207 241 c 0
 93 271 48 320 48 394 c 0
 48 478 129 539 238 539 c 0
EndSplineSet
EndChar
StartChar: Scedilla
Encoding: 350 350 1233
Width: 545
Flags: W
HStem: -241 60<250 277 250 300> -99 43<224 297> -11 77<235 235> 623 78<239.5 302.5>
VStem: 53 97<496 558 496 574> 229.5 67.5 313 77<-155.5 -127.5> 406 99<147.5 222.5>
LayerCount: 2
Fore
SplineSet
505 192 m 0
 505 82 429 2 297 -10 c 1
 297 -56 l 1xfd
 365 -62 390 -100 390 -141 c 0
 390 -207 334 -241 266 -241 c 0
 228 -241 195 -232 175 -217 c 1
 200 -165 l 1
 219 -175 237 -181 263 -181 c 0
 291 -181 313 -170 313 -141 c 0xff
 313 -114 288 -99 224 -99 c 1
 235 -11 l 1
 147 -6 77 26 25 77 c 1
 77 135 l 1
 129 93 183 66 258 66 c 0
 339 66 406 106 406 189 c 0
 406 256 374 286 257 322 c 0
 123 363 53 414 53 521 c 0
 53 627 143 701 270 701 c 0
 365 701 425 673 483 621 c 1
 431 563 l 1
 379 605 331 623 274 623 c 0
 205 623 150 591 150 525 c 0
 150 467 177 439 301 401 c 0
 411 367 505 324 505 192 c 0
EndSplineSet
EndChar
StartChar: uni015F
Encoding: 351 351 286
Width: 467
Flags: W
HStem: -241 60<212 239 212 262> -99 43<186 259> -11 73<197 197> 466 73<211 265.5>
VStem: 48 96<375.5 418 375.5 436> 191.5 67.5 275 77<-155.5 -127.5> 335 97<117 168>
LayerCount: 2
Fore
SplineSet
432 148 m 0xfd
 432 50 352 0 259 -10 c 1
 259 -56 l 1xfd
 327 -62 352 -100 352 -141 c 0
 352 -207 296 -241 228 -241 c 0
 190 -241 157 -232 137 -217 c 1
 162 -165 l 1
 181 -175 199 -181 225 -181 c 0
 253 -181 275 -170 275 -141 c 0xfe
 275 -114 250 -99 186 -99 c 1
 197 -11 l 1
 122 -6 66 21 25 57 c 1
 74 113 l 1
 116 81 165 62 222 62 c 0
 291 62 335 92 335 142 c 0
 335 194 309 214 207 241 c 0
 93 271 48 320 48 394 c 0
 48 478 129 539 238 539 c 0
 312 539 367 517 417 479 c 1
 378 421 l 1
 331 451 290 466 241 466 c 0
 181 466 144 439 144 397 c 0
 144 354 172 334 257 312 c 0
 368 284 432 240 432 148 c 0xfd
EndSplineSet
EndChar
StartChar: uni0162
Encoding: 354 354 1237
Width: 517
Flags: W
HStem: -241 60<259 286 259 309> -99 43<236 306> 0 21G<211 248 211 211> 608 81<15 211 15 507 306 306 306 497>
VStem: 211 95<0 608> 325 77<-155.5 -127.5>
LayerCount: 2
Fore
SplineSet
306 -56 m 1
 374 -62 402 -100 402 -141 c 0
 402 -207 344 -241 274 -241 c 0
 238 -241 207 -232 187 -217 c 1
 212 -165 l 1
 231 -175 247 -181 271 -181 c 0
 301 -181 325 -170 325 -141 c 0xfc
 325 -114 300 -99 236 -99 c 1
 248 0 l 1
 211 0 l 1
 211 608 l 1
 15 608 l 1
 15 689 l 1
 507 689 l 1
 497 608 l 1
 306 608 l 1
 306 -56 l 1
EndSplineSet
EndChar
StartChar: uni0163
Encoding: 355 355 1238
Width: 361
Flags: W
HStem: -241 60<211 238 211 261> -99 43<185 258> -12 21G<258 258> -12 76<258 258> -6 21G<196 196> 456 71<9 101 9 101 193 308>
VStem: 101 92<138 142 142 456 527 646 646 646> 190.5 67.5 274 77<-155.5 -127.5>
LayerCount: 2
Fore
SplineSet
258 -56 m 1xe5
 326 -62 351 -100 351 -141 c 0
 351 -207 295 -241 227 -241 c 0
 189 -241 156 -232 136 -217 c 1
 161 -165 l 1
 180 -175 198 -181 224 -181 c 0
 252 -181 274 -170 274 -141 c 0xce80
 274 -114 249 -99 185 -99 c 1xcd
 196 -6 l 1x8e
 136 9 101 59 101 138 c 2
 101 456 l 1
 9 456 l 1
 9 527 l 1
 101 527 l 1
 101 646 l 1
 193 657 l 1
 193 527 l 1
 318 527 l 1
 308 456 l 1
 193 456 l 1
 193 142 l 2
 193 89 210 64 256 64 c 0
 279 64 300 71 326 85 c 1x96
 361 24 l 1
 330 3 297 -9 258 -12 c 1
 258 -56 l 1xe5
EndSplineSet
EndChar
StartChar: Tbar
Encoding: 358 358 1241
Width: 517
Flags: W
HStem: -2 21G<211 306 211 211> 317 70<88 211 88 211 306 431> 606 81<15 211 15 507 306 497 306 306>
VStem: 211 95<-2 317 -2 317 387 606>
LayerCount: 2
Fore
SplineSet
497 606 m 1
 306 606 l 1
 306 387 l 1
 431 387 l 1
 431 317 l 1
 306 317 l 1
 306 -2 l 1
 211 -2 l 1
 211 317 l 1
 88 317 l 1
 88 387 l 1
 211 387 l 1
 211 606 l 1
 15 606 l 1
 15 687 l 1
 507 687 l 1
 497 606 l 1
EndSplineSet
EndChar
StartChar: utilde
Encoding: 361 361 1244
Width: 575
Flags: W
HStem: -12 72<230.5 270.5> 0 21G<404 483 404 404> 507 20G<86 178 178 178 391 483 483 483> 656 70<324.5 353 324.5 365.5> 704 70<215.5 245> 722 20G<452 452>
VStem: 86 92<149 159 159 527> 391 92<151 527 0 527>
LayerCount: 2
Fore
SplineSet
343 656 m 0xb3
 290 656 263 704 227 704 c 0
 204 704 190 688 174 658 c 1
 118 686 l 1
 141 735 177 774 227 774 c 0xab
 283 774 306 726 343 726 c 0
 363 726 378 740 396 770 c 1xb3
 452 742 l 1xa7
 426 685 388 656 343 656 c 0xb3
483 527 m 1xa7
 483 0 l 1
 404 0 l 1x67
 397 82 l 1
 357 18 308 -12 233 -12 c 0
 141 -12 86 46 86 149 c 2
 86 527 l 1
 178 527 l 1
 178 159 l 2
 178 87 202 60 259 60 c 0
 316 60 359 98 391 151 c 1
 391 527 l 1
 483 527 l 1xa7
EndSplineSet
EndChar
StartChar: umacron
Encoding: 363 363 1246
Width: 575
Flags: W
HStem: -12 72<230.5 270.5> 0 21G<404 483 404 404> 507 20G<86 178 178 178 391 483 483 483> 667 69<148 421 148 421>
VStem: 86 92<149 159 159 527> 148 273<667 736 667 736> 391 92<151 527 0 527>
LayerCount: 2
Fore
SplineSet
421 667 m 1xb4
 148 667 l 1
 148 736 l 1
 421 736 l 1
 421 667 l 1xb4
483 527 m 1xba
 483 0 l 1
 404 0 l 1x7a
 397 82 l 1
 357 18 308 -12 233 -12 c 0
 141 -12 86 46 86 149 c 2
 86 527 l 1
 178 527 l 1
 178 159 l 2
 178 87 202 60 259 60 c 0
 316 60 359 98 391 151 c 1
 391 527 l 1
 483 527 l 1xba
EndSplineSet
EndChar
StartChar: Ubreve
Encoding: 364 364 1247
Width: 662
Flags: W
HStem: -12 80<281 379.5 281 407.5> 669 20G<90 185 185 185 476 572 572 572> 758 70<305.5 352.5 305.5 369.5>
VStem: 90 95<221 228 228 689> 476 96<228 689>
LayerCount: 2
Fore
SplineSet
329 758 m 0
 249 758 187 807 179 881 c 1
 240 894 l 1
 254 854 282 828 329 828 c 0
 376 828 407 854 421 894 c 1
 482 881 l 1
 474 807 410 758 329 758 c 0
572 689 m 1
 572 221 l 2
 572 84 485 -12 330 -12 c 0
 173 -12 90 84 90 221 c 2
 90 689 l 1
 185 689 l 1
 185 228 l 2
 185 121 232 68 330 68 c 0
 429 68 476 121 476 228 c 2
 476 689 l 1
 572 689 l 1
EndSplineSet
EndChar
StartChar: ubreve
Encoding: 365 365 1248
Width: 575
Flags: W
HStem: -12 72<230.5 270.5> 0 21G<404 483 404 404> 507 20G<86 178 178 178 391 483 483 483> 643 70<259.5 306.5 259.5 323.5>
VStem: 86 92<149 159 159 527> 391 92<151 527 0 527>
LayerCount: 2
Fore
SplineSet
283 643 m 0xbc
 203 643 141 692 133 776 c 1
 194 789 l 1
 208 739 236 713 283 713 c 0
 330 713 361 739 375 789 c 1
 436 776 l 1
 428 692 364 643 283 643 c 0xbc
483 527 m 1
 483 0 l 1
 404 0 l 1x7c
 397 82 l 1
 357 18 308 -12 233 -12 c 0
 141 -12 86 46 86 149 c 2
 86 527 l 1
 178 527 l 1
 178 159 l 2
 178 87 202 60 259 60 c 0
 316 60 359 98 391 151 c 1
 391 527 l 1
 483 527 l 1
EndSplineSet
EndChar
StartChar: Uring
Encoding: 366 366 1249
Width: 662
Flags: W
HStem: -12 80<281 379.5 281 407.5> 669 20G<90 185 185 185 476 572 572 572> 750 50<314.5 347 314.5 364.5> 912 50<314.5 347.5>
VStem: 90 95<221 228 228 689> 217 61<838.5 873.5 838.5 885.5> 384 61<838.5 873.5> 476 96<228 689>
LayerCount: 2
Fore
SplineSet
331 962 m 0
 398 962 445 915 445 856 c 0
 445 797 398 750 331 750 c 0
 264 750 217 797 217 856 c 0
 217 915 264 962 331 962 c 0
331 912 m 0
 298 912 278 891 278 856 c 0
 278 821 298 800 331 800 c 0
 363 800 384 821 384 856 c 0
 384 891 364 912 331 912 c 0
572 689 m 1
 572 221 l 2
 572 84 485 -12 330 -12 c 0
 173 -12 90 84 90 221 c 2
 90 689 l 1
 185 689 l 1
 185 228 l 2
 185 121 232 68 330 68 c 0
 429 68 476 121 476 228 c 2
 476 689 l 1
 572 689 l 1
EndSplineSet
EndChar
StartChar: uni016F
Encoding: 367 367 302
Width: 575
Flags: W
HStem: -12 72<230.5 270.5> 0 21G<404 483 404 404> 507 20G<86 178 178 178 391 483 483 483> 624 50<268.5 301 268.5 318.5> 786 50<268.5 301.5>
VStem: 86 92<149 159 159 527> 171 61<712.5 747.5 712.5 759.5> 338 61<712.5 747.5> 391 92<151 527 0 527>
LayerCount: 2
Fore
SplineSet
285 836 m 0xbb
 352 836 399 789 399 730 c 0
 399 671 352 624 285 624 c 0
 218 624 171 671 171 730 c 0
 171 789 218 836 285 836 c 0xbb
285 786 m 0
 252 786 232 765 232 730 c 0
 232 695 252 674 285 674 c 0
 317 674 338 695 338 730 c 0
 338 765 318 786 285 786 c 0
483 527 m 1xbc80
 483 0 l 1
 404 0 l 1x7c80
 397 82 l 1
 357 18 308 -12 233 -12 c 0
 141 -12 86 46 86 149 c 2
 86 527 l 1
 178 527 l 1
 178 159 l 2
 178 87 202 60 259 60 c 0
 316 60 359 98 391 151 c 1
 391 527 l 1
 483 527 l 1xbc80
EndSplineSet
EndChar
StartChar: Uhungarumlaut
Encoding: 368 368 1251
Width: 662
Flags: W
HStem: -12 80<281 379.5 281 407.5> 669 20G<90 185 185 185 476 572 572 572>
VStem: 90 95<221 228 228 689> 476 96<228 689>
LayerCount: 2
Fore
SplineSet
322 923 m 1
 386 878 l 1
 263 733 l 1
 218 761 l 1
 322 923 l 1
474 915 m 1
 536 866 l 1
 405 728 l 1
 362 759 l 1
 474 915 l 1
572 689 m 1
 572 221 l 2
 572 84 485 -12 330 -12 c 0
 173 -12 90 84 90 221 c 2
 90 689 l 1
 185 689 l 1
 185 228 l 2
 185 121 232 68 330 68 c 0
 429 68 476 121 476 228 c 2
 476 689 l 1
 572 689 l 1
EndSplineSet
EndChar
StartChar: Uogonek
Encoding: 370 370 1253
Width: 662
Flags: W
HStem: -232 70<330.5 353> -11 79 669 20G<90 185 185 185 476 572 572 572>
VStem: 90 95<221 228 228 689> 215 80<-129 -105.5> 476 96<228 689>
LayerCount: 2
Fore
SplineSet
476 689 m 1
 572 689 l 1
 572 221 l 2
 572 113 518 30 418 0 c 1
 316 -44 295 -78 295 -114 c 0
 295 -144 310 -162 351 -162 c 0
 372 -162 388 -160 412 -155 c 1
 403 -225 l 1
 383 -229 366 -232 340 -232 c 0
 263 -232 215 -189 215 -131 c 0xfc
 215 -80 248 -39 310 -11 c 1
 166 -4 90 90 90 221 c 2
 90 689 l 1
 185 689 l 1
 185 228 l 2
 185 121 232 68 330 68 c 0
 429 68 476 121 476 228 c 2
 476 689 l 1
EndSplineSet
EndChar
StartChar: uogonek
Encoding: 371 371 1254
Width: 575
Flags: W
HStem: -232 70<395.5 418> -12 21G<187 270.5> -12 72<230.5 270.5> 0 21G<483 483> 507 20G<86 178 178 178 391 483 483 483>
VStem: 86 92<149 159 159 527> 280 80<-129 -101> 391 92<151 527>
LayerCount: 2
Fore
SplineSet
483 0 m 1x9f
 381 -44 360 -78 360 -114 c 0
 360 -144 375 -162 416 -162 c 0
 437 -162 453 -160 477 -155 c 1
 468 -225 l 1
 448 -229 431 -232 405 -232 c 0
 328 -232 280 -189 280 -131 c 0
 280 -71 319 -25 403 10 c 1xcf
 397 82 l 1
 357 18 308 -12 233 -12 c 0
 141 -12 86 46 86 149 c 2
 86 527 l 1
 178 527 l 1
 178 159 l 2
 178 87 202 60 259 60 c 0
 316 60 359 98 391 151 c 1xad
 391 527 l 1
 483 527 l 1
 483 0 l 1x9f
EndSplineSet
EndChar
StartChar: uni0174
Encoding: 372 372 307
Width: 826
Flags: W
HStem: 0 83<229 229 229 284 165 229> 577 112<412 412> 669 20G<25 118 118 118 362 463 463 463 714 801 801 801>
VStem: 25 776<689 689>
LayerCount: 2
Fore
SplineSet
286 759 m 1xb0
 246 804 l 1
 382 914 l 1
 443 914 l 1
 578 804 l 1
 539 759 l 1
 412 840 l 1
 286 759 l 1xb0
801 689 m 1
 661 0 l 1
 539 0 l 1
 412 577 l 1xd0
 284 0 l 1
 165 0 l 1
 25 689 l 1
 118 689 l 1
 229 83 l 1
 362 689 l 1
 463 689 l 1
 599 83 l 1
 714 689 l 1
 801 689 l 1
EndSplineSet
EndChar
StartChar: uni0175
Encoding: 373 373 308
Width: 717
Flags: W
HStem: 0 64<207 207 207 265> 444 83<360 360> 507 20G<20 112 112 112 311 414 414 414 609 697 697 697>
VStem: 20 677<527 527>
LayerCount: 2
Fore
SplineSet
232 634 m 1xb0
 193 679 l 1
 328 792 l 1
 389 792 l 1
 525 679 l 1
 485 634 l 1
 359 718 l 1
 232 634 l 1xb0
697 527 m 1
 577 0 l 1
 452 0 l 1
 360 444 l 1xd0
 265 0 l 1
 143 0 l 1
 20 527 l 1
 112 527 l 1
 207 64 l 1
 311 527 l 1
 414 527 l 1
 513 64 l 1
 609 527 l 1
 697 527 l 1
EndSplineSet
EndChar
StartChar: uni0176
Encoding: 374 374 309
Width: 550
Flags: W
HStem: 0 21G<227 323 227 227> 669 20G<5 110 110 110 446 545 545 545>
VStem: 227 96<0 264 264 264>
LayerCount: 2
Fore
SplineSet
148 759 m 1
 108 804 l 1
 244 914 l 1
 305 914 l 1
 440 804 l 1
 401 759 l 1
 274 840 l 1
 148 759 l 1
545 689 m 1
 323 265 l 1
 323 0 l 1
 227 0 l 1
 227 264 l 1
 5 689 l 1
 110 689 l 1
 278 348 l 1
 446 689 l 1
 545 689 l 1
EndSplineSet
EndChar
StartChar: ycircumflex
Encoding: 375 375 1258
Width: 492
Flags: W
HStem: -213 21G<61 61> 0 21G<187 218 187 187> 507 20G<10 108 108 108 387 482 482 482>
VStem: 10 472<527 527>
LayerCount: 2
Fore
SplineSet
119 634 m 1
 80 679 l 1
 215 792 l 1
 276 792 l 1
 412 679 l 1
 372 634 l 1
 246 718 l 1
 119 634 l 1
482 527 m 1
 306 -3 l 2
 269 -115 207 -197 61 -213 c 1
 51 -141 l 1
 158 -123 188 -82 218 0 c 1
 187 0 l 1
 10 527 l 1
 108 527 l 1
 249 67 l 1
 387 527 l 1
 482 527 l 1
EndSplineSet
EndChar
StartChar: uni0178
Encoding: 376 376 311
Width: 550
Flags: W
HStem: 0 21G<227 323 227 227> 669 20G<5 110 110 110 446 545 545 545> 780 114<153.5 186 363 395.5>
VStem: 112 115<821 853> 227 96<0 264 264 264> 322 115<821 853>
LayerCount: 2
Fore
SplineSet
170 894 m 0xf4
 202 894 227 869 227 837 c 0
 227 805 202 780 170 780 c 0
 137 780 112 805 112 837 c 0
 112 869 137 894 170 894 c 0xf4
379 894 m 0
 412 894 437 869 437 837 c 0
 437 805 412 780 379 780 c 0
 347 780 322 805 322 837 c 0
 322 869 347 894 379 894 c 0
545 689 m 1
 323 265 l 1
 323 0 l 1
 227 0 l 1
 227 264 l 1xe8
 5 689 l 1
 110 689 l 1
 278 348 l 1
 446 689 l 1
 545 689 l 1
EndSplineSet
EndChar
StartChar: zacute
Encoding: 378 378 1261
Width: 432
Flags: W
HStem: 0 77<129 396> 449 78<48 299 48 404>
VStem: 25 382<0 77 69 77>
LayerCount: 2
Fore
SplineSet
298 801 m 1
 339 724 l 1
 127 638 l 1
 99 687 l 1
 298 801 l 1
404 527 m 1
 404 457 l 1
 129 77 l 1
 407 77 l 1
 396 0 l 1
 25 0 l 1
 25 69 l 1
 299 449 l 1
 48 449 l 1
 48 527 l 1
 404 527 l 1
EndSplineSet
EndChar
StartChar: uni017C
Encoding: 380 380 315
Width: 432
Flags: W
HStem: 0 77<129 396> 449 78<48 299 48 404> 655 125<199 237.5>
VStem: 154 129<699.5 735>
LayerCount: 2
Fore
SplineSet
218 780 m 0
 257 780 283 753 283 717 c 0
 283 682 257 655 218 655 c 0
 180 655 154 682 154 717 c 0
 154 753 180 780 218 780 c 0
404 527 m 1
 404 457 l 1
 129 77 l 1
 407 77 l 1
 396 0 l 1
 25 0 l 1
 25 69 l 1
 299 449 l 1
 48 449 l 1
 48 527 l 1
 404 527 l 1
EndSplineSet
EndChar
StartChar: Zcaron
Encoding: 381 381 1264
Width: 522
Flags: W
HStem: 0 81<136 466> 609 80<66 374 66 477>
VStem: 30 447<0 81 76 81>
LayerCount: 2
Fore
SplineSet
399 909 m 1
 438 864 l 1
 303 754 l 1
 242 754 l 1
 106 864 l 1
 146 909 l 1
 272 828 l 1
 399 909 l 1
477 689 m 1
 477 612 l 1
 136 81 l 1
 477 81 l 1
 466 0 l 1
 30 0 l 1
 30 76 l 1
 374 609 l 1
 66 609 l 1
 66 689 l 1
 477 689 l 1
EndSplineSet
EndChar
StartChar: zcaron
Encoding: 382 382 1265
Width: 432
Flags: W
HStem: 0 77<129 396> 449 78<48 299 48 404> 627 74<219 219 219 250 189 219> 681 20G<219 219> 720 20G<53 53 385 385>
VStem: 25 382<0 77 69 77>
LayerCount: 2
Fore
SplineSet
346 785 m 1xdc
 385 740 l 1
 250 627 l 1
 189 627 l 1xec
 53 740 l 1
 93 785 l 1
 219 701 l 1
 346 785 l 1xdc
404 527 m 1
 404 457 l 1
 129 77 l 1
 407 77 l 1
 396 0 l 1
 25 0 l 1
 25 69 l 1
 299 449 l 1
 48 449 l 1
 48 527 l 1
 404 527 l 1
EndSplineSet
EndChar
StartChar: longs
Encoding: 383 383 1266
Width: 335
Flags: W
HStem: 0 21G<104 196 104 104> 456 71<10 104 10 104> 676 74<245 287.5>
VStem: 104 92<0 456 456 456 527 599 599 600 0 643>
LayerCount: 2
Fore
SplineSet
269 750 m 0
 319 750 353 741 395 723 c 1
 366 656 l 1
 332 671 301 676 274 676 c 0
 216 676 196 651 196 600 c 2
 196 0 l 1
 104 0 l 1
 104 456 l 1
 10 456 l 1
 10 527 l 1
 104 527 l 1
 104 599 l 2
 104 687 162 750 269 750 c 0
EndSplineSet
EndChar
StartChar: uni0181
Encoding: 385 385 320
Width: 691
Flags: W
HStem: 0 76<278 373 278 373> 324 73<278 382 382 391 278 382> 614 75<132.5 346 156 183 278 278 278 346 346 356>
VStem: 10 87<551.5 580 551.5 602> 183 95<76 324 397 614> 519 97<472.5 550.5> 546 100<146 244.5>
LayerCount: 2
Fore
SplineSet
487 364 m 1xfa
 567 350 646 313 646 196 c 0xfa
 646 50 533 0 373 0 c 2
 183 0 l 1
 183 614 l 1
 151 614 l 2
 114 614 97 596 97 564 c 0
 97 539 104 518 115 491 c 1
 51 459 l 1
 31 488 10 522 10 567 c 0
 10 637 59 689 156 689 c 2
 346 689 l 2
 516 689 616 635 616 515 c 0xfc
 616 430 554 378 487 364 c 1xfa
356 614 m 2
 278 614 l 1
 278 397 l 1
 382 397 l 2
 459 397 519 435 519 508 c 0xfc
 519 593 458 614 356 614 c 2
373 76 m 2xfa
 473 76 546 96 546 196 c 0
 546 293 474 324 391 324 c 2
 278 324 l 1
 278 76 l 1
 373 76 l 2xfa
EndSplineSet
EndChar
StartChar: uni0184
Encoding: 388 388 1271
Width: 573
Flags: W
HStem: 0 76<194 281> 362 74<194 285 285 286 194 285> 546 20G<30 30> 669 20G<109 194 194 194>
VStem: 99 95<76 362 436 524 524 524> 447 101<162 273.5>
LayerCount: 2
Fore
SplineSet
285 436 m 2
 446 436 548 368 548 223 c 0
 548 61 437 0 281 0 c 2
 99 0 l 1
 99 524 l 1
 30 566 l 1
 59 597 88 642 109 689 c 1
 194 689 l 1
 194 436 l 1
 285 436 l 2
289 76 m 2
 380 76 447 103 447 221 c 0
 447 326 387 362 286 362 c 2
 194 362 l 1
 194 76 l 1
 289 76 l 2
EndSplineSet
EndChar
StartChar: uni0185
Encoding: 389 389 1272
Width: 520
Flags: W
HStem: 0 72<191 270 270 278> 287 70<191 260 191 261> 507 20G<109 191 191 191>
VStem: 99 92<72 287 357 372 372 372> 387 98<139 215>
LayerCount: 2
Fore
SplineSet
261 357 m 2
 426 357 485 287 485 180 c 0
 485 54 385 0 278 0 c 2
 99 0 l 1
 99 372 l 1
 30 414 l 1
 60 445 87 483 109 527 c 1
 191 527 l 1
 191 357 l 1
 261 357 l 2
270 72 m 2
 339 72 387 98 387 180 c 0
 387 250 357 287 260 287 c 2
 191 287 l 1
 191 72 l 1
 270 72 l 2
EndSplineSet
EndChar
StartChar: uni0186
Encoding: 390 390 325
Width: 560
Flags: W
HStem: -12 80<181.5 267.5 181.5 300.5> 623 78<203.5 280>
VStem: 404 101<245.5 449>
LayerCount: 2
Fore
SplineSet
239 701 m 0
 402 701 505 578 505 346 c 0
 505 113 384 -12 217 -12 c 0
 124 -12 62 26 20 65 c 1
 69 124 l 1
 108 95 149 68 214 68 c 0
 321 68 404 146 404 345 c 0
 404 553 327 623 233 623 c 0
 174 623 123 605 76 573 c 1
 28 633 l 1
 87 677 151 701 239 701 c 0
EndSplineSet
EndChar
StartChar: uni0188
Encoding: 392 392 327
Width: 478
Flags: W
HStem: -12 78<249.5 313 249.5 317.5> 463 76<249.5 300.5 215.5 318> 507 20G<356 356> 676 74<492.5 528.5>
VStem: 57 99<192 329.5 192 343> 356 92<527 594 594 602>
LayerCount: 2
Fore
SplineSet
507 750 m 0xdc
 560 750 597 731 622 712 c 1
 586 653 l 1
 563 667 545 676 512 676 c 0
 473 676 448 655 448 602 c 2
 448 482 l 1
 410 432 l 1
 378 450 345 463 291 463 c 0
 208 463 156 398 156 261 c 0
 156 123 208 66 291 66 c 0
 335 66 366 80 406 106 c 1
 448 46 l 1
 401 8 348 -12 287 -12 c 0
 145 -12 57 89 57 259 c 0
 57 427 144 539 287 539 c 0xdc
 314 539 336 535 356 527 c 1xbc
 356 594 l 2
 356 698 415 750 507 750 c 0xdc
EndSplineSet
EndChar
StartChar: uni018A
Encoding: 394 394 329
Width: 727
Flags: W
HStem: 0 75<278 348> 613 76<278 327 327 348 278 278>
VStem: 10 87<551.5 580 551.5 602> 183 95<75 613 75 614 75 614> 571 101<234.5 464.5>
LayerCount: 2
Fore
SplineSet
327 689 m 2
 503 689 672 634 672 348 c 0
 672 67 497 0 348 0 c 2
 183 0 l 1
 183 614 l 1
 151 614 l 2
 114 614 97 596 97 564 c 0
 97 539 104 518 115 491 c 1
 51 459 l 1
 31 488 10 522 10 567 c 0
 10 637 59 689 156 689 c 2
 327 689 l 2
355 75 m 2
 463 75 571 121 571 348 c 0
 571 581 458 613 348 613 c 2
 278 613 l 1
 278 75 l 1
 355 75 l 2
EndSplineSet
EndChar
StartChar: uni018D
Encoding: 397 397 332
Width: 579
Flags: W
HStem: -216 72<257.5 313.5 257.5 348.5> 465 74<247 335>
VStem: 57 99<234 343 234 352> 372 95<-93 -51.5> 423 99<238.5 344>
LayerCount: 2
Fore
SplineSet
371 63 m 1xf0
 445 26 467 -18 467 -74 c 0
 467 -149 406 -216 291 -216 c 0
 213 -216 161 -195 113 -162 c 1
 160 -105 l 1
 201 -133 235 -144 280 -144 c 0
 347 -144 372 -112 372 -74 c 0xf0
 372 -29 350 -9 251 33 c 0
 124 87 57 152 57 284 c 0
 57 420 142 539 290 539 c 0
 429 539 522 445 522 287 c 0xe8
 522 178 459 107 371 63 c 1xf0
156 284 m 0xe8
 156 184 194 136 314 88 c 1
 383 131 423 190 423 287 c 0
 423 401 380 465 290 465 c 0
 204 465 156 402 156 284 c 0xe8
EndSplineSet
EndChar
StartChar: uni0191
Encoding: 401 401 336
Width: 491
Flags: W
HStem: -213 76<22.5 58.5 22.5 90> 303 75<195 420 195 420> 613 76<195 455 195 195>
VStem: 100 95<-63 -57 -57 303 378 613>
LayerCount: 2
Fore
SplineSet
455 613 m 1
 195 613 l 1
 195 378 l 1
 420 378 l 1
 420 303 l 1
 195 303 l 1
 195 -57 l 2
 195 -161 136 -213 44 -213 c 0
 -9 -213 -46 -194 -71 -175 c 1
 -34 -115 l 1
 -12 -128 6 -137 39 -137 c 0
 78 -137 100 -114 100 -63 c 2
 100 689 l 1
 466 689 l 1
 455 613 l 1
EndSplineSet
EndChar
StartChar: uni0193
Encoding: 403 403 1286
Width: 589
Flags: W
HStem: -12 78<283.5 367 283.5 385.5> 305 77<353 475 353 353> 623 78<304.5 368.5 270 384> 758 74<605.5 641.5>
VStem: 55 101<246 446.5 246 461> 469 92<674 676 676 684 625 726> 475 94<98 305 305 305>
LayerCount: 2
Fore
SplineSet
620 832 m 0xfa
 673 832 710 813 735 794 c 1
 699 735 l 1
 676 749 658 758 625 758 c 0
 586 758 561 737 561 684 c 2
 561 625 l 1
 512 573 l 1xfc
 462 605 414 623 354 623 c 0
 255 623 156 548 156 345 c 0
 156 147 223 66 344 66 c 0
 390 66 436 75 475 98 c 1
 475 305 l 1
 353 305 l 1
 342 382 l 1
 569 382 l 1
 569 49 l 1xfa
 506 12 434 -12 337 -12 c 0
 166 -12 55 107 55 345 c 0
 55 577 198 701 342 701 c 0
 395 701 434 693 469 674 c 1
 469 676 l 2xfc
 469 776 524 832 620 832 c 0xfa
EndSplineSet
EndChar
StartChar: uni0194
Encoding: 404 404 1287
Width: 554
Flags: W
HStem: -213 73<267.5 288.5 267.5 317.5> 669 20G<6 108 108 108 452 548 548 548>
VStem: 158 88<-115.5 -89.5 -115.5 -88> 310 88<-115.5 -89.5>
LayerCount: 2
Fore
SplineSet
548 689 m 1
 335 69 l 1
 377 -9 398 -54 398 -111 c 0
 398 -175 357 -213 278 -213 c 0
 198 -213 158 -175 158 -112 c 0
 158 -64 179 -15 221 69 c 1
 6 689 l 1
 108 689 l 1
 279 135 l 1
 452 689 l 1
 548 689 l 1
310 -104 m 0
 310 -75 297 -38 278 7 c 1
 259 -38 246 -75 246 -104 c 0
 246 -127 257 -140 278 -140 c 0
 299 -140 310 -127 310 -104 c 0
EndSplineSet
EndChar
StartChar: uni0195
Encoding: 405 405 1288
Width: 882
Flags: W
HStem: -12 74<555 613.5 555 636> 0 21G<92 184 92 92> 467 72<307 342> 507 20G<693 786 786 786> 728 20G<184 184>
VStem: 92 92<0 375 0 454 454 738 738 738> 401 92<163 171 171 365 365 378> 719 93<184.5 300.5>
LayerCount: 2
Fore
SplineSet
786 527 m 1x9f
 802 440 812 358 812 255 c 0
 812 66 692 -12 580 -12 c 0xaf
 482 -12 401 48 401 163 c 2
 401 365 l 2
 401 444 367 467 317 467 c 0
 260 467 219 430 184 375 c 1
 184 0 l 1
 92 0 l 1
 92 738 l 1
 184 748 l 1
 184 454 l 1
 222 506 274 539 340 539 c 0x6f
 436 539 493 477 493 378 c 2
 493 171 l 2
 493 97 526 62 584 62 c 0
 643 62 719 106 719 263 c 0
 719 338 712 428 693 527 c 1
 786 527 l 1x9f
EndSplineSet
EndChar
StartChar: uni0197
Encoding: 407 407 342
Width: 313
Flags: W
HStem: 0 21G<109 204 109 109> 322 74<15 109 15 109 204 298> 669 20G<109 204 204 204>
VStem: 109 95<0 322 0 322 396 689>
LayerCount: 2
Fore
SplineSet
298 396 m 1
 298 322 l 1
 204 322 l 1
 204 0 l 1
 109 0 l 1
 109 322 l 1
 15 322 l 1
 15 396 l 1
 109 396 l 1
 109 689 l 1
 204 689 l 1
 204 396 l 1
 298 396 l 1
EndSplineSet
EndChar
StartChar: uni0199
Encoding: 409 409 1292
Width: 509
Flags: W
HStem: 0 21G<92 184 92 92 399 399 399 509> 507 20G<384 487 487 487> 676 74<233 275.5>
VStem: 92 92<0 599 599 600 0 643>
LayerCount: 2
Fore
SplineSet
262 676 m 0
 204 676 184 651 184 600 c 2
 184 0 l 1
 92 0 l 1
 92 599 l 2
 92 687 150 750 257 750 c 0
 307 750 341 741 383 723 c 1
 354 656 l 1
 320 671 289 676 262 676 c 0
293 294 m 1
 509 0 l 1
 399 0 l 1
 190 288 l 1
 384 527 l 1
 487 527 l 1
 293 294 l 1
EndSplineSet
EndChar
StartChar: uni019A
Encoding: 410 410 1293
Width: 313
Flags: W
HStem: -12 76<220 230.5> 337 70<15 107 15 107 199 298> 719 20G<107 107> 730 20G<199 199>
VStem: 107 92<104 106 106 337 407 739 739 739>
LayerCount: 2
Fore
SplineSet
298 337 m 1xd8
 199 337 l 1
 199 106 l 2
 199 78 208 64 232 64 c 0
 245 64 256 66 266 70 c 1
 290 6 l 1
 270 -5 244 -12 217 -12 c 0
 150 -12 107 29 107 104 c 2
 107 337 l 1
 15 337 l 1
 15 407 l 1
 107 407 l 1
 107 739 l 1xe8
 199 750 l 1
 199 407 l 1
 298 407 l 1
 298 337 l 1xd8
EndSplineSet
EndChar
StartChar: uni019B
Encoding: 411 411 1294
Width: 490
Flags: W
HStem: -12 21G<109 109 419 419> 549 20G<71 71> 732 20G<82 82>
VStem: 20 485<10 22>
LayerCount: 2
Fore
SplineSet
328 473 m 0
 394 190 433 108 505 22 c 1
 419 -12 l 1
 348 84 303 171 248 433 c 1
 109 -12 l 1
 20 10 l 1
 185 497 l 1
 233 497 l 1
 224 541 213 574 199 600 c 1
 134 537 l 1
 71 569 l 1
 152 652 l 1
 130 666 103 675 68 681 c 1
 82 752 l 1
 134 742 174 729 206 707 c 1
 271 776 l 1
 325 729 l 1
 256 658 l 1
 287 616 308 557 328 473 c 0
EndSplineSet
EndChar
StartChar: uni019C
Encoding: 412 412 347
Width: 933
Flags: W
HStem: -12 78<246 292 570 614.5> 0 21G<751 833 751 751> 669 20G<90 185 185 185 414 509 509 509 738 833 833 833>
VStem: 90 95<189 191 191 689> 414 95<189 191 191 689> 738 95<159 689 0 689>
LayerCount: 2
Fore
SplineSet
738 689 m 1xbc
 833 689 l 1
 833 0 l 1
 751 0 l 1x7c
 743 79 l 1
 699 17 647 -12 582 -12 c 0
 509 -12 458 26 432 87 c 1
 380 19 326 -12 258 -12 c 0
 150 -12 90 72 90 189 c 2
 90 689 l 1
 185 689 l 1
 185 191 l 2
 185 112 217 66 275 66 c 0
 333 66 368 92 415 159 c 1
 414 169 414 179 414 189 c 2
 414 689 l 1
 509 689 l 1
 509 191 l 2
 509 112 541 66 599 66 c 0
 658 66 693 93 738 159 c 1
 738 689 l 1xbc
EndSplineSet
EndChar
StartChar: uni019F
Encoding: 415 415 1298
Width: 692
Flags: W
HStem: -12 78<292.5 401 292.5 432.5> 316 70<153 539 153 539> 623 78<293 400.5>
VStem: 55 98<316 316 316 386 316 456.5> 539 98<316 316 386 386>
LayerCount: 2
Fore
SplineSet
346 701 m 0
 519 701 637 576 637 344 c 0
 637 116 519 -12 346 -12 c 0
 174 -12 55 112 55 343 c 0
 55 570 174 701 346 701 c 0
346 623 m 0
 240 623 164 554 153 386 c 1
 539 386 l 1
 529 554 455 623 346 623 c 0
346 66 m 0
 456 66 532 137 539 316 c 1
 153 316 l 1
 160 137 239 66 346 66 c 0
EndSplineSet
EndChar
StartChar: uni01A0
Encoding: 416 416 351
Width: 703
Flags: W
HStem: -12 78<290 404 290 432.5> 623 78<288.5 382.5 260 405>
VStem: 55 101<243.5 442.5 243.5 456.5> 536 101<244 395 230 443> 586 77<672 703>
LayerCount: 2
Fore
SplineSet
663 691 m 0xe8
 663 633 632 598 574 587 c 1
 614 528 637 446 637 344 c 0xf0
 637 116 519 -12 346 -12 c 0
 174 -12 55 112 55 343 c 0
 55 570 174 701 346 701 c 0
 419 701 483 679 531 635 c 1
 569 640 586 658 586 686 c 0
 586 720 580 738 572 758 c 1
 644 773 l 1
 655 754 663 727 663 691 c 0xe8
346 66 m 0xf0
 462 66 536 144 536 344 c 0
 536 542 464 623 346 623 c 0
 231 623 156 542 156 343 c 0
 156 144 234 66 346 66 c 0xf0
EndSplineSet
EndChar
StartChar: ohorn
Encoding: 417 417 1300
Width: 595
Flags: W
HStem: -12 74<248 336 248 366.5> 465 74<249 328.5 218 336.5>
VStem: 57 99<194.5 332 194.5 344.5> 428 99<195 294 182.5 332.5> 513 77<506 537>
LayerCount: 2
Fore
SplineSet
590 525 m 0xe8
 590 465 557 430 495 420 c 1
 516 377 527 324 527 264 c 0xf0
 527 101 441 -12 292 -12 c 0
 142 -12 57 96 57 263 c 0
 57 426 143 539 293 539 c 0
 364 539 420 515 459 472 c 1
 496 477 513 492 513 520 c 0
 513 554 507 572 499 592 c 1
 571 607 l 1
 582 588 590 561 590 525 c 0xe8
292 62 m 0xf0
 380 62 428 126 428 264 c 0
 428 401 380 465 293 465 c 0
 205 465 156 401 156 263 c 0
 156 126 204 62 292 62 c 0xf0
EndSplineSet
EndChar
StartChar: uni01A2
Encoding: 418 418 1301
Width: 926
Flags: W
HStem: -202 21G<731 826 731 731> -12 78<290 404 290 432.5> 623 78<288.5 377 260 405> 629 74<638 680>
VStem: 55 101<243.5 442.5 243.5 456.5> 536 101<244 400 230 443> 731 95<-202 543 -202 546 -202 574.5>
LayerCount: 2
Fore
SplineSet
663 703 m 0xde
 771 703 826 646 826 543 c 2
 826 -202 l 1
 731 -202 l 1
 731 546 l 2
 731 603 704 629 656 629 c 0
 620 629 593 621 560 603 c 1xde
 608 543 637 456 637 344 c 0
 637 116 519 -12 346 -12 c 0
 174 -12 55 112 55 343 c 0
 55 570 174 701 346 701 c 0xee
 408 701 464 684 510 651 c 1
 560 685 604 703 663 703 c 0xde
346 66 m 0xee
 462 66 536 144 536 344 c 0
 536 542 464 623 346 623 c 0
 231 623 156 542 156 343 c 0
 156 144 234 66 346 66 c 0xee
EndSplineSet
EndChar
StartChar: uni01A3
Encoding: 419 419 1302
Width: 789
Flags: W
HStem: -213 21G<697 697> -202 21G<605 605> -12 74<248 336 248 366.5> 465 74<249 317 218 336.5 522 555.5>
VStem: 57 99<194.5 332 194.5 344.5> 428 99<195 303 182.5 332.5> 605 92<-202 379 -213 382 -213 410.5>
LayerCount: 2
Fore
SplineSet
542 539 m 0x7e
 644 539 697 482 697 379 c 2
 697 -213 l 1xbe
 605 -202 l 1
 605 382 l 2
 605 439 578 465 533 465 c 0
 511 465 492 461 472 454 c 1
 507 407 527 342 527 264 c 0
 527 101 441 -12 292 -12 c 0
 142 -12 57 96 57 263 c 0
 57 426 143 539 293 539 c 0
 341 539 383 527 418 505 c 1
 457 527 496 539 542 539 c 0x7e
292 62 m 0
 380 62 428 126 428 264 c 0
 428 401 380 465 293 465 c 0
 205 465 156 401 156 263 c 0
 156 126 204 62 292 62 c 0
EndSplineSet
EndChar
StartChar: uni01A4
Encoding: 420 420 355
Width: 672
Flags: W
HStem: 0 21G<183 278 183 183> 253 75<278 361 361 365 278 361> 615 74<278 363 278 278>
VStem: 10 87<551.5 580 551.5 602> 183 95<0 253 0 328 328 614 614 614> 531 101<416.5 526.5>
LayerCount: 2
Fore
SplineSet
364 689 m 2
 530 689 632 621 632 476 c 0
 632 318 517 253 365 253 c 2
 278 253 l 1
 278 0 l 1
 183 0 l 1
 183 614 l 1
 151 614 l 2
 114 614 97 596 97 564 c 0
 97 539 104 518 115 491 c 1
 51 459 l 1
 31 488 10 522 10 567 c 0
 10 637 59 689 156 689 c 2
 364 689 l 2
361 328 m 2
 463 328 531 358 531 475 c 0
 531 578 465 615 363 615 c 2
 278 615 l 1
 278 328 l 1
 361 328 l 2
EndSplineSet
EndChar
StartChar: uni01A7
Encoding: 423 423 1306
Width: 537
Flags: W
HStem: -12 78<241 315 241 326> 623 78<245 309.5>
VStem: 40 99<145.5 218 145.5 249.5> 393 99<496.5 562>
LayerCount: 2
Fore
SplineSet
280 701 m 0
 406 701 492 633 492 528 c 0
 492 419 420 368 288 327 c 0
 171 291 139 251 139 185 c 0
 139 106 203 66 279 66 c 0
 351 66 410 93 460 134 c 1
 512 77 l 1
 454 21 376 -12 276 -12 c 0
 132 -12 40 72 40 185 c 0
 40 314 134 362 244 396 c 0
 366 434 393 465 393 528 c 0
 393 596 343 623 276 623 c 0
 214 623 166 605 114 564 c 1
 62 621 l 1
 124 673 189 701 280 701 c 0
EndSplineSet
EndChar
StartChar: uni01A8
Encoding: 424 424 1307
Width: 457
Flags: W
HStem: -12 74<205.5 263.5 205.5 277> 466 73<203.5 260.5>
VStem: 35 99<117.5 168.5 117.5 193> 323 96<377 419.5>
LayerCount: 2
Fore
SplineSet
237 539 m 0
 350 539 419 478 419 397 c 0
 419 317 372 275 260 245 c 0
 158 218 134 194 134 143 c 0
 134 92 176 62 235 62 c 0
 292 62 341 81 384 112 c 1
 432 57 l 1
 385 17 321 -12 233 -12 c 0
 136 -12 35 38 35 146 c 0
 35 240 99 281 210 308 c 0
 299 330 323 354 323 400 c 0
 323 439 291 466 230 466 c 0
 177 466 136 451 88 422 c 1
 50 479 l 1
 103 517 163 539 237 539 c 0
EndSplineSet
EndChar
StartChar: uni01AA
Encoding: 426 426 361
Width: 308
Flags: W
HStem: -213 74<257.5 293.5 257.5 298.5> 476 72<63 76> 678 72<58 88.5>
VStem: -65 92<591.5 633.5 591.5 654.5> 121 92<-57 486 486 486 555 604>
LayerCount: 2
Fore
SplineSet
351 -117 m 1
 387 -175 l 1
 362 -194 325 -213 272 -213 c 0
 181 -213 121 -160 121 -57 c 2
 121 486 l 1
 105 480 87 476 65 476 c 0
 -8 476 -65 528 -65 612 c 0
 -65 697 -5 750 72 750 c 0
 154 750 213 705 213 604 c 2
 213 -65 l 2
 213 -118 238 -139 277 -139 c 0
 310 -139 328 -130 351 -117 c 1
81 548 m 0
 93 548 106 550 121 555 c 1
 121 612 l 2
 121 657 103 678 74 678 c 0
 42 678 27 653 27 614 c 0
 27 569 45 548 81 548 c 0
EndSplineSet
EndChar
StartChar: uni01AB
Encoding: 427 427 1310
Width: 361
Flags: W
HStem: -213 74<188.5 226 188.5 256> -12 72<233 241> 456 71<9 101 9 101 193 308>
VStem: 101 92<138 456 527 646 646 646> 272 89<-65 -57 -57 -5 -5 -5>
LayerCount: 2
Fore
SplineSet
333 74 m 1
 361 24 l 1
 361 -57 l 2
 361 -161 302 -213 210 -213 c 0
 157 -213 120 -194 95 -175 c 1
 131 -116 l 1
 154 -130 172 -139 205 -139 c 0
 247 -139 272 -118 272 -65 c 2
 272 -5 l 1
 262 -9 249 -12 233 -12 c 0
 156 -12 101 40 101 138 c 2
 101 456 l 1
 9 456 l 1
 9 527 l 1
 101 527 l 1
 101 646 l 1
 193 657 l 1
 193 527 l 1
 318 527 l 1
 308 456 l 1
 193 456 l 1
 193 138 l 2
 193 85 210 60 256 60 c 0
 279 60 300 63 333 74 c 1
EndSplineSet
EndChar
StartChar: uni01AD
Encoding: 429 429 364
Width: 361
Flags: W
HStem: -12 76<233 265.5> 456 71<9 101 9 101 193 308> 676 74<236 269>
VStem: 101 92<138 142 142 456 527 594 594 602>
LayerCount: 2
Fore
SplineSet
256 64 m 0
 279 64 300 71 326 87 c 1
 361 24 l 1
 326 0 288 -12 243 -12 c 0
 154 -12 101 40 101 138 c 2
 101 456 l 1
 9 456 l 1
 9 527 l 1
 101 527 l 1
 101 594 l 2
 101 698 160 750 249 750 c 0
 299 750 336 731 361 712 c 1
 325 653 l 1
 302 667 284 676 254 676 c 0
 218 676 193 655 193 602 c 2
 193 527 l 1
 318 527 l 1
 308 456 l 1
 193 456 l 1
 193 142 l 2
 193 89 210 64 256 64 c 0
EndSplineSet
EndChar
StartChar: uni01AE
Encoding: 430 430 365
Width: 517
Flags: W
HStem: -213 76<347.5 383.5 347.5 388.5> 608 81<15 211 15 507 306 306 306 497>
VStem: 211 95<-57 608>
LayerCount: 2
Fore
SplineSet
306 -63 m 2
 306 -114 328 -137 367 -137 c 0
 400 -137 418 -128 440 -115 c 1
 477 -175 l 1
 452 -194 415 -213 362 -213 c 0
 270 -213 211 -161 211 -57 c 2
 211 608 l 1
 15 608 l 1
 15 689 l 1
 507 689 l 1
 497 608 l 1
 306 608 l 1
 306 -63 l 2
EndSplineSet
EndChar
StartChar: uni01B2
Encoding: 434 434 369
Width: 662
Flags: W
HStem: -12 80<271 365 271 391> 624 77<438 452.5> 669 20G<90 185 185 185>
VStem: 90 95<211 216 216 689> 476 96<308 573 573 574>
LayerCount: 2
Fore
SplineSet
453 701 m 0xd8
 529 701 572 660 572 574 c 2
 572 301 l 2
 572 110 470 -12 312 -12 c 0
 173 -12 90 84 90 211 c 2
 90 689 l 1
 185 689 l 1xb8
 185 216 l 2
 185 121 230 68 312 68 c 0
 418 68 476 150 476 308 c 2
 476 573 l 2
 476 610 467 624 438 624 c 0
 422 624 411 621 401 617 c 1
 377 683 l 1
 397 694 423 701 453 701 c 0xd8
EndSplineSet
EndChar
StartChar: uni01B4
Encoding: 436 436 1319
Width: 496
Flags: W
HStem: -213 21G<61 61> 0 21G<187 218 187 187> 500 74<471.5 484.5 438.5 489.5> 507 20G<10 108 108 108> 554 20G<438.5 484.5>
VStem: 10 531<527 556>
LayerCount: 2
Fore
SplineSet
61 -213 m 1xe4
 51 -141 l 1
 158 -123 188 -82 218 0 c 1
 187 0 l 1
 10 527 l 1
 108 527 l 1xd4
 249 67 l 1
 354 464 l 2
 375 543 406 574 471 574 c 0xe4
 498 574 521 567 541 556 c 1xcc
 517 494 l 1
 507 498 496 500 483 500 c 0
 460 500 450 490 440 456 c 2
 310 6 l 2
 275 -116 207 -197 61 -213 c 1xe4
EndSplineSet
EndChar
StartChar: uni01B5
Encoding: 437 437 674
Width: 522
Flags: W
TopAccentHorizontal: 254
HStem: 0 81<132 466> 310 74<94 183 94 231 329 434 94 281> 609 80<66 378 66 477>
VStem: 30 447<0 81 76 81>
LayerCount: 2
Fore
SplineSet
477 689 m 1
 477 612 l 1
 329 384 l 1
 434 384 l 1
 434 310 l 1
 281 310 l 1
 132 81 l 1
 477 81 l 1
 466 0 l 1
 30 0 l 1
 30 76 l 1
 183 310 l 1
 94 310 l 1
 94 384 l 1
 231 384 l 1
 378 609 l 1
 66 609 l 1
 66 689 l 1
 477 689 l 1
EndSplineSet
EndChar
StartChar: uni01B6
Encoding: 438 438 1320
Width: 432
Flags: W
HStem: 0 77<126 396> 229 70<61 142 61 193 61 237 288 372> 449 78<48 302 48 404>
VStem: 25 382<0 77 69 77>
LayerCount: 2
Fore
SplineSet
126 77 m 1
 407 77 l 1
 396 0 l 1
 25 0 l 1
 25 69 l 1
 142 229 l 1
 61 229 l 1
 61 299 l 1
 193 299 l 1
 302 449 l 1
 48 449 l 1
 48 527 l 1
 404 527 l 1
 404 457 l 1
 288 299 l 1
 372 299 l 1
 372 229 l 1
 237 229 l 1
 126 77 l 1
EndSplineSet
EndChar
StartChar: uni01B8
Encoding: 440 440 1322
Width: 516
Flags: W
HStem: -12 78<240.5 324 240.5 335> 328 69<281 282 281 301 281 389> 611 78<181 475 181 181>
VStem: 45 99<155 237.5 155 251.5>
LayerCount: 2
Fore
SplineSet
451 132 m 1
 506 78 l 1
 454 17 387 -12 283 -12 c 0
 140 -12 45 72 45 191 c 0
 45 312 126 397 281 397 c 2
 282 397 l 1
 69 612 l 1
 69 689 l 1
 475 689 l 1
 475 611 l 1
 181 611 l 1
 389 395 l 1
 389 328 l 1
 301 328 l 2
 194 328 144 282 144 193 c 0
 144 117 195 66 286 66 c 0
 362 66 408 86 451 132 c 1
EndSplineSet
EndChar
StartChar: uni01B9
Encoding: 441 441 1323
Width: 476
Flags: W
HStem: -213 75<219 297.5 219 309.5> 138 68<260 263 260 280 260 359> 451 76<156 445 156 156>
VStem: 25 99<-45.5 44 -45.5 60.5>
LayerCount: 2
Fore
SplineSet
424 -74 m 1
 476 -123 l 1
 422 -182 357 -213 262 -213 c 0
 121 -213 25 -126 25 -6 c 0
 25 127 112 206 260 206 c 2
 263 206 l 1
 49 457 l 1
 49 527 l 1
 445 527 l 1
 445 451 l 1
 156 451 l 1
 359 205 l 1
 359 138 l 1
 280 138 l 2
 169 138 124 92 124 -4 c 0
 124 -87 174 -138 264 -138 c 0
 331 -138 376 -118 424 -74 c 1
EndSplineSet
EndChar
StartChar: uni01BA
Encoding: 442 442 1324
Width: 470
Flags: W
HStem: -215 21G<161 161> 204 68<212 262> 451 76<25 304 25 416>
VStem: 28 94<-96 -68.5 -96 -41.5> 346 99<104.5 159.5>
LayerCount: 2
Fore
SplineSet
161 -215 m 1
 73 -178 28 -133 28 -75 c 0
 28 -8 80 28 194 41 c 0
 296 53 346 73 346 136 c 0
 346 183 314 204 262 204 c 2
 111 204 l 1
 111 271 l 1
 304 451 l 1
 25 451 l 1
 25 527 l 1
 416 527 l 1
 416 457 l 1
 212 272 l 1
 267 272 l 2
 375 272 445 225 445 135 c 0
 445 32 359 -16 244 -30 c 0
 146 -42 122 -54 122 -83 c 0
 122 -109 148 -131 195 -155 c 1
 161 -215 l 1
EndSplineSet
EndChar
StartChar: uni01BB
Encoding: 443 443 1325
Width: 495
Flags: W
HStem: 0 77<144 434> 252 74<73 207 73 269 73 312 370 441> 558 20G<25 25> 603 76<195 255.5>
VStem: 333 96<466.5 527>
LayerCount: 2
Fore
SplineSet
144 77 m 1
 445 77 l 1
 434 0 l 1
 39 0 l 1
 39 73 l 1
 110 147 165 205 207 252 c 1
 73 252 l 1
 73 326 l 1
 269 326 l 1
 317 391 333 435 333 492 c 0
 333 562 288 603 223 603 c 0
 167 603 130 581 85 530 c 1
 25 578 l 1
 79 645 144 679 228 679 c 0xf8
 351 679 429 600 429 496 c 0
 429 437 411 385 370 326 c 1
 441 326 l 1
 441 252 l 1
 312 252 l 1
 269 203 214 147 144 77 c 1
EndSplineSet
EndChar
StartChar: uni01BE
Encoding: 446 446 1328
Width: 512
Flags: W
HStem: -11 74<197.5 271 197.5 298> 545 70<84 161 84 161 253 362> 728 20G<253 253>
VStem: 161 92<437 545 437 545 437 545 615 738 738 738> 357 98<168 263>
LayerCount: 2
Fore
SplineSet
277 434 m 1
 362 416 455 355 455 212 c 0
 455 85 368 -11 228 -11 c 0
 148 -11 88 17 29 74 c 1
 79 126 l 1
 125 85 169 63 226 63 c 0
 316 63 357 122 357 214 c 0
 357 312 313 354 232 375 c 2
 161 391 l 1
 161 545 l 1
 84 545 l 1
 84 615 l 1
 161 615 l 1
 161 738 l 1
 253 748 l 1
 253 615 l 1
 362 615 l 1
 362 545 l 1
 253 545 l 1
 253 437 l 1
 277 434 l 1
EndSplineSet
EndChar
StartChar: uni01BF
Encoding: 447 447 1329
Width: 586
Flags: W
HStem: -213 21G<92 92> -202 21G<184 184> -10 21G<184 184> 465 74<313.5 365> 507 20G<92 171 171 171>
VStem: 92 92<-202 -10 -202 66 66 385> 430 99<291.5 390>
LayerCount: 2
Fore
SplineSet
355 539 m 0x76
 454 539 529 472 529 354 c 0
 529 188 415 109 255 27 c 2
 184 -10 l 1
 184 -202 l 1x76
 92 -213 l 1
 92 527 l 1
 171 527 l 1xae
 179 451 l 1
 222 503 272 539 355 539 c 0x76
243 98 m 2
 366 164 430 231 430 352 c 0
 430 428 396 465 334 465 c 0
 273 465 225 434 184 385 c 1
 184 66 l 1
 243 98 l 2
EndSplineSet
EndChar
StartChar: uni01C0
Encoding: 448 448 383
Width: 286
Flags: W
HStem: 0 21G<100 186 100 100> 719 20G<100 100> 729 20G<186 186>
VStem: 100 86<0 739 739 739>
LayerCount: 2
Fore
SplineSet
186 749 m 1xb0
 186 0 l 1
 100 0 l 1
 100 739 l 1xd0
 186 749 l 1xb0
EndSplineSet
EndChar
StartChar: uni01C1
Encoding: 449 449 1331
Width: 458
Flags: W
HStem: 0 21G<100 186 100 100 272 272 272 358> 719 20G<100 100 272 272> 729 20G<186 186 358 358>
VStem: 100 86<0 739 739 739> 272 86<0 739 739 739>
LayerCount: 2
Fore
SplineSet
186 749 m 1xb8
 186 0 l 1
 100 0 l 1
 100 739 l 1xd8
 186 749 l 1xb8
358 749 m 1xb8
 358 0 l 1
 272 0 l 1
 272 739 l 1xd8
 358 749 l 1xb8
EndSplineSet
EndChar
StartChar: uni01C2
Encoding: 450 450 1332
Width: 313
Flags: W
HStem: 0 21G<114 200 114 114> 259 63<15 114 15 114 200 298> 408 63<15 114 15 114 200 298> 719 20G<114 114> 729 20G<200 200>
VStem: 114 86<0 259 0 259 322 408 471 739 739 739>
LayerCount: 2
Fore
SplineSet
298 408 m 1xec
 200 408 l 1
 200 322 l 1
 298 322 l 1
 298 259 l 1
 200 259 l 1
 200 0 l 1
 114 0 l 1
 114 259 l 1
 15 259 l 1
 15 322 l 1
 114 322 l 1
 114 408 l 1
 15 408 l 1
 15 471 l 1
 114 471 l 1
 114 739 l 1xf4
 200 749 l 1
 200 471 l 1
 298 471 l 1
 298 408 l 1xec
EndSplineSet
EndChar
StartChar: uni01C3
Encoding: 451 451 1333
Width: 339
Flags: W
HStem: -12 139<149.5 189> 719 20G<126 126> 729 20G<212 212>
VStem: 100 139<38.5 77> 126 86<210 739 739 739>
LayerCount: 2
Fore
SplineSet
212 749 m 1xa8
 212 210 l 1
 126 210 l 1
 126 739 l 1xc8
 212 749 l 1xa8
169 127 m 0xb0
 209 127 239 96 239 58 c 0
 239 19 209 -12 169 -12 c 0
 130 -12 100 19 100 58 c 0
 100 96 130 127 169 127 c 0xb0
EndSplineSet
EndChar
StartChar: uni01C4
Encoding: 452 452 1334
Width: 1141
Flags: W
HStem: 0 75<195 265> 0 81<755 1085> 609 80<685 993> 613 76<195 244 244 265 195 195>
VStem: 100 95<75 613 75 689 75 689> 488 101<234.5 464.5>
LayerCount: 2
Fore
SplineSet
1018 909 m 1x6c
 1057 864 l 1
 922 754 l 1
 861 754 l 1
 725 864 l 1
 765 909 l 1
 891 828 l 1
 1018 909 l 1x6c
244 689 m 2
 420 689 589 634 589 348 c 0
 589 67 414 0 265 0 c 2
 100 0 l 1
 100 689 l 1
 244 689 l 2
1096 689 m 1
 1096 612 l 1
 755 81 l 1
 1096 81 l 1
 1085 0 l 1
 649 0 l 1
 649 76 l 1
 993 609 l 1
 685 609 l 1
 685 689 l 1
 1096 689 l 1
265 613 m 2x9c
 195 613 l 1
 195 75 l 1
 272 75 l 2
 380 75 488 121 488 348 c 0
 488 581 375 613 265 613 c 2x9c
EndSplineSet
EndChar
StartChar: uni01C5
Encoding: 453 453 1335
Width: 1071
Flags: W
HStem: 0 77<768 1035> 449 78<687 938 687 1043> 613 76<195 244 244 265 195 195> 627 74<858 858 858 889 828 858> 681 20G<858 858> 720 20G<692 692 1024 1024>
VStem: 100 95<75 613 75 689 75 689> 488 101<234.5 464.5>
LayerCount: 2
Fore
SplineSet
985 785 m 1xcf
 1024 740 l 1
 889 627 l 1
 828 627 l 1xd7
 692 740 l 1
 732 785 l 1
 858 701 l 1
 985 785 l 1xcf
244 689 m 2xe7
 420 689 589 634 589 348 c 0
 589 67 414 0 265 0 c 2
 100 0 l 1
 100 689 l 1
 244 689 l 2xe7
265 613 m 2
 195 613 l 1
 195 75 l 1
 272 75 l 2
 380 75 488 121 488 348 c 0
 488 581 375 613 265 613 c 2
1043 527 m 1
 1043 457 l 1
 768 77 l 1
 1046 77 l 1
 1035 0 l 1
 664 0 l 1
 664 69 l 1
 938 449 l 1
 687 449 l 1
 687 527 l 1
 1043 527 l 1
EndSplineSet
EndChar
StartChar: uni01C6
Encoding: 454 454 1336
Width: 1022
Flags: W
HStem: -12 73<238 288.5> 0 77<719 986> 449 78<638 889 638 994> 466 73<244.5 295 199.5 310> 627 74<809 809 809 840 779 809> 681 20G<809 809> 719 20G<498 498> 720 20G<643 643 975 975> 730 20G<406 406>
VStem: 57 99<193.5 331.5 193.5 341.5> 406 92<139 397 397 397 474 739 0 750 0 750>
LayerCount: 2
Fore
SplineSet
840 627 m 1x9960
 779 627 l 1
 643 740 l 1
 683 785 l 1
 809 701 l 1
 936 785 l 1
 975 740 l 1
 840 627 l 1x9960
406 474 m 1
 406 750 l 1x64e0
 498 739 l 1
 498 0 l 1
 417 0 l 1x6660
 408 73 l 1
 374 20 321 -12 256 -12 c 0
 128 -12 57 97 57 261 c 0
 57 422 135 539 264 539 c 0
 326 539 371 511 406 474 c 1
719 77 m 1
 997 77 l 1
 986 0 l 1
 615 0 l 1
 615 69 l 1
 889 449 l 1
 638 449 l 1
 638 527 l 1
 994 527 l 1
 994 457 l 1
 719 77 l 1
276 61 m 0x94e0
 335 61 371 90 406 139 c 1
 406 397 l 1
 373 439 336 466 284 466 c 0
 205 466 156 400 156 263 c 0
 156 124 200 61 276 61 c 0x94e0
EndSplineSet
EndChar
StartChar: uni01C7
Encoding: 455 455 390
Width: 784
Flags: W
HStem: 0 83<195 467> 669 20G<100 195 195 195 594 689 689 689>
VStem: 100 95<83 689 83 689 83 689> 594 95<100 689>
LayerCount: 2
Fore
SplineSet
195 689 m 1
 195 83 l 1
 478 83 l 1
 467 0 l 1
 100 0 l 1
 100 689 l 1
 195 689 l 1
689 689 m 1
 689 96 l 2
 689 -48 620 -102 509 -137 c 1
 484 -68 l 1
 575 -32 594 8 594 100 c 2
 594 689 l 1
 689 689 l 1
EndSplineSet
EndChar
StartChar: uni01C8
Encoding: 456 456 1338
Width: 765
Flags: W
HStem: -212 21G<506 506> 0 83<195 467> 507 20G<581 673 673 673> 655 125<608 646.5> 669 20G<100 195 195 195>
VStem: 100 95<83 689 83 689 83 689> 563 129<699.5 735> 581 92<26 32 32 527>
LayerCount: 2
Fore
SplineSet
627 780 m 0xf6
 666 780 692 753 692 717 c 0
 692 682 666 655 627 655 c 0
 589 655 563 682 563 717 c 0
 563 753 589 780 627 780 c 0xf6
195 689 m 1xed
 195 83 l 1
 478 83 l 1
 467 0 l 1
 100 0 l 1
 100 689 l 1
 195 689 l 1xed
673 527 m 1
 673 32 l 2
 673 -117 618 -162 506 -212 c 1
 479 -145 l 1
 548 -113 581 -87 581 26 c 2
 581 527 l 1
 673 527 l 1
EndSplineSet
EndChar
StartChar: uni01C9
Encoding: 457 457 1339
Width: 571
Flags: W
HStem: -212 21G<312 312> -12 76<199 209.5> 507 20G<387 479 479 479> 655 125<414 452.5> 719 20G<86 86> 730 20G<178 178>
VStem: 86 92<104 106 106 739 739 739> 369 129<699.5 735> 387 92<26 32 32 527>
LayerCount: 2
Fore
SplineSet
433 780 m 0xf3
 472 780 498 753 498 717 c 0
 498 682 472 655 433 655 c 0
 395 655 369 682 369 717 c 0
 369 753 395 780 433 780 c 0xf3
196 -12 m 0
 129 -12 86 29 86 104 c 2
 86 739 l 1xea80
 178 750 l 1xe680
 178 106 l 2
 178 78 187 64 211 64 c 0
 224 64 235 66 245 70 c 1
 269 6 l 1
 249 -5 223 -12 196 -12 c 0
479 527 m 1xe680
 479 32 l 2
 479 -117 424 -162 312 -212 c 1
 285 -145 l 1
 354 -113 387 -87 387 26 c 2
 387 527 l 1
 479 527 l 1xe680
EndSplineSet
EndChar
StartChar: uni01CA
Encoding: 458 458 1340
Width: 988
Flags: W
HStem: 0 21G<100 189 100 100 456 583 456 456> 0 103<507 507 507 583 456 507> 585 104<176 176> 669 20G<100 224 224 224 494 583 583 583 798 893 893 893>
VStem: 100 89<0 316 0 689> 494 89<313 689 0 689> 798 95<100 689>
LayerCount: 2
Fore
SplineSet
583 689 m 1x9e
 583 0 l 1
 456 0 l 1
 176 585 l 1xae
 181 528 189 444 189 316 c 2
 189 0 l 1
 100 0 l 1
 100 689 l 1
 224 689 l 1
 507 103 l 1x5e
 505 119 494 229 494 313 c 2
 494 689 l 1
 583 689 l 1x9e
893 689 m 1
 893 96 l 2
 893 -48 824 -102 713 -137 c 1
 688 -68 l 1
 779 -32 798 8 798 100 c 2
 798 689 l 1
 893 689 l 1
EndSplineSet
EndChar
StartChar: uni01CB
Encoding: 459 459 394
Width: 960
Flags: W
HStem: -212 21G<701 701> 0 21G<100 189 100 100 456 583 456 456> 0 103<507 507 507 583 456 507> 507 20G<776 868 868 868> 585 104<176 176> 655 125<803 841.5> 669 20G<100 224 224 224 494 583 583 583>
VStem: 100 89<0 316 0 689> 494 89<313 689 0 689> 758 129<699.5 735> 776 92<26 32 32 527>
LayerCount: 2
Fore
SplineSet
822 780 m 0xd5c0
 861 780 887 753 887 717 c 0
 887 682 861 655 822 655 c 0
 784 655 758 682 758 717 c 0
 758 753 784 780 822 780 c 0xd5c0
583 689 m 1xb3a0
 583 0 l 1
 456 0 l 1
 176 585 l 1xd9a0
 181 528 189 444 189 316 c 2
 189 0 l 1
 100 0 l 1
 100 689 l 1
 224 689 l 1
 507 103 l 1
 505 119 494 229 494 313 c 2
 494 689 l 1
 583 689 l 1xb3a0
868 527 m 1
 868 32 l 2
 868 -117 813 -162 701 -212 c 1
 674 -145 l 1
 743 -113 776 -87 776 26 c 2
 776 527 l 1
 868 527 l 1
EndSplineSet
EndChar
StartChar: uni01CC
Encoding: 460 460 1342
Width: 856
Flags: W
HStem: -212 21G<597 597> 0 21G<92 184 92 92 401 493 401 401> 467 72<305.5 343.5> 507 20G<92 171 171 171 672 764 764 764> 655 125<699 737.5>
VStem: 92 92<0 374 0 527> 401 92<0 365 365 378 0 404.5> 654 129<699.5 735> 672 92<26 32 32 527>
LayerCount: 2
Fore
SplineSet
718 780 m 0xef
 757 780 783 753 783 717 c 0
 783 682 757 655 718 655 c 0
 680 655 654 682 654 717 c 0
 654 753 680 780 718 780 c 0xef
340 539 m 0
 437 539 493 478 493 378 c 2
 493 0 l 1
 401 0 l 1
 401 365 l 2
 401 444 369 467 318 467 c 0
 259 467 219 430 184 374 c 1xee80
 184 0 l 1
 92 0 l 1
 92 527 l 1
 171 527 l 1xde80
 179 449 l 1
 215 503 271 539 340 539 c 0
672 26 m 2xde80
 672 527 l 1
 764 527 l 1
 764 32 l 2
 764 -117 709 -162 597 -212 c 1
 570 -145 l 1
 639 -113 672 -87 672 26 c 2xde80
EndSplineSet
EndChar
StartChar: uni01CD
Encoding: 461 461 396
Width: 573
Flags: W
HStem: 0 21G<6 102 6 6 467 567 467 467> 173 77<177 392 177 415 154 392> 610 79<285 285> 669 20G<227 347 347 347>
VStem: 6 561<0 0>
LayerCount: 2
Fore
SplineSet
318 754 m 1xd8
 257 754 l 1
 121 864 l 1
 161 909 l 1
 287 828 l 1
 414 909 l 1
 453 864 l 1
 318 754 l 1xd8
467 0 m 1
 415 173 l 1
 154 173 l 1
 102 0 l 1
 6 0 l 1
 227 689 l 1
 347 689 l 1
 567 0 l 1
 467 0 l 1
177 250 m 1
 392 250 l 1
 285 610 l 1xe8
 177 250 l 1
EndSplineSet
EndChar
StartChar: uni01D0
Encoding: 464 464 1346
Width: 276
Flags: W
HStem: 0 21G<92 184 92 92> 507 20G<92 184 184 184> 627 74<138 138 138 169 108 138> 681 20G<138 138> 720 20G<-28 -28 304 304>
VStem: 92 92<0 527 0 527>
LayerCount: 2
Fore
SplineSet
265 785 m 1xdc
 304 740 l 1
 169 627 l 1
 108 627 l 1xec
 -28 740 l 1
 12 785 l 1
 138 701 l 1
 265 785 l 1xdc
184 527 m 1
 184 0 l 1
 92 0 l 1
 92 527 l 1
 184 527 l 1
EndSplineSet
EndChar
StartChar: uni01D4
Encoding: 468 468 1350
Width: 575
Flags: W
HStem: -12 72<230.5 270.5> 0 21G<404 483 404 404> 507 20G<86 178 178 178 391 483 483 483> 627 74<285 285 285 316 255 285> 681 20G<285 285> 720 20G<119 119 451 451>
VStem: 86 92<149 159 159 527> 391 92<151 527 0 527>
LayerCount: 2
Fore
SplineSet
412 785 m 1xaf
 451 740 l 1
 316 627 l 1
 255 627 l 1xb7
 119 740 l 1
 159 785 l 1
 285 701 l 1
 412 785 l 1xaf
483 527 m 1
 483 0 l 1
 404 0 l 1x6f
 397 82 l 1
 357 18 308 -12 233 -12 c 0
 141 -12 86 46 86 149 c 2
 86 527 l 1
 178 527 l 1
 178 159 l 2
 178 87 202 60 259 60 c 0
 316 60 359 98 391 151 c 1
 391 527 l 1
 483 527 l 1
EndSplineSet
EndChar
StartChar: uni01D5
Encoding: 469 469 1351
Width: 662
Flags: W
HStem: -12 80<281 379.5 281 407.5> 669 20G<90 185 185 185 476 572 572 572> 746 114<209.5 242 419 451.5> 903 69<196 469 196 469>
VStem: 90 95<221 228 228 689> 168 115<787 819> 196 273<903 972 903 972> 378 115<787 819> 476 96<228 689>
LayerCount: 2
Fore
SplineSet
469 903 m 1xfa
 196 903 l 1
 196 972 l 1
 469 972 l 1
 469 903 l 1xfa
226 860 m 0xf5
 258 860 283 835 283 803 c 0
 283 771 258 746 226 746 c 0
 193 746 168 771 168 803 c 0
 168 835 193 860 226 860 c 0xf5
435 860 m 0
 468 860 493 835 493 803 c 0
 493 771 468 746 435 746 c 0
 403 746 378 771 378 803 c 0
 378 835 403 860 435 860 c 0
572 689 m 1xf880
 572 221 l 2
 572 84 485 -12 330 -12 c 0
 173 -12 90 84 90 221 c 2
 90 689 l 1
 185 689 l 1
 185 228 l 2
 185 121 232 68 330 68 c 0
 429 68 476 121 476 228 c 2
 476 689 l 1
 572 689 l 1xf880
EndSplineSet
EndChar
StartChar: uni01D6
Encoding: 470 470 1352
Width: 575
Flags: W
HStem: -12 72<230.5 270.5> 0 21G<404 483 404 404> 507 20G<86 178 178 178 391 483 483 483> 624 114<163.5 196 373 405.5> 791 69<148 421 148 421>
VStem: 86 92<149 159 159 527> 122 115<665 697> 148 273<791 860 791 860> 332 115<665 697> 391 92<151 527 0 527>
LayerCount: 2
Fore
SplineSet
421 791 m 1xb9
 148 791 l 1
 148 860 l 1
 421 860 l 1
 421 791 l 1xb9
180 738 m 0xba80
 212 738 237 713 237 681 c 0
 237 649 212 624 180 624 c 0
 147 624 122 649 122 681 c 0
 122 713 147 738 180 738 c 0xba80
389 738 m 0
 422 738 447 713 447 681 c 0
 447 649 422 624 389 624 c 0
 357 624 332 649 332 681 c 0
 332 713 357 738 389 738 c 0
483 527 m 1xbc40
 483 0 l 1
 404 0 l 1x7c40
 397 82 l 1
 357 18 308 -12 233 -12 c 0
 141 -12 86 46 86 149 c 2
 86 527 l 1
 178 527 l 1
 178 159 l 2
 178 87 202 60 259 60 c 0
 316 60 359 98 391 151 c 1
 391 527 l 1
 483 527 l 1xbc40
EndSplineSet
EndChar
StartChar: uni01DA
Encoding: 474 474 1356
Width: 575
Flags: W
HStem: -12 72<230.5 270.5> 0 21G<404 483 404 404> 507 20G<86 178 178 178 391 483 483 483> 624 114<164.5 197 374 406.5>
VStem: 86 92<149 159 159 527> 123 115<665 697> 333 115<665 697> 391 92<151 527 0 527>
LayerCount: 2
Fore
SplineSet
412 899 m 1xb9
 451 854 l 1
 316 744 l 1
 255 744 l 1
 119 854 l 1
 159 899 l 1
 285 818 l 1
 412 899 l 1xb9
181 738 m 0xb6
 213 738 238 713 238 681 c 0
 238 649 213 624 181 624 c 0
 148 624 123 649 123 681 c 0
 123 713 148 738 181 738 c 0xb6
390 738 m 0
 423 738 448 713 448 681 c 0
 448 649 423 624 390 624 c 0
 358 624 333 649 333 681 c 0
 333 713 358 738 390 738 c 0
483 527 m 1xb9
 483 0 l 1
 404 0 l 1x79
 397 82 l 1
 357 18 308 -12 233 -12 c 0
 141 -12 86 46 86 149 c 2
 86 527 l 1
 178 527 l 1
 178 159 l 2
 178 87 202 60 259 60 c 0
 316 60 359 98 391 151 c 1
 391 527 l 1
 483 527 l 1xb9
EndSplineSet
EndChar
StartChar: uni01DB
Encoding: 475 475 1357
Width: 662
Flags: W
HStem: -12 80<281 379.5 281 407.5> 669 20G<90 185 185 185 476 572 572 572> 746 114<209.5 242 419 451.5>
VStem: 90 95<221 228 228 689> 168 115<787 819> 378 115<787 819> 476 96<228 689>
LayerCount: 2
Fore
SplineSet
251 1015 m 1xf2
 369 870 l 1
 331 835 l 1
 195 961 l 1
 251 1015 l 1xf2
226 860 m 0xec
 258 860 283 835 283 803 c 0
 283 771 258 746 226 746 c 0
 193 746 168 771 168 803 c 0
 168 835 193 860 226 860 c 0xec
435 860 m 0
 468 860 493 835 493 803 c 0
 493 771 468 746 435 746 c 0
 403 746 378 771 378 803 c 0
 378 835 403 860 435 860 c 0
572 689 m 1xf2
 572 221 l 2
 572 84 485 -12 330 -12 c 0
 173 -12 90 84 90 221 c 2
 90 689 l 1
 185 689 l 1
 185 228 l 2
 185 121 232 68 330 68 c 0
 429 68 476 121 476 228 c 2
 476 689 l 1
 572 689 l 1xf2
EndSplineSet
EndChar
StartChar: uni01DE
Encoding: 478 478 413
Width: 573
Flags: W
HStem: 0 21G<6 102 6 6 467 567 467 467> 173 77<177 392 177 415 154 392> 610 79<285 285> 669 20G<227 347 347 347> 746 114<165.5 198 375 407.5> 903 69<152 425 152 425>
VStem: 124 115<787 819> 152 273<903 972 903 972> 334 115<787 819>
LayerCount: 2
Fore
SplineSet
425 972 m 1xdd
 425 903 l 1
 152 903 l 1
 152 972 l 1
 425 972 l 1xdd
182 746 m 0xde80
 149 746 124 771 124 803 c 0
 124 835 149 860 182 860 c 0
 214 860 239 835 239 803 c 0
 239 771 214 746 182 746 c 0xde80
334 803 m 0
 334 835 359 860 391 860 c 0
 424 860 449 835 449 803 c 0
 449 771 424 746 391 746 c 0
 359 746 334 771 334 803 c 0
467 0 m 1
 415 173 l 1
 154 173 l 1
 102 0 l 1
 6 0 l 1
 227 689 l 1
 347 689 l 1
 567 0 l 1
 467 0 l 1
177 250 m 1
 392 250 l 1
 285 610 l 1xee80
 177 250 l 1
EndSplineSet
EndChar
StartChar: uni01DF
Encoding: 479 479 414
Width: 544
Flags: W
HStem: -12 69<204 245> 260 61<277 289 289 358> 464 75<235.5 284.5> 624 114<139.5 172 349 381.5> 791 69<124 397 124 397>
VStem: 45 98<121 188 121 203.5> 98 115<665 697> 124 273<791 860 791 860> 308 115<665 697> 358 92<139 260 260 260 321 360 360 364>
LayerCount: 2
Fore
SplineSet
397 860 m 1xe9
 397 791 l 1
 124 791 l 1
 124 860 l 1
 397 860 l 1xe9
156 624 m 0xfa80
 123 624 98 649 98 681 c 0
 98 713 123 738 156 738 c 0
 188 738 213 713 213 681 c 0
 213 649 188 624 156 624 c 0xfa80
308 681 m 0
 308 713 333 738 365 738 c 0
 398 738 423 713 423 681 c 0
 423 649 398 624 365 624 c 0
 333 624 308 649 308 681 c 0
450 123 m 2xec40
 450 77 467 62 494 52 c 1
 473 -12 l 1
 420 -6 386 15 370 67 c 1
 333 12 277 -12 213 -12 c 0
 108 -12 45 53 45 147 c 0
 45 260 130 321 277 321 c 2
 358 321 l 1
 358 360 l 2
 358 436 321 464 248 464 c 0
 209 464 160 454 106 436 c 1
 83 503 l 1
 148 527 206 539 265 539 c 0
 392 539 450 474 450 364 c 2
 450 123 l 2xec40
234 57 m 0
 288 57 328 84 358 139 c 1
 358 260 l 1
 289 260 l 2
 192 260 143 224 143 152 c 0
 143 90 174 57 234 57 c 0
EndSplineSet
EndChar
StartChar: uni01E1
Encoding: 481 481 416
Width: 544
Flags: W
HStem: -12 69<204 245> 260 61<277 289 289 358> 464 75<235.5 284.5> 605 125<240 278.5> 768 69<125 398 125 398>
VStem: 45 98<121 188 121 203.5> 125 273<768 837 768 837> 195 129<649.5 685> 358 92<139 260 260 260 321 360 360 364>
LayerCount: 2
Fore
SplineSet
398 837 m 1xea
 398 768 l 1
 125 768 l 1
 125 837 l 1
 398 837 l 1xea
195 667 m 0xfd80
 195 703 221 730 259 730 c 0
 298 730 324 703 324 667 c 0
 324 632 298 605 259 605 c 0
 221 605 195 632 195 667 c 0xfd80
450 123 m 2
 450 77 467 62 494 52 c 1
 473 -12 l 1
 420 -6 386 15 370 67 c 1
 333 12 277 -12 213 -12 c 0
 108 -12 45 53 45 147 c 0
 45 260 130 321 277 321 c 2
 358 321 l 1
 358 360 l 2
 358 436 321 464 248 464 c 0
 209 464 160 454 106 436 c 1
 83 503 l 1
 148 527 206 539 265 539 c 0
 392 539 450 474 450 364 c 2
 450 123 l 2
234 57 m 0
 288 57 328 84 358 139 c 1
 358 260 l 1
 289 260 l 2
 192 260 143 224 143 152 c 0
 143 90 174 57 234 57 c 0
EndSplineSet
EndChar
StartChar: uni01E2
Encoding: 482 482 1364
Width: 816
Flags: W
HStem: 0 76<535 762 535 762> 173 77<179 400 179 418 150 400> 311 76<476 712 476 476> 613 76<316 316 401 710 401 401> 793 69<337 610 337 610>
VStem: 337 273<793 862 793 862>
LayerCount: 2
Fore
SplineSet
610 862 m 1
 610 793 l 1
 337 793 l 1
 337 862 l 1
 610 862 l 1
535 76 m 1
 762 76 l 1
 762 0 l 1
 458 0 l 1
 418 173 l 1
 150 173 l 1
 85 0 l 1
 -12 0 l 1
 262 689 l 1
 721 689 l 1
 710 613 l 1
 401 613 l 1
 457 387 l 1
 712 387 l 1
 712 311 l 1
 476 311 l 1
 535 76 l 1
179 250 m 1
 400 250 l 1
 316 613 l 1
 179 250 l 1
EndSplineSet
EndChar
StartChar: uni01E4
Encoding: 484 484 1366
Width: 641
Flags: W
HStem: -12 78<283.5 367 283.5 388> 169 78<353 475 353 475 569 636> 305 77<353 475 353 353> 623 78<304.5 385>
VStem: 55 101<246 446.5 246 461> 475 94<95 169 49 169 247 305 305 305>
LayerCount: 2
Fore
SplineSet
636 247 m 1
 636 169 l 1
 569 169 l 1
 569 49 l 1
 506 12 434 -12 342 -12 c 0
 166 -12 55 107 55 345 c 0
 55 577 197 701 352 701 c 0
 445 701 502 674 561 625 c 1
 505 567 l 1
 457 606 416 623 354 623 c 0
 255 623 156 548 156 345 c 0
 156 147 223 66 344 66 c 0
 390 66 436 75 475 95 c 1
 475 169 l 1
 353 169 l 1
 353 247 l 1
 475 247 l 1
 475 305 l 1
 353 305 l 1
 342 382 l 1
 569 382 l 1
 569 247 l 1
 636 247 l 1
EndSplineSet
EndChar
StartChar: uni01E5
Encoding: 485 485 1367
Width: 520
Flags: W
HStem: -213 72<193 299.5 193 323.5> -86 63<265 407 265 410 265 407 495 548> 21 72<169 318 234 299> 175 61<246 290 218 321> 473 66<216.5 252 194 289.5> 487 52
VStem: 25 83<-83 -53 -83 -53> 49 94<321 389.5 320 409> 80 85<124 133> 365 94<318 384.5 302 394.5>
LayerCount: 2
Fore
SplineSet
548 -23 m 1xf940
 548 -86 l 1
 495 -86 l 1
 478 -167 396 -213 251 -213 c 0
 79 -213 25 -160 25 -53 c 1
 108 -53 l 1xfa40
 108 -113 135 -141 251 -141 c 0
 348 -141 396 -122 410 -86 c 1
 265 -86 l 1
 265 -23 l 1
 407 -23 l 1
 391 7 352 21 299 21 c 2
 216 21 l 2
 122 21 80 63 80 116 c 0xf8c0
 80 150 100 184 138 209 c 1
 77 241 49 287 49 355 c 0
 49 463 136 539 252 539 c 0
 383 536 431 558 493 586 c 1xf940
 520 503 l 1
 476 489 426 487 366 487 c 1
 428 459 459 415 459 354 c 0
 459 250 384 175 258 175 c 0
 234 175 213 178 191 185 c 1
 176 174 165 155 165 136 c 0
 165 112 180 93 234 93 c 2xf4c0
 318 93 l 2
 413 93 480 45 495 -23 c 1
 548 -23 l 1xf940
252 473 m 0xf940
 181 473 143 424 143 355 c 0
 143 285 182 236 254 236 c 0
 326 236 365 280 365 356 c 0
 365 433 327 473 252 473 c 0xf940
EndSplineSet
EndChar
StartChar: uni01E8
Encoding: 488 488 1370
Width: 589
Flags: W
HStem: 0 21G<100 195 100 100 472 472 472 589> 669 20G<100 195 195 195 462 570 570 570>
VStem: 100 95<0 689 0 689>
LayerCount: 2
Fore
SplineSet
455 909 m 1
 494 864 l 1
 359 754 l 1
 298 754 l 1
 162 864 l 1
 202 909 l 1
 328 828 l 1
 455 909 l 1
195 689 m 1
 195 0 l 1
 100 0 l 1
 100 689 l 1
 195 689 l 1
570 689 m 1
 309 374 l 1
 589 0 l 1
 472 0 l 1
 200 368 l 1
 462 689 l 1
 570 689 l 1
EndSplineSet
EndChar
StartChar: uni01E9
Encoding: 489 489 424
Width: 509
Flags: W
HStem: 0 21G<92 184 92 92 399 399 399 509> 507 20G<384 487 487 487> 719 20G<92 92> 730 20G<184 184>
VStem: 92 92<0 739 739 739>
LayerCount: 2
Fore
SplineSet
404 959 m 1xd8
 443 914 l 1
 308 804 l 1
 247 804 l 1
 111 914 l 1
 151 959 l 1
 277 878 l 1
 404 959 l 1xd8
184 750 m 1
 184 0 l 1
 92 0 l 1
 92 739 l 1xe8
 184 750 l 1
487 527 m 1
 293 294 l 1
 509 0 l 1
 399 0 l 1
 190 288 l 1
 384 527 l 1
 487 527 l 1
EndSplineSet
EndChar
StartChar: uni01EA
Encoding: 490 490 1372
Width: 692
Flags: W
HStem: -232 70<347.5 370> -10 76 623 78<288.5 405>
VStem: 55 101<243.5 442.5 243.5 456.5> 232 80<-129 -106.5> 536 101<251 443>
LayerCount: 2
Fore
SplineSet
637 344 m 0
 637 158 558 38 435 1 c 1
 435 0 l 1
 333 -44 312 -78 312 -114 c 0
 312 -144 327 -162 368 -162 c 0
 389 -162 405 -160 429 -155 c 1
 420 -225 l 1
 400 -229 383 -232 357 -232 c 0
 280 -232 232 -189 232 -131 c 0
 232 -82 258 -43 314 -10 c 1
 159 4 55 127 55 343 c 0
 55 570 174 701 346 701 c 0
 519 701 637 576 637 344 c 0
346 66 m 0
 462 66 536 144 536 344 c 0
 536 542 464 623 346 623 c 0
 231 623 156 542 156 343 c 0
 156 144 234 66 346 66 c 0
EndSplineSet
EndChar
StartChar: uni01EB
Encoding: 491 491 426
Width: 584
Flags: W
HStem: -232 70<281.5 304> -9 21G 465 74<249 336.5>
VStem: 57 99<194.5 332 194.5 344.5> 166 80<-129 -106> 428 99<197 332.5>
LayerCount: 2
Fore
SplineSet
365 -2 m 1
 266 -45 246 -78 246 -114 c 0
 246 -144 261 -162 302 -162 c 0
 323 -162 339 -160 363 -155 c 1
 354 -225 l 1
 334 -229 317 -232 291 -232 c 0
 214 -232 166 -189 166 -131 c 0xfc
 166 -81 193 -41 250 -9 c 1
 126 9 57 112 57 263 c 0xf4
 57 426 143 539 293 539 c 0
 443 539 527 431 527 264 c 0
 527 130 469 29 365 -2 c 1
156 263 m 0xf4
 156 126 204 62 292 62 c 0
 380 62 428 126 428 264 c 0
 428 401 380 465 293 465 c 0
 205 465 156 401 156 263 c 0xf4
EndSplineSet
EndChar
StartChar: uni01EE
Encoding: 494 494 1376
Width: 516
Flags: W
HStem: -12 78<188.5 272 188.5 302> 328 69<127 235> 611 78<41 335 41 447>
VStem: 372 99<158.5 246>
LayerCount: 2
Fore
SplineSet
275 754 m 1
 214 754 l 1
 78 864 l 1
 118 909 l 1
 244 828 l 1
 371 909 l 1
 410 864 l 1
 275 754 l 1
235 397 m 2
 394 397 471 322 471 198 c 0
 471 75 378 -12 226 -12 c 0
 129 -12 62 17 10 78 c 1
 65 132 l 1
 108 86 154 66 223 66 c 0
 321 66 372 117 372 200 c 0
 372 292 322 328 215 328 c 2
 127 328 l 1
 127 395 l 1
 335 611 l 1
 41 611 l 1
 41 689 l 1
 447 689 l 1
 447 612 l 1
 234 397 l 1
 235 397 l 2
EndSplineSet
EndChar
StartChar: uni01F0
Encoding: 496 496 1378
Width: 277
Flags: W
HStem: -212 21G<18 18> 507 20G<93 185 185 185> 627 74<140 140 140 171 110 140> 681 20G<140 140> 720 20G<-26 -26 306 306>
VStem: 93 92<26 32 32 527>
LayerCount: 2
Fore
SplineSet
267 785 m 1xdc
 306 740 l 1
 171 627 l 1
 110 627 l 1xec
 -26 740 l 1
 14 785 l 1
 140 701 l 1
 267 785 l 1xdc
185 527 m 1
 185 32 l 2
 185 -117 130 -162 18 -212 c 1
 -9 -145 l 1
 60 -113 93 -87 93 26 c 2
 93 527 l 1
 185 527 l 1
EndSplineSet
EndChar
StartChar: uni01F1
Encoding: 497 497 432
Width: 1141
Flags: W
HStem: 0 75<195 265> 0 81<755 1085> 609 80<685 993> 613 76<195 244 244 265 195 195>
VStem: 100 95<75 613 75 689 75 689> 488 101<234.5 464.5>
LayerCount: 2
Fore
SplineSet
244 689 m 2x6c
 420 689 589 634 589 348 c 0
 589 67 414 0 265 0 c 2
 100 0 l 1
 100 689 l 1
 244 689 l 2x6c
1096 689 m 1
 1096 612 l 1
 755 81 l 1
 1096 81 l 1
 1085 0 l 1
 649 0 l 1
 649 76 l 1
 993 609 l 1
 685 609 l 1
 685 689 l 1
 1096 689 l 1
265 613 m 2x9c
 195 613 l 1
 195 75 l 1
 272 75 l 2
 380 75 488 121 488 348 c 0
 488 581 375 613 265 613 c 2x9c
EndSplineSet
EndChar
StartChar: uni01F2
Encoding: 498 498 433
Width: 1071
Flags: W
HStem: 0 77<768 1035> 449 78<687 938 687 1043> 613 76<195 244 244 265 195 195>
VStem: 100 95<75 613 75 689 75 689> 488 101<234.5 464.5>
LayerCount: 2
Fore
SplineSet
244 689 m 2
 420 689 589 634 589 348 c 0
 589 67 414 0 265 0 c 2
 100 0 l 1
 100 689 l 1
 244 689 l 2
265 613 m 2
 195 613 l 1
 195 75 l 1
 272 75 l 2
 380 75 488 121 488 348 c 0
 488 581 375 613 265 613 c 2
1043 527 m 1
 1043 457 l 1
 768 77 l 1
 1046 77 l 1
 1035 0 l 1
 664 0 l 1
 664 69 l 1
 938 449 l 1
 687 449 l 1
 687 527 l 1
 1043 527 l 1
EndSplineSet
EndChar
StartChar: uni01F3
Encoding: 499 499 1381
Width: 1022
Flags: W
HStem: -12 73<238 288.5> 0 77<719 986> 449 78<638 889 638 994> 466 73<244.5 295 199.5 310> 719 20G<498 498> 730 20G<406 406>
VStem: 57 99<193.5 331.5 193.5 341.5> 406 92<139 397 397 397 474 739 0 750 0 750>
LayerCount: 2
Fore
SplineSet
406 474 m 1x97
 406 750 l 1x67
 498 739 l 1
 498 0 l 1
 417 0 l 1x6b
 408 73 l 1
 374 20 321 -12 256 -12 c 0
 128 -12 57 97 57 261 c 0
 57 422 135 539 264 539 c 0
 326 539 371 511 406 474 c 1x97
719 77 m 1
 997 77 l 1
 986 0 l 1
 615 0 l 1
 615 69 l 1
 889 449 l 1
 638 449 l 1
 638 527 l 1
 994 527 l 1
 994 457 l 1
 719 77 l 1
276 61 m 0x97
 335 61 371 90 406 139 c 1
 406 397 l 1
 373 439 336 466 284 466 c 0
 205 466 156 400 156 263 c 0
 156 124 200 61 276 61 c 0x97
EndSplineSet
EndChar
StartChar: uni01F6
Encoding: 502 502 437
Width: 969
Flags: W
HStem: -12 74<642 700.5 642 723> 0 21G<100 195 100 100> 323 78<195 485 195 485> 507 20G<780 873 873 873> 669 20G<100 195 195 195 485 580 580 580>
VStem: 100 95<0 323 0 401 401 689> 485 95<163 171 171 323 323 323 401 689> 806 93<184.5 300.5>
LayerCount: 2
Fore
SplineSet
873 527 m 1xbf
 889 440 899 358 899 255 c 0
 899 66 779 -12 667 -12 c 0xbf
 569 -12 485 50 485 163 c 2
 485 323 l 1
 195 323 l 1
 195 0 l 1
 100 0 l 1x7f
 100 689 l 1
 195 689 l 1
 195 401 l 1
 485 401 l 1
 485 689 l 1
 580 689 l 1
 580 171 l 2
 580 97 613 62 671 62 c 0
 730 62 806 106 806 263 c 0
 806 338 799 428 780 527 c 1
 873 527 l 1xbf
EndSplineSet
EndChar
StartChar: uni01F7
Encoding: 503 503 438
Width: 589
Flags: W
HStem: 0 21G<100 195 100 100> 623 78<322.5 371.5> 669 20G<100 195 195 195>
VStem: 100 95<0 201 0 279 279 563 637 689> 448 101<460.5 548.5>
LayerCount: 2
Fore
SplineSet
355 701 m 0xd8
 459 701 549 634 549 510 c 0
 549 360 424 290 282 235 c 2
 195 201 l 1
 195 0 l 1
 100 0 l 1
 100 689 l 1
 195 689 l 1xb8
 195 637 l 1
 238 678 290 701 355 701 c 0xd8
278 313 m 2
 372 351 448 410 448 511 c 0
 448 586 406 623 337 623 c 0
 283 623 235 604 195 563 c 1
 195 279 l 1
 278 313 l 2
EndSplineSet
EndChar
StartChar: uni01FA
Encoding: 506 506 441
Width: 573
Flags: W
HStem: 0 21G<6 102 6 6 467 567 467 467> 173 77<177 392 177 415 154 392> 610 79<285 285> 669 20G<227 347 347 347> 730 50<269.5 302 269.5 319.5> 892 50<269.5 302.5>
VStem: 172 61<818.5 853.5 818.5 865.5> 339 61<818.5 853.5>
LayerCount: 2
Fore
SplineSet
408 1027 m 1xdf
 192 948 l 1
 168 997 l 1
 368 1104 l 1
 408 1027 l 1xdf
172 836 m 0
 172 895 219 942 286 942 c 0
 353 942 400 895 400 836 c 0
 400 777 353 730 286 730 c 0
 219 730 172 777 172 836 c 0
339 836 m 0
 339 871 319 892 286 892 c 0
 253 892 233 871 233 836 c 0
 233 801 253 780 286 780 c 0
 318 780 339 801 339 836 c 0
467 0 m 1
 415 173 l 1
 154 173 l 1
 102 0 l 1
 6 0 l 1
 227 689 l 1
 347 689 l 1
 567 0 l 1
 467 0 l 1
177 250 m 1
 392 250 l 1
 285 610 l 1xef
 177 250 l 1
EndSplineSet
EndChar
StartChar: aringacute
Encoding: 507 507 1389
Width: 544
Flags: W
HStem: -12 69<204 245> 260 61<277 289 289 358> 464 75<235.5 284.5> 584 50<244.5 277 244.5 294.5> 746 50<244.5 277.5>
VStem: 45 98<121 188 121 203.5> 147 61<672.5 707.5 672.5 719.5> 314 61<672.5 707.5> 358 92<139 260 260 260 321 360 360 364>
LayerCount: 2
Fore
SplineSet
381 881 m 1xfc80
 165 802 l 1
 141 851 l 1
 341 958 l 1
 381 881 l 1xfc80
147 690 m 0xfb
 147 749 194 796 261 796 c 0
 328 796 375 749 375 690 c 0
 375 631 328 584 261 584 c 0
 194 584 147 631 147 690 c 0xfb
314 690 m 0
 314 725 294 746 261 746 c 0
 228 746 208 725 208 690 c 0
 208 655 228 634 261 634 c 0
 293 634 314 655 314 690 c 0
450 123 m 2xfc80
 450 77 467 62 494 52 c 1
 473 -12 l 1
 420 -6 386 15 370 67 c 1
 333 12 277 -12 213 -12 c 0
 108 -12 45 53 45 147 c 0
 45 260 130 321 277 321 c 2
 358 321 l 1
 358 360 l 2
 358 436 321 464 248 464 c 0
 209 464 160 454 106 436 c 1
 83 503 l 1
 148 527 206 539 265 539 c 0
 392 539 450 474 450 364 c 2
 450 123 l 2xfc80
234 57 m 0
 288 57 328 84 358 139 c 1
 358 260 l 1
 289 260 l 2
 192 260 143 224 143 152 c 0
 143 90 174 57 234 57 c 0
EndSplineSet
EndChar
StartChar: AEacute
Encoding: 508 508 1390
Width: 816
Flags: W
HStem: 0 76<535 762 535 762> 173 77<179 400 179 418 150 400> 311 76<476 712 476 476> 613 76<316 316 401 710 401 401>
VStem: -12 774<0 76>
LayerCount: 2
Fore
SplineSet
594 834 m 1
 378 755 l 1
 354 804 l 1
 554 911 l 1
 594 834 l 1
535 76 m 1
 762 76 l 1
 762 0 l 1
 458 0 l 1
 418 173 l 1
 150 173 l 1
 85 0 l 1
 -12 0 l 1
 262 689 l 1
 721 689 l 1
 710 613 l 1
 401 613 l 1
 457 387 l 1
 712 387 l 1
 712 311 l 1
 476 311 l 1
 535 76 l 1
179 250 m 1
 400 250 l 1
 316 613 l 1
 179 250 l 1
EndSplineSet
EndChar
StartChar: uni0200
Encoding: 512 512 447
Width: 573
Flags: W
HStem: 0 21G<6 102 6 6 467 567 467 467> 173 77<177 392 177 415 154 392> 610 79<285 285> 669 20G<227 347 347 347>
VStem: 6 561<0 0>
LayerCount: 2
Fore
SplineSet
251 785 m 1xd8
 193 760 l 1
 87 917 l 1
 165 958 l 1
 251 785 l 1xd8
393 790 m 1
 335 765 l 1
 239 917 l 1
 317 958 l 1
 393 790 l 1
467 0 m 1
 415 173 l 1
 154 173 l 1
 102 0 l 1
 6 0 l 1
 227 689 l 1
 347 689 l 1
 567 0 l 1
 467 0 l 1
177 250 m 1
 392 250 l 1
 285 610 l 1xe8
 177 250 l 1
EndSplineSet
EndChar
StartChar: uni0202
Encoding: 514 514 1396
Width: 573
Flags: W
HStem: 0 21G<6 102 6 6 467 567 467 467> 173 77<177 392 177 415 154 392> 610 79<285 285> 669 20G<227 347 347 347> 852 70<261.5 308.5>
VStem: 6 561<0 0>
LayerCount: 2
Fore
SplineSet
285 852 m 0xdc
 238 852 210 826 196 776 c 1
 135 789 l 1
 143 873 205 922 285 922 c 0
 366 922 430 873 438 789 c 1
 377 776 l 1
 363 826 332 852 285 852 c 0xdc
467 0 m 1
 415 173 l 1
 154 173 l 1
 102 0 l 1
 6 0 l 1
 227 689 l 1
 347 689 l 1
 567 0 l 1
 467 0 l 1
177 250 m 1
 392 250 l 1
 285 610 l 1xec
 177 250 l 1
EndSplineSet
EndChar
StartChar: uni0206
Encoding: 518 518 1400
Width: 535
Flags: W
HStem: 0 76<195 481 195 481> 312 76<195 427 195 427> 613 76<195 462 195 195> 852 70<264.5 311.5>
VStem: 100 95<76 312 388 613>
LayerCount: 2
Fore
SplineSet
288 922 m 0
 369 922 433 873 441 789 c 1
 380 776 l 1
 366 826 335 852 288 852 c 0
 241 852 213 826 199 776 c 1
 138 789 l 1
 146 873 208 922 288 922 c 0
473 689 m 1
 462 613 l 1
 195 613 l 1
 195 388 l 1
 427 388 l 1
 427 312 l 1
 195 312 l 1
 195 76 l 1
 481 76 l 1
 481 0 l 1
 100 0 l 1
 100 689 l 1
 473 689 l 1
EndSplineSet
EndChar
StartChar: uni0208
Encoding: 520 520 1402
Width: 295
Flags: W
HStem: 0 21G<100 195 100 100> 669 20G<100 195 195 195>
VStem: 100 95<0 689 0 689>
LayerCount: 2
Fore
SplineSet
25 958 m 1
 111 785 l 1
 53 760 l 1
 -53 917 l 1
 25 958 l 1
177 958 m 1
 253 790 l 1
 195 765 l 1
 99 917 l 1
 177 958 l 1
195 689 m 1
 195 0 l 1
 100 0 l 1
 100 689 l 1
 195 689 l 1
EndSplineSet
EndChar
StartChar: uni0209
Encoding: 521 521 1403
Width: 276
Flags: W
HStem: 0 21G<92 184 92 92> 507 20G<92 184 184 184>
VStem: 92 92<0 527 0 527>
LayerCount: 2
Fore
SplineSet
23 832 m 1
 109 659 l 1
 51 634 l 1
 -55 791 l 1
 23 832 l 1
175 832 m 1
 251 664 l 1
 193 639 l 1
 97 791 l 1
 175 832 l 1
184 527 m 1
 184 0 l 1
 92 0 l 1
 92 527 l 1
 184 527 l 1
EndSplineSet
EndChar
StartChar: uni020D
Encoding: 525 525 1407
Width: 584
Flags: W
HStem: -12 74<248 336 248 366.5> 465 74<249 336.5>
VStem: 57 99<194.5 332 194.5 344.5> 428 99<195 332.5>
LayerCount: 2
Fore
SplineSet
177 832 m 1
 263 659 l 1
 205 634 l 1
 99 791 l 1
 177 832 l 1
329 832 m 1
 405 664 l 1
 347 639 l 1
 251 791 l 1
 329 832 l 1
293 539 m 0
 443 539 527 431 527 264 c 0
 527 101 441 -12 292 -12 c 0
 142 -12 57 96 57 263 c 0
 57 426 143 539 293 539 c 0
293 465 m 0
 205 465 156 401 156 263 c 0
 156 126 204 62 292 62 c 0
 380 62 428 126 428 264 c 0
 428 401 380 465 293 465 c 0
EndSplineSet
EndChar
StartChar: uni0210
Encoding: 528 528 1410
Width: 605
Flags: W
HStem: 0 21G<100 195 100 100 467 580 467 467> 292 73<195 291 291 302 195 291> 615 74<195 280 195 195>
VStem: 100 95<0 292 365 615> 442 101<447.5 537>
LayerCount: 2
Fore
SplineSet
263 785 m 1
 205 760 l 1
 99 917 l 1
 177 958 l 1
 263 785 l 1
405 790 m 1
 347 765 l 1
 251 917 l 1
 329 958 l 1
 405 790 l 1
467 0 m 1
 302 292 l 1
 195 292 l 1
 195 0 l 1
 100 0 l 1
 100 689 l 1
 281 689 l 2
 453 689 543 623 543 494 c 0
 543 397 493 339 394 309 c 1
 580 0 l 1
 467 0 l 1
195 365 m 1
 291 365 l 2
 387 365 442 401 442 494 c 0
 442 580 393 615 280 615 c 2
 195 615 l 1
 195 365 l 1
EndSplineSet
EndChar
StartChar: uni0213
Encoding: 531 531 1413
Width: 383
Flags: W
HStem: 0 21G<92 184 92 92> 449 90<289 319.5> 507 20G<92 171 171 171> 513 20G<373 373> 690 70<209.5 256.5>
VStem: 92 92<0 301 0 527>
LayerCount: 2
Fore
SplineSet
233 690 m 0xcc
 186 690 158 664 144 614 c 1
 83 627 l 1
 91 711 153 760 233 760 c 0
 314 760 378 711 386 627 c 1
 325 614 l 1
 311 664 280 690 233 690 c 0xcc
180 420 m 1
 208 499 257 539 321 539 c 0xcc
 338 539 357 537 373 533 c 1x9c
 356 443 l 1
 340 447 329 449 310 449 c 0xcc
 244 449 206 402 184 301 c 1
 184 0 l 1
 92 0 l 1
 92 527 l 1
 171 527 l 1xac
 180 420 l 1
EndSplineSet
EndChar
StartChar: uni0214
Encoding: 532 532 1414
Width: 662
Flags: W
HStem: -12 80<281 379.5 281 407.5> 669 20G<90 185 185 185 476 572 572 572>
VStem: 90 95<221 228 228 689> 476 96<228 689>
LayerCount: 2
Fore
SplineSet
209 958 m 1
 295 785 l 1
 237 760 l 1
 131 917 l 1
 209 958 l 1
361 958 m 1
 437 790 l 1
 379 765 l 1
 283 917 l 1
 361 958 l 1
572 689 m 1
 572 221 l 2
 572 84 485 -12 330 -12 c 0
 173 -12 90 84 90 221 c 2
 90 689 l 1
 185 689 l 1
 185 228 l 2
 185 121 232 68 330 68 c 0
 429 68 476 121 476 228 c 2
 476 689 l 1
 572 689 l 1
EndSplineSet
EndChar
StartChar: uni0217
Encoding: 535 535 470
Width: 575
Flags: W
HStem: -12 72<230.5 270.5> 0 21G<404 483 404 404> 507 20G<86 178 178 178 391 483 483 483> 690 70<259.5 306.5>
VStem: 86 92<149 159 159 527> 391 92<151 527 0 527>
LayerCount: 2
Fore
SplineSet
283 760 m 0xbc
 364 760 428 711 436 627 c 1
 375 614 l 1
 361 664 330 690 283 690 c 0
 236 690 208 664 194 614 c 1
 133 627 l 1
 141 711 203 760 283 760 c 0xbc
483 527 m 1
 483 0 l 1
 404 0 l 1x7c
 397 82 l 1
 357 18 308 -12 233 -12 c 0
 141 -12 86 46 86 149 c 2
 86 527 l 1
 178 527 l 1
 178 159 l 2
 178 87 202 60 259 60 c 0
 316 60 359 98 391 151 c 1
 391 527 l 1
 483 527 l 1
EndSplineSet
EndChar
StartChar: uni021A
Encoding: 538 538 1420
Width: 517
Flags: W
HStem: 0 21G<211 306 211 211> 608 81<15 211 15 507 306 497 306 306>
VStem: 204 115<-141.5 -117 -141.5 -117> 211 95<0 608 0 608>
LayerCount: 2
Fore
SplineSet
507 689 m 1xd0
 497 608 l 1
 306 608 l 1
 306 0 l 1
 211 0 l 1
 211 608 l 1
 15 608 l 1
 15 689 l 1
 507 689 l 1xd0
262 -77 m 0xe0
 294 -77 319 -101 319 -133 c 0
 319 -150 314 -166 293 -210 c 2
 252 -296 l 1
 199 -296 l 1
 228 -180 l 1
 214 -168 204 -152 204 -133 c 0
 204 -101 230 -77 262 -77 c 0xe0
EndSplineSet
EndChar
StartChar: uni021B
Encoding: 539 539 1421
Width: 361
Flags: W
HStem: -12 76<233 265.5> 456 71<9 101 9 101 193 308>
VStem: 101 92<138 142 142 456 527 646 646 646> 179 115<-141.5 -117 -141.5 -117>
LayerCount: 2
Fore
SplineSet
361 24 m 1xe0
 326 0 288 -12 243 -12 c 0
 154 -12 101 40 101 138 c 2
 101 456 l 1
 9 456 l 1
 9 527 l 1
 101 527 l 1
 101 646 l 1
 193 657 l 1
 193 527 l 1
 318 527 l 1
 308 456 l 1
 193 456 l 1
 193 142 l 2
 193 89 210 64 256 64 c 0
 279 64 300 71 326 85 c 1
 361 24 l 1xe0
237 -77 m 0xd0
 269 -77 294 -101 294 -133 c 0
 294 -150 289 -166 268 -210 c 2
 227 -296 l 1
 174 -296 l 1
 203 -180 l 1
 189 -168 179 -152 179 -133 c 0
 179 -101 205 -77 237 -77 c 0xd0
EndSplineSet
EndChar
StartChar: uni021C
Encoding: 540 540 1422
Width: 504
Flags: W
HStem: 315 78<152 205 139 206> 623 78<191.5 261.5>
VStem: 337 99<474 543.5> 357 102<150 236.5>
LayerCount: 2
Fore
SplineSet
228 701 m 0xe0
 367 701 436 621 436 519 c 0xe0
 436 427 381 377 301 359 c 1
 385 350 459 302 459 196 c 0
 459 62 345 -52 67 -102 c 1
 58 -22 l 1
 293 28 357 103 357 197 c 0xd0
 357 276 306 315 205 315 c 2
 139 315 l 1
 152 393 l 1
 206 393 l 2
 285 393 337 436 337 512 c 0
 337 575 303 623 220 623 c 0
 163 623 111 601 60 559 c 1
 10 616 l 1
 73 672 144 701 228 701 c 0xe0
EndSplineSet
EndChar
StartChar: uni021F
Encoding: 543 543 478
Width: 579
Flags: W
HStem: 0 21G<92 184 92 92 401 493 401 401> 467 72<307 342> 728 20G<184 184>
VStem: 92 92<0 375 0 454 454 738 738 738> 401 92<0 365 365 378 0 404.5>
LayerCount: 2
Fore
SplineSet
320 804 m 1
 259 804 l 1
 123 914 l 1
 163 959 l 1
 289 878 l 1
 416 959 l 1
 455 914 l 1
 320 804 l 1
340 539 m 0
 436 539 493 477 493 378 c 2
 493 0 l 1
 401 0 l 1
 401 365 l 2
 401 444 367 467 317 467 c 0
 260 467 219 430 184 375 c 1
 184 0 l 1
 92 0 l 1
 92 738 l 1
 184 748 l 1
 184 454 l 1
 222 506 274 539 340 539 c 0
EndSplineSet
EndChar
StartChar: uni0220
Encoding: 544 544 1426
Width: 672
Flags: W
HStem: -202 21G<484 579 484 484> 0 21G<100 195 100 100> 623 78<350 413> 669 20G<100 182 182 182>
VStem: 100 95<0 530 0 689> 484 95<-202 488 488 507 -202 532.5>
LayerCount: 2
Fore
SplineSet
394 701 m 0xec
 522 701 579 617 579 507 c 2
 579 -202 l 1
 484 -202 l 1
 484 488 l 2
 484 577 452 623 374 623 c 0
 295 623 250 586 195 530 c 1xec
 195 0 l 1
 100 0 l 1
 100 689 l 1
 182 689 l 1xdc
 190 606 l 1
 244 663 306 701 394 701 c 0xec
EndSplineSet
EndChar
StartChar: uni0222
Encoding: 546 546 1428
Width: 652
Flags: W
HStem: -12 78<270 384 270 412.5> 343 78<278 376.5 278 385> 669 20G<100 195 195 195 459 555 555 555>
VStem: 55 101<161 248.5> 100 95<546 551 551 689> 459 96<551 689> 496 101<161.5 251>
LayerCount: 2
Fore
SplineSet
462 390 m 1xec
 550 359 597 294 597 209 c 0
 597 96 499 -12 326 -12 c 0
 154 -12 55 92 55 208 c 0xf2
 55 289 103 355 189 388 c 1
 128 422 100 478 100 546 c 2
 100 689 l 1
 195 689 l 1
 195 551 l 2
 195 474 229 421 327 421 c 0
 426 421 459 484 459 551 c 2
 459 689 l 1
 555 689 l 1
 555 546 l 2
 555 479 522 424 462 390 c 1xec
326 66 m 0xf2
 442 66 496 114 496 209 c 0
 496 293 444 343 326 343 c 0
 211 343 156 293 156 208 c 0
 156 114 214 66 326 66 c 0xf2
EndSplineSet
EndChar
StartChar: uni0223
Encoding: 547 547 1429
Width: 578
Flags: W
HStem: -12 74<246.5 333.5 246.5 362> 366 71<254.5 326 254.5 334.5> 719 20G<95 187 187 187 393 485 485 485>
VStem: 57 99<161 261> 95 92<547 739> 393 92<547 739> 422 99<161.5 264 154.5 264.5>
LayerCount: 2
Fore
SplineSet
395 408 m 1xec
 476 379 521 313 521 215 c 0
 521 94 435 -12 289 -12 c 0
 144 -12 57 90 57 214 c 0xf2
 57 308 103 376 183 406 c 1
 124 436 95 487 95 547 c 2
 95 739 l 1
 187 739 l 1
 187 547 l 2
 187 480 219 437 290 437 c 0
 362 437 393 480 393 547 c 2
 393 739 l 1
 485 739 l 1
 485 547 l 2
 485 487 451 437 395 408 c 1xec
289 62 m 0xf2
 378 62 422 108 422 215 c 0
 422 314 380 366 289 366 c 0
 201 366 156 314 156 214 c 0
 156 108 204 62 289 62 c 0xf2
EndSplineSet
EndChar
StartChar: uni0224
Encoding: 548 548 483
Width: 522
Flags: W
HStem: -213 76<299.5 337 299.5 366> 0 81<136 379> 609 80<66 374 66 477>
VStem: 379 92<-63 -57 -57 0 0 0>
LayerCount: 2
Fore
SplineSet
477 689 m 1
 477 612 l 1
 136 81 l 1
 471 81 l 1
 471 -57 l 2
 471 -161 412 -213 320 -213 c 0
 267 -213 230 -194 205 -175 c 1
 241 -114 l 1
 264 -128 282 -137 317 -137 c 0
 357 -137 379 -114 379 -63 c 2
 379 0 l 1
 30 0 l 1
 30 76 l 1
 374 609 l 1
 66 609 l 1
 66 689 l 1
 477 689 l 1
EndSplineSet
EndChar
StartChar: uni0225
Encoding: 549 549 1431
Width: 429
Flags: W
HStem: -213 74<229.5 267 229.5 296.5> 0 77<129 313> 449 78<48 299 48 404>
VStem: 313 89<-65 -57 -57 0 0 0>
LayerCount: 2
Fore
SplineSet
404 527 m 1
 404 457 l 1
 129 77 l 1
 402 77 l 1
 402 -57 l 2
 402 -160 342 -213 251 -213 c 0
 198 -213 161 -194 136 -175 c 1
 172 -117 l 1
 195 -130 213 -139 246 -139 c 0
 288 -139 313 -118 313 -65 c 2
 313 0 l 1
 25 0 l 1
 25 69 l 1
 299 449 l 1
 48 449 l 1
 48 527 l 1
 404 527 l 1
EndSplineSet
EndChar
StartChar: uni0226
Encoding: 550 550 1432
Width: 573
Flags: W
HStem: 0 21G<6 102 6 6 467 567 467 467> 173 77<177 392 177 415 154 392> 610 79<285 285> 669 20G<227 347 347 347> 781 125<267 305.5>
VStem: 222 129<825.5 861>
LayerCount: 2
Fore
SplineSet
286 781 m 0xdc
 248 781 222 808 222 843 c 0
 222 879 248 906 286 906 c 0
 325 906 351 879 351 843 c 0
 351 808 325 781 286 781 c 0xdc
467 0 m 1
 415 173 l 1
 154 173 l 1
 102 0 l 1
 6 0 l 1
 227 689 l 1
 347 689 l 1
 567 0 l 1
 467 0 l 1
177 250 m 1
 392 250 l 1
 285 610 l 1xec
 177 250 l 1
EndSplineSet
EndChar
StartChar: uni0228
Encoding: 552 552 1434
Width: 535
Flags: W
HStem: -241 60<274 301 274 324> -99 43<248 321> 0 76<195 260 321 481 321 321> 312 76<195 427 195 427> 613 76<195 462 195 195>
VStem: 100 95<76 312 388 613> 254 67 337 77<-155.5 -127.5>
LayerCount: 2
Fore
SplineSet
481 0 m 1
 321 0 l 1
 321 -56 l 1xfe
 389 -62 414 -100 414 -141 c 0
 414 -207 358 -241 290 -241 c 0
 252 -241 219 -232 199 -217 c 1
 224 -165 l 1
 243 -175 261 -181 287 -181 c 0
 315 -181 337 -170 337 -141 c 0xff
 337 -114 312 -99 248 -99 c 1
 260 0 l 1
 100 0 l 1
 100 689 l 1
 473 689 l 1
 462 613 l 1
 195 613 l 1
 195 388 l 1
 427 388 l 1
 427 312 l 1
 195 312 l 1
 195 76 l 1
 481 76 l 1
 481 0 l 1
EndSplineSet
EndChar
StartChar: uni022A
Encoding: 554 554 1436
Width: 692
Flags: W
HStem: -12 78<290 404 290 432.5> 623 78<288.5 405> 746 114<224.5 257 434 466.5> 903 69<211 484 211 484>
VStem: 55 101<243.5 442.5 243.5 456.5> 183 115<787 819> 211 273<903 972 903 972> 393 115<787 819> 536 101<244 443>
LayerCount: 2
Fore
SplineSet
484 903 m 1xda80
 211 903 l 1
 211 972 l 1
 484 972 l 1
 484 903 l 1xda80
241 860 m 0xfd80
 273 860 298 835 298 803 c 0
 298 771 273 746 241 746 c 0
 208 746 183 771 183 803 c 0
 183 835 208 860 241 860 c 0xfd80
450 860 m 0
 483 860 508 835 508 803 c 0
 508 771 483 746 450 746 c 0
 418 746 393 771 393 803 c 0
 393 835 418 860 450 860 c 0
346 701 m 0xda80
 519 701 637 576 637 344 c 0
 637 116 519 -12 346 -12 c 0
 174 -12 55 112 55 343 c 0
 55 570 174 701 346 701 c 0xda80
346 623 m 0
 231 623 156 542 156 343 c 0
 156 144 234 66 346 66 c 0
 462 66 536 144 536 344 c 0
 536 542 464 623 346 623 c 0
EndSplineSet
EndChar
StartChar: uni022B
Encoding: 555 555 1437
Width: 584
Flags: W
HStem: -12 74<248 336 248 366.5> 465 74<249 336.5> 624 114<170.5 203 380 412.5> 791 69<155 428 155 428>
VStem: 57 99<194.5 332 194.5 344.5> 129 115<665 697> 155 273<791 860> 339 115<665 697> 428 99<195 332.5>
LayerCount: 2
Fore
SplineSet
428 791 m 1xd2
 155 791 l 1
 155 860 l 1
 428 860 l 1
 428 791 l 1xd2
187 738 m 0xf5
 219 738 244 713 244 681 c 0
 244 649 219 624 187 624 c 0
 154 624 129 649 129 681 c 0
 129 713 154 738 187 738 c 0xf5
396 738 m 0
 429 738 454 713 454 681 c 0
 454 649 429 624 396 624 c 0
 364 624 339 649 339 681 c 0
 339 713 364 738 396 738 c 0
293 539 m 0xd880
 443 539 527 431 527 264 c 0
 527 101 441 -12 292 -12 c 0
 142 -12 57 96 57 263 c 0
 57 426 143 539 293 539 c 0xd880
293 465 m 0
 205 465 156 401 156 263 c 0
 156 126 204 62 292 62 c 0
 380 62 428 126 428 264 c 0
 428 401 380 465 293 465 c 0
EndSplineSet
EndChar
StartChar: uni022C
Encoding: 556 556 1438
Width: 692
Flags: W
HStem: -12 78<290 404 290 432.5> 623 78<288.5 405> 758 70<385.5 414 385.5 426.5> 806 70<276.5 306> 911 69<209 482 209 482>
VStem: 55 101<243.5 442.5 243.5 456.5> 209 273<911 980 911 980> 536 101<244 443>
LayerCount: 2
Fore
SplineSet
482 911 m 1xef
 209 911 l 1
 209 980 l 1
 482 980 l 1
 482 911 l 1xef
404 758 m 0
 351 758 324 806 288 806 c 0
 265 806 251 790 235 760 c 1
 179 788 l 1
 202 837 238 876 288 876 c 0xdf
 344 876 367 828 404 828 c 0
 424 828 439 842 457 872 c 1
 513 844 l 1
 487 787 449 758 404 758 c 0
346 701 m 0
 519 701 637 576 637 344 c 0
 637 116 519 -12 346 -12 c 0
 174 -12 55 112 55 343 c 0
 55 570 174 701 346 701 c 0
346 623 m 0
 231 623 156 542 156 343 c 0
 156 144 234 66 346 66 c 0
 462 66 536 144 536 344 c 0
 536 542 464 623 346 623 c 0
EndSplineSet
EndChar
StartChar: uni022D
Encoding: 557 557 1439
Width: 584
Flags: W
HStem: -12 74<248 336 248 366.5> 465 74<249 336.5> 596 70<331.5 360 331.5 372.5> 644 70<222.5 252> 749 69<155 428 155 428>
VStem: 57 99<194.5 332 194.5 344.5> 155 273<749 818> 428 99<195 332.5>
LayerCount: 2
Fore
SplineSet
428 749 m 1xea
 155 749 l 1
 155 818 l 1
 428 818 l 1
 428 749 l 1xea
350 596 m 0
 297 596 270 644 234 644 c 0
 211 644 197 628 181 598 c 1
 125 626 l 1
 148 675 184 714 234 714 c 0xda
 290 714 313 666 350 666 c 0
 370 666 385 680 403 710 c 1
 459 682 l 1
 433 625 395 596 350 596 c 0
293 539 m 0xcd
 443 539 527 431 527 264 c 0
 527 101 441 -12 292 -12 c 0
 142 -12 57 96 57 263 c 0
 57 426 143 539 293 539 c 0xcd
293 465 m 0
 205 465 156 401 156 263 c 0
 156 126 204 62 292 62 c 0
 380 62 428 126 428 264 c 0
 428 401 380 465 293 465 c 0
EndSplineSet
EndChar
StartChar: uni022E
Encoding: 558 558 1440
Width: 692
Flags: W
HStem: -12 78<290 404 290 432.5> 623 78<288.5 405> 781 125<326 364.5>
VStem: 55 101<243.5 442.5 243.5 456.5> 281 129<825.5 861> 536 101<244 443>
LayerCount: 2
Fore
SplineSet
345 906 m 0
 384 906 410 879 410 843 c 0
 410 808 384 781 345 781 c 0
 307 781 281 808 281 843 c 0
 281 879 307 906 345 906 c 0
346 701 m 0
 519 701 637 576 637 344 c 0
 637 116 519 -12 346 -12 c 0
 174 -12 55 112 55 343 c 0
 55 570 174 701 346 701 c 0
346 623 m 0
 231 623 156 542 156 343 c 0
 156 144 234 66 346 66 c 0
 462 66 536 144 536 344 c 0
 536 542 464 623 346 623 c 0
EndSplineSet
EndChar
StartChar: uni022F
Encoding: 559 559 1441
Width: 584
Flags: W
HStem: -12 74<248 336 248 366.5> 465 74<249 336.5> 655 125<272 310.5>
VStem: 57 99<194.5 332 194.5 344.5> 227 129<699.5 735> 428 99<195 332.5>
LayerCount: 2
Fore
SplineSet
291 780 m 0
 330 780 356 753 356 717 c 0
 356 682 330 655 291 655 c 0
 253 655 227 682 227 717 c 0
 227 753 253 780 291 780 c 0
293 539 m 0
 443 539 527 431 527 264 c 0
 527 101 441 -12 292 -12 c 0
 142 -12 57 96 57 263 c 0
 57 426 143 539 293 539 c 0
293 465 m 0
 205 465 156 401 156 263 c 0
 156 126 204 62 292 62 c 0
 380 62 428 126 428 264 c 0
 428 401 380 465 293 465 c 0
EndSplineSet
EndChar
StartChar: uni0231
Encoding: 561 561 496
Width: 584
Flags: W
HStem: -12 74<248 336 248 366.5> 465 74<249 336.5> 605 125<271 309.5> 768 69<156 429 156 429>
VStem: 57 99<194.5 332 194.5 344.5> 156 273<768 837 768 837> 226 129<649.5 685> 428 99<195 332.5>
LayerCount: 2
Fore
SplineSet
429 768 m 1xd4
 156 768 l 1
 156 837 l 1
 429 837 l 1
 429 768 l 1xd4
290 730 m 0xfb
 329 730 355 703 355 667 c 0
 355 632 329 605 290 605 c 0
 252 605 226 632 226 667 c 0
 226 703 252 730 290 730 c 0xfb
293 539 m 0
 443 539 527 431 527 264 c 0
 527 101 441 -12 292 -12 c 0
 142 -12 57 96 57 263 c 0
 57 426 143 539 293 539 c 0
293 465 m 0
 205 465 156 401 156 263 c 0
 156 126 204 62 292 62 c 0
 380 62 428 126 428 264 c 0
 428 401 380 465 293 465 c 0
EndSplineSet
EndChar
StartChar: uni0232
Encoding: 562 562 1444
Width: 550
Flags: W
HStem: 0 21G<227 323 227 227> 669 20G<5 110 110 110 446 545 545 545> 793 69<138 411 138 411>
VStem: 138 273<793 862 793 862> 227 96<0 264 264 264>
LayerCount: 2
Fore
SplineSet
411 793 m 1xf0
 138 793 l 1
 138 862 l 1
 411 862 l 1
 411 793 l 1xf0
545 689 m 1
 323 265 l 1
 323 0 l 1
 227 0 l 1
 227 264 l 1xe8
 5 689 l 1
 110 689 l 1
 278 348 l 1
 446 689 l 1
 545 689 l 1
EndSplineSet
EndChar
StartChar: uni0234
Encoding: 564 564 1446
Width: 417
Flags: W
HStem: -12 78<260.5 297.5 260.5 316.5> -4 21G<204 204> 157 67<304 332> 719 20G<90 90> 730 20G<182 182>
VStem: 90 92<150 739 739 739> 356 81<103 132.5>
LayerCount: 2
Fore
SplineSet
328 224 m 0xae
 393 224 437 183 437 121 c 0
 437 38 367 -12 266 -12 c 0xae
 246 -12 225 -10 204 -4 c 1
 172 -75 l 1
 113 -50 l 1
 147 23 l 1
 114 48 90 88 90 150 c 2
 90 739 l 1x76
 182 750 l 1
 182 140 l 2
 182 125 183 113 186 103 c 1
 187 106 l 1
 219 182 258 224 328 224 c 0xae
266 66 m 0
 329 66 356 85 356 121 c 0
 356 144 344 157 320 157 c 0
 288 157 269 137 237 67 c 1
 245 66 255 66 266 66 c 0
EndSplineSet
EndChar
StartChar: uni0235
Encoding: 565 565 500
Width: 728
Flags: W
HStem: -12 78<571.5 608.5 571.5 627.5> -4 21G<515 515> 0 21G<92 184 92 92> 157 67<615 643> 467 72<305.5 343.5> 507 20G<92 171 171 171>
VStem: 92 92<0 374 0 527> 401 92<150 365 365 378> 667 81<103 132.5>
LayerCount: 2
Fore
SplineSet
639 224 m 0x9b80
 704 224 748 183 748 121 c 0
 748 38 678 -12 577 -12 c 0x9b80
 557 -12 536 -10 515 -4 c 1
 483 -75 l 1
 424 -50 l 1
 458 23 l 1
 425 48 401 88 401 150 c 2
 401 365 l 2
 401 444 369 467 318 467 c 0
 259 467 219 430 184 374 c 1x5b80
 184 0 l 1
 92 0 l 1
 92 527 l 1
 171 527 l 1x3780
 179 449 l 1
 215 503 271 539 340 539 c 0
 437 539 493 478 493 378 c 2
 493 140 l 2
 493 125 494 113 497 103 c 1
 498 106 l 1
 530 182 569 224 639 224 c 0x9b80
577 66 m 0
 640 66 667 85 667 121 c 0
 667 144 655 157 631 157 c 0
 599 157 580 137 548 67 c 1
 556 66 566 66 577 66 c 0
EndSplineSet
EndChar
StartChar: uni0236
Encoding: 566 566 501
Width: 428
Flags: W
HStem: -12 78<271.5 308.5 271.5 327.5> -5 21G<214 214> 157 67<315 343> 456 71<9 101 9 101 193 308>
VStem: 101 92<150 456 527 646 646 646> 367 81<103 132.5>
LayerCount: 2
Fore
SplineSet
339 224 m 0xbc
 404 224 448 183 448 121 c 0
 448 38 378 -12 277 -12 c 0xbc
 257 -12 235 -10 214 -5 c 1
 183 -75 l 1
 124 -50 l 1
 157 20 l 1x7c
 124 44 101 84 101 150 c 2
 101 456 l 1
 9 456 l 1
 9 527 l 1
 101 527 l 1
 101 646 l 1
 193 657 l 1
 193 527 l 1
 318 527 l 1
 308 456 l 1
 193 456 l 1
 193 140 l 2
 193 125 194 113 197 103 c 1
 198 106 l 1
 230 182 269 224 339 224 c 0xbc
277 66 m 0
 340 66 367 85 367 121 c 0
 367 144 355 157 331 157 c 0
 299 157 280 137 248 67 c 1
 256 66 266 66 277 66 c 0
EndSplineSet
EndChar
StartChar: uni0237
Encoding: 567 567 502
Width: 277
Flags: W
TopAccentHorizontal: 139
HStem: -212 21G<18 18> 507 20G<93 185 185 185>
VStem: 93 92<26 32 32 527>
LayerCount: 2
Fore
SplineSet
185 527 m 1
 185 32 l 2
 185 -117 130 -162 18 -212 c 1
 -9 -145 l 1
 60 -113 93 -87 93 26 c 2
 93 527 l 1
 185 527 l 1
EndSplineSet
EndChar
StartChar: uni0239
Encoding: 569 569 1450
Width: 860
Flags: W
HStem: -213 21G<386 386> -202 21G<478 478> -12 73<233 273.5> 466 73<238 284.5 197 294 590.5 630.5> 507 20G<399 465 465 465>
VStem: 57 99<193.5 331.5 193.5 341.5> 386 92<-202 63 -202 70 -202 70 -202 140 140 382 382 382> 395.5 73 704 99<195 332.5>
LayerCount: 2
Fore
SplineSet
618 539 m 0x7680
 746 539 803 430 803 264 c 0
 803 104 732 -12 606 -12 c 0
 560 -12 517 6 478 63 c 1
 478 -202 l 1x7680
 386 -213 l 1
 386 70 l 1xb680
 352 19 301 -12 246 -12 c 0
 128 -12 57 97 57 261 c 0
 57 422 135 539 259 539 c 0
 310 539 358 512 392 460 c 1x7580
 399 527 l 1
 465 527 l 1x6d80
 472 456 l 1x7580
 511 510 563 539 618 539 c 0x7680
266 61 m 0
 315 61 351 90 386 139 c 1
 386 382 l 1
 353 439 317 466 271 466 c 0
 205 466 156 400 156 263 c 0
 156 124 200 61 266 61 c 0
584 63 m 0
 658 63 704 126 704 264 c 0
 704 401 664 466 597 466 c 0
 545 466 505 426 478 384 c 1
 478 140 l 1
 505 88 543 63 584 63 c 0
EndSplineSet
EndChar
StartChar: uni023A
Encoding: 570 570 1451
Width: 573
Flags: W
HStem: 0 21G<6 99 6 6 470 567 470 470> 173 74<173 230 151 250 298 396 173 278> 620 69<285 285> 719 20G<429 429> 730 20G<384 384>
VStem: 6 561<0 0>
LayerCount: 2
Fore
SplineSet
567 0 m 1xec
 470 0 l 1
 418 173 l 1
 278 173 l 1
 214 -70 l 1
 169 -59 l 1
 230 173 l 1
 151 173 l 1
 99 0 l 1
 6 0 l 1
 227 689 l 1
 347 689 l 1
 358 653 l 1
 384 750 l 1xec
 429 739 l 1xf4
 384 572 l 1
 567 0 l 1xec
173 247 m 1
 250 247 l 1
 319 506 l 1
 285 620 l 1
 173 247 l 1
298 247 m 1
 396 247 l 1
 344 421 l 1
 298 247 l 1
EndSplineSet
EndChar
StartChar: uni023C
Encoding: 572 572 1453
Width: 477
Flags: W
HStem: -12 78<283 313 283 317.5> -5 21G<225 225> 463 76<249.5 293.5> 516 20G<327 327>
VStem: 57 99<220 329.5 220 343>
LayerCount: 2
Fore
SplineSet
291 66 m 0xa8
 335 66 366 80 406 106 c 1
 448 46 l 1
 401 8 348 -12 287 -12 c 0xa8
 265 -12 244 -10 225 -5 c 1
 207 -70 l 1
 164 -59 l 1
 183 10 l 1
 103 49 57 136 57 259 c 0
 57 427 144 539 287 539 c 0x68
 301 539 314 538 327 536 c 1
 343 595 l 1
 386 584 l 1
 370 527 l 1
 397 518 423 503 448 482 c 1x98
 404 424 l 1
 386 437 369 447 350 453 c 1
 246 73 l 1
 260 68 275 66 291 66 c 0xa8
291 463 m 0
 208 463 156 398 156 261 c 0
 156 179 174 126 207 96 c 1
 307 462 l 1
 302 463 296 463 291 463 c 0
EndSplineSet
EndChar
StartChar: uni023D
Encoding: 573 573 1454
Width: 504
Flags: W
HStem: 0 83<201 473> 324 78<15 106 15 106 201 298> 669 20G<106 201 201 201>
VStem: 106 95<83 83 83 324 402 689>
LayerCount: 2
Fore
SplineSet
201 83 m 1
 484 83 l 1
 473 0 l 1
 106 0 l 1
 106 324 l 1
 15 324 l 1
 15 402 l 1
 106 402 l 1
 106 689 l 1
 201 689 l 1
 201 402 l 1
 298 402 l 1
 298 324 l 1
 201 324 l 1
 201 83 l 1
EndSplineSet
EndChar
StartChar: uni023E
Encoding: 574 574 1455
Width: 517
Flags: W
HStem: 0 21G<212 305 212 212> 608 81<15 212 15 377 305 305 305 346 428 497 15 396> 719 20G<447 447>
VStem: 212 93<0 134 134 134 264 373 504 608>
LayerCount: 2
Fore
SplineSet
497 608 m 1
 396 608 l 1
 305 373 l 1
 305 0 l 1
 212 0 l 1
 212 134 l 1
 133 -70 l 1
 89 -53 l 1
 212 264 l 1
 212 608 l 1
 15 608 l 1
 15 689 l 1
 377 689 l 1
 403 756 l 1
 447 739 l 1
 428 689 l 1
 507 689 l 1
 497 608 l 1
305 504 m 1
 346 608 l 1
 305 608 l 1
 305 504 l 1
EndSplineSet
EndChar
StartChar: uni023F
Encoding: 575 575 1456
Width: 470
Flags: W
HStem: -213 75<314.5 358.5 314.5 361> -12 74<237 260 196 283.5> -9 21G 466 73<211 265.5>
VStem: 48 96<375.5 418 375.5 436.5> 335 97<113.5 166.5>
LayerCount: 2
Fore
SplineSet
404 -123 m 1xdc
 435 -183 l 1
 414 -199 384 -213 338 -213 c 0
 203 -213 205 -42 30 57 c 1
 68 113 l 1
 116 81 165 62 227 62 c 0
 293 62 335 88 335 139 c 0
 335 194 309 214 207 241 c 0
 93 271 48 320 48 395 c 0
 48 478 129 539 238 539 c 0
 312 539 367 517 417 479 c 1
 378 421 l 1
 331 451 290 466 241 466 c 0
 181 466 144 439 144 397 c 0
 144 354 172 334 257 312 c 0
 368 284 432 240 432 148 c 0
 432 38 325 -12 242 -12 c 0xdc
 232 -12 221 -11 209 -9 c 1xbc
 276 -71 283 -138 346 -138 c 0
 371 -138 387 -132 404 -123 c 1xdc
EndSplineSet
EndChar
StartChar: uni0241
Encoding: 577 577 1458
Width: 466
Flags: W
HStem: 0 21G<150 150 150 245> 623 78<190 261>
VStem: 150 95<0 273 0 319 0 319> 346 100<441 528>
LayerCount: 2
Fore
SplineSet
150 0 m 1
 150 319 l 1
 222 338 l 2
 298 359 346 395 346 487 c 0
 346 569 302 623 220 623 c 0
 160 623 111 601 62 559 c 1
 10 616 l 1
 74 672 139 701 224 701 c 0
 361 701 446 614 446 492 c 0
 446 352 356 306 267 279 c 2
 245 273 l 1
 245 0 l 1
 150 0 l 1
EndSplineSet
EndChar
StartChar: uni0242
Encoding: 578 578 1459
Width: 441
Flags: W
HStem: 0 21G<120 120 120 212> 461 78<160.5 227>
VStem: 120 92<0 151 0 197 0 197> 302 99<308.5 377.5>
LayerCount: 2
Fore
SplineSet
120 0 m 1
 120 197 l 1
 192 216 l 2
 260 234 302 272 302 345 c 0
 302 410 263 461 191 461 c 0
 130 461 96 440 56 408 c 1
 5 464 l 1
 57 511 110 539 194 539 c 0
 322 539 401 454 401 347 c 0
 401 229 320 177 237 157 c 2
 212 151 l 1
 212 0 l 1
 120 0 l 1
EndSplineSet
EndChar
StartChar: uni0244
Encoding: 580 580 515
Width: 690
Flags: W
HStem: -12 80<295 393.5 295 421.5> 508 69<35 104 35 104 199 490 586 655> 508 181<35 199 35 199 104 199 104 490>
VStem: 104 95<221 228 228 508 577 689> 490 96<228 508 577 689>
LayerCount: 2
Fore
SplineSet
655 577 m 1xd8
 655 508 l 1
 586 508 l 1
 586 221 l 2
 586 84 499 -12 344 -12 c 0
 187 -12 104 84 104 221 c 2
 104 508 l 1
 35 508 l 1
 35 577 l 1
 104 577 l 1xd8
 104 689 l 1
 199 689 l 1xb8
 199 577 l 1
 490 577 l 1xd8
 490 689 l 1
 586 689 l 1xb8
 586 577 l 1
 655 577 l 1xd8
490 228 m 2
 490 508 l 1
 199 508 l 1
 199 228 l 2
 199 121 246 68 344 68 c 0
 443 68 490 121 490 228 c 2
EndSplineSet
EndChar
StartChar: uni0246
Encoding: 582 582 1463
Width: 535
Flags: W
HStem: 0 76<100 205 253 481 195 233> 312 76<195 268 195 288 336 427 195 316> 613 76<195 195 195 348 416 462 100 396> 719 20G<429 429> 730 20G<384 384>
VStem: 100 95<76 76 76 312 388 613>
LayerCount: 2
Fore
SplineSet
253 76 m 1xec
 481 76 l 1
 481 0 l 1
 233 0 l 1
 214 -70 l 1
 169 -59 l 1
 185 0 l 1
 100 0 l 1
 100 689 l 1
 368 689 l 1
 384 750 l 1xec
 429 739 l 1xf4
 416 689 l 1
 473 689 l 1
 462 613 l 1
 396 613 l 1
 336 388 l 1
 427 388 l 1
 427 312 l 1
 316 312 l 1
 253 76 l 1xec
195 613 m 1
 195 388 l 1
 288 388 l 1
 348 613 l 1
 195 613 l 1
195 76 m 1
 205 76 l 1
 268 312 l 1
 195 312 l 1
 195 76 l 1
EndSplineSet
EndChar
StartChar: uni0247
Encoding: 583 583 1464
Width: 544
Flags: W
HStem: -12 75<286 323 286 326.5> -2 21G<216 216> 232 68<155 233 155 252 298 402 155 279> 466 73<243 281.5> 516 20G<317 317>
VStem: 57 98<232 232 232 300 232 340> 402 91<300 306 306 342 270 342.5>
LayerCount: 2
Fore
SplineSet
491 232 m 1xb6
 279 232 l 1
 237 75 l 1
 255 67 275 63 297 63 c 0
 349 63 388 77 434 109 c 1
 474 54 l 1
 422 13 363 -12 290 -12 c 0xb6
 263 -12 238 -9 216 -2 c 1
 197 -70 l 1
 154 -59 l 1
 174 15 l 1
 99 56 57 141 57 258 c 0
 57 422 140 539 276 539 c 0x76
 290 539 304 538 317 536 c 1
 333 595 l 1
 376 584 l 1
 360 525 l 1xae
 447 492 493 405 493 279 c 0
 493 261 492 244 491 232 c 1xb6
278 466 m 0
 208 466 162 417 155 300 c 1
 252 300 l 1
 297 465 l 1
 291 466 285 466 278 466 c 0
402 306 m 2
 402 379 381 429 340 452 c 1
 298 300 l 1
 402 300 l 1
 402 306 l 2
199 104 m 1
 233 232 l 1
 155 232 l 1
 159 173 175 131 199 104 c 1
EndSplineSet
EndChar
StartChar: uni0248
Encoding: 584 584 1465
Width: 313
Flags: W
HStem: 304 78<20 115 20 115 210 303> 669 20G<115 210 210 210>
VStem: 115 95<100 304 382 689>
LayerCount: 2
Fore
SplineSet
303 382 m 1
 303 304 l 1
 210 304 l 1
 210 96 l 2
 210 -48 141 -102 30 -137 c 1
 5 -68 l 1
 96 -32 115 8 115 100 c 2
 115 304 l 1
 20 304 l 1
 20 382 l 1
 115 382 l 1
 115 689 l 1
 210 689 l 1
 210 382 l 1
 303 382 l 1
EndSplineSet
EndChar
StartChar: uni0249
Encoding: 585 585 1466
Width: 314
Flags: W
HStem: -212 21G<37 37> 207 78<16 112 16 112 204 299> 507 20G<112 204 204 204> 655 125<139 177.5>
VStem: 94 129<699.5 735> 112 92<26 32 32 207 285 527>
LayerCount: 2
Fore
SplineSet
158 655 m 0xf8
 120 655 94 682 94 717 c 0
 94 753 120 780 158 780 c 0
 197 780 223 753 223 717 c 0
 223 682 197 655 158 655 c 0xf8
299 285 m 1xe4
 299 207 l 1
 204 207 l 1
 204 32 l 2
 204 -117 149 -162 37 -212 c 1
 10 -145 l 1
 79 -113 112 -87 112 26 c 2
 112 207 l 1
 16 207 l 1
 16 285 l 1
 112 285 l 1
 112 527 l 1
 204 527 l 1
 204 285 l 1
 299 285 l 1xe4
EndSplineSet
EndChar
StartChar: uni024A
Encoding: 586 586 1467
Width: 669
Flags: W
HStem: -213 76<610.5 646.5 610.5 651.5> -12 78<283.5 355> 623 78<285.5 359.5 250.5 369> 669 20G<485 569 569 569>
VStem: 55 101<231.5 433 231.5 447.5> 474 95<-57 46 46 46 126 568 568 568>
LayerCount: 2
Fore
SplineSet
703 -115 m 1xec
 740 -175 l 1
 715 -194 678 -213 625 -213 c 0
 533 -213 474 -161 474 -57 c 2
 474 46 l 1
 436 11 386 -12 324 -12 c 0
 177 -12 55 99 55 328 c 0
 55 567 172 701 329 701 c 0
 390 701 440 678 478 643 c 1xec
 485 689 l 1
 569 689 l 1xdc
 569 -63 l 2
 569 -114 591 -137 630 -137 c 0
 663 -137 681 -128 703 -115 c 1xec
333 66 m 0
 394 66 436 89 474 126 c 1
 474 568 l 1
 440 601 398 623 340 623 c 0
 231 623 156 538 156 328 c 0
 156 135 234 66 333 66 c 0
EndSplineSet
EndChar
StartChar: uni024B
Encoding: 587 587 1468
Width: 593
Flags: W
HStem: -213 74<519 529.5> -12 73<238 288> 466 73<244.5 296.5 199.5 310> 507 20G<419 498 498 498>
VStem: 57 99<193.5 331.5 193.5 341.5> 406 92<-97 70 70 70 139 397 397 397>
LayerCount: 2
Fore
SplineSet
565 -133 m 1xec
 589 -195 l 1
 569 -206 543 -213 516 -213 c 0
 451 -213 406 -172 406 -97 c 2
 406 70 l 1
 372 19 320 -12 256 -12 c 0
 128 -12 57 97 57 261 c 0
 57 422 135 539 264 539 c 0
 329 539 376 508 412 468 c 1xec
 419 527 l 1
 498 527 l 1xdc
 498 -97 l 2
 498 -125 507 -139 531 -139 c 0
 546 -139 555 -136 565 -133 c 1xec
276 61 m 0
 335 61 371 90 406 139 c 1
 406 397 l 1
 373 439 336 466 284 466 c 0
 205 466 156 400 156 263 c 0
 156 124 200 61 276 61 c 0
EndSplineSet
EndChar
StartChar: uni024C
Encoding: 588 588 1469
Width: 616
Flags: W
HStem: 0 21G<111 206 111 111 478 591 478 478> 292 73<20 111 20 111 206 302 302 313> 615 74<206 291 206 206>
VStem: 111 95<0 292 0 292 365 615> 453 101<447.5 537>
LayerCount: 2
Fore
SplineSet
591 0 m 1
 478 0 l 1
 313 292 l 1
 206 292 l 1
 206 0 l 1
 111 0 l 1
 111 292 l 1
 20 292 l 1
 20 365 l 1
 111 365 l 1
 111 689 l 1
 292 689 l 2
 464 689 554 623 554 494 c 0
 554 397 504 339 405 309 c 1
 591 0 l 1
302 365 m 2
 398 365 453 401 453 494 c 0
 453 580 404 615 291 615 c 2
 206 615 l 1
 206 365 l 1
 302 365 l 2
EndSplineSet
EndChar
StartChar: uni024D
Encoding: 589 589 524
Width: 397
Flags: W
HStem: 0 21G<106 198 106 106> 247 70<15 106 15 106 202 298> 449 90<303 333.5> 507 20G<106 185 185 185> 513 20G<387 387>
VStem: 106 92<0 247 0 247 0 527>
LayerCount: 2
Fore
SplineSet
335 539 m 0xe4
 352 539 371 537 387 533 c 1xcc
 370 443 l 1
 354 447 343 449 324 449 c 0xe4
 262 449 224 407 202 317 c 1
 298 317 l 1
 298 247 l 1
 198 247 l 1
 198 0 l 1
 106 0 l 1
 106 247 l 1
 15 247 l 1
 15 317 l 1
 106 317 l 1
 106 527 l 1
 185 527 l 1xd4
 194 420 l 1
 222 499 271 539 335 539 c 0xe4
EndSplineSet
EndChar
StartChar: gravecomb
Encoding: 768 768 601
Width: 0
Flags: W
TopAccentHorizontal: -150
HStem: 638 163
VStem: -270 240<687 724>
LayerCount: 2
Fore
SplineSet
-229 801 m 1
 -30 687 l 1
 -58 638 l 1
 -270 724 l 1
 -229 801 l 1
EndSplineSet
EndChar
StartChar: acutecomb
Encoding: 769 769 602
Width: 0
Flags: W
HStem: 638 163
VStem: -270 240<687 724>
LayerCount: 2
Fore
SplineSet
-71 801 m 1
 -30 724 l 1
 -242 638 l 1
 -270 687 l 1
 -71 801 l 1
EndSplineSet
EndChar
StartChar: uni0302
Encoding: 770 770 603
Width: 0
Flags: W
HStem: 634 158<-323 -166 -227 -70>
VStem: -362 332<679 679>
LayerCount: 2
Fore
SplineSet
-323 634 m 1
 -362 679 l 1
 -227 792 l 1
 -166 792 l 1
 -30 679 l 1
 -70 634 l 1
 -196 718 l 1
 -323 634 l 1
EndSplineSet
EndChar
StartChar: uni0304
Encoding: 772 772 605
Width: 0
Flags: W
TopAccentHorizontal: -166
HStem: 667 69<-303 -30 -303 -30>
VStem: -303 273<667 736 667 736>
LayerCount: 2
Fore
SplineSet
-30 667 m 1
 -303 667 l 1
 -303 736 l 1
 -30 736 l 1
 -30 667 l 1
EndSplineSet
EndChar
StartChar: uni0307
Encoding: 775 775 607
Width: 0
Flags: W
HStem: 655 125<-114 -75.5>
VStem: -159 129<699.5 735>
LayerCount: 2
Fore
SplineSet
-95 780 m 0
 -56 780 -30 753 -30 717 c 0
 -30 682 -56 655 -95 655 c 0
 -133 655 -159 682 -159 717 c 0
 -159 753 -133 780 -95 780 c 0
EndSplineSet
EndChar
StartChar: uni0308
Encoding: 776 776 608
Width: 0
Flags: W
HStem: 654 114<-313.5 -281 -104 -71.5>
VStem: -355 115<695 727> -145 115<695 727>
LayerCount: 2
Fore
SplineSet
-297 768 m 0
 -265 768 -240 743 -240 711 c 0
 -240 679 -265 654 -297 654 c 0
 -330 654 -355 679 -355 711 c 0
 -355 743 -330 768 -297 768 c 0
-88 768 m 0
 -55 768 -30 743 -30 711 c 0
 -30 679 -55 654 -88 654 c 0
 -120 654 -145 679 -145 711 c 0
 -145 743 -120 768 -88 768 c 0
EndSplineSet
EndChar
StartChar: uni030A
Encoding: 778 778 144
Width: 0
Flags: W
TopAccentHorizontal: -144
HStem: 624 50<-160.5 -128 -160.5 -110.5> 786 50<-160.5 -127.5>
VStem: -258 61<712.5 747.5 712.5 759.5> -91 61<712.5 747.5>
LayerCount: 2
Fore
SplineSet
-144 836 m 0
 -77 836 -30 789 -30 730 c 0
 -30 671 -77 624 -144 624 c 0
 -211 624 -258 671 -258 730 c 0
 -258 789 -211 836 -144 836 c 0
-144 786 m 0
 -177 786 -197 765 -197 730 c 0
 -197 695 -177 674 -144 674 c 0
 -112 674 -91 695 -91 730 c 0
 -91 765 -111 786 -144 786 c 0
EndSplineSet
EndChar
StartChar: uni030B
Encoding: 779 779 611
Width: 0
Flags: W
HStem: 634 198<-260 -136>
VStem: -336 306<664 791>
LayerCount: 2
Fore
SplineSet
-260 832 m 1
 -182 791 l 1
 -278 639 l 1
 -336 664 l 1
 -260 832 l 1
-108 832 m 1
 -30 791 l 1
 -136 634 l 1
 -194 659 l 1
 -108 832 l 1
EndSplineSet
EndChar
StartChar: uni030C
Encoding: 780 780 612
Width: 0
Flags: W
HStem: 627 74<-196 -196 -196 -165 -226 -196> 681 20G<-196 -196> 720 20G<-362 -362 -30 -30>
VStem: -362 332<740 740>
LayerCount: 2
Fore
SplineSet
-69 785 m 1x70
 -30 740 l 1
 -165 627 l 1
 -226 627 l 1xb0
 -362 740 l 1
 -322 785 l 1
 -196 701 l 1
 -69 785 l 1x70
EndSplineSet
EndChar
StartChar: uni030D
Encoding: 781 781 613
Width: 0
Flags: W
TopAccentHorizontal: -74
HStem: 626 232<-117 -30 -117 -30>
VStem: -117 87<626 858 626 858>
LayerCount: 2
Fore
SplineSet
-117 626 m 1
 -117 858 l 1
 -30 858 l 1
 -30 626 l 1
 -117 626 l 1
EndSplineSet
EndChar
StartChar: uni030F
Encoding: 783 783 614
Width: 0
Flags: W
TopAccentHorizontal: -183
HStem: 634 198<-258 -230>
VStem: -336 306<664 791>
LayerCount: 2
Fore
SplineSet
-258 832 m 1
 -172 659 l 1
 -230 634 l 1
 -336 791 l 1
 -258 832 l 1
-106 832 m 1
 -30 664 l 1
 -88 639 l 1
 -184 791 l 1
 -106 832 l 1
EndSplineSet
EndChar
StartChar: uni0311
Encoding: 785 785 615
Width: 0
Flags: W
TopAccentHorizontal: -182
HStem: 690 70<-206.5 -159.5>
VStem: -333 303<627 627>
LayerCount: 2
Fore
SplineSet
-183 760 m 0
 -102 760 -38 711 -30 627 c 1
 -91 614 l 1
 -105 664 -136 690 -183 690 c 0
 -230 690 -258 664 -272 614 c 1
 -333 627 l 1
 -325 711 -263 760 -183 760 c 0
EndSplineSet
EndChar
StartChar: uni0312
Encoding: 786 786 543
Width: 0
Flags: W
TopAccentHorizontal: -90
HStem: 583 219<-83 -77>
VStem: -150 115<623 647.5>
LayerCount: 2
Fore
SplineSet
-93 583 m 0
 -125 583 -150 607 -150 639 c 0
 -150 656 -145 672 -124 716 c 2
 -83 802 l 1
 -30 802 l 1
 -59 686 l 1
 -45 674 -35 658 -35 639 c 0
 -35 607 -61 583 -93 583 c 0
EndSplineSet
EndChar
StartChar: uni0313
Encoding: 787 787 544
Width: 0
Flags: W
TopAccentHorizontal: -90
HStem: 583 219<-103 -97 -150 -71>
VStem: -145 115<737.5 762 737.5 762>
LayerCount: 2
Fore
SplineSet
-87 802 m 0
 -55 802 -30 778 -30 746 c 0
 -30 729 -35 713 -56 669 c 2
 -97 583 l 1
 -150 583 l 1
 -121 699 l 1
 -135 711 -145 727 -145 746 c 0
 -145 778 -119 802 -87 802 c 0
EndSplineSet
EndChar
StartChar: uni0316
Encoding: 790 790 152
Width: 0
Flags: W
HStem: -205 21G<-54 -54>
VStem: -270 240<-156 -126>
LayerCount: 2
Fore
SplineSet
-231 -49 m 1
 -30 -156 l 1
 -54 -205 l 1
 -270 -126 l 1
 -231 -49 l 1
EndSplineSet
EndChar
StartChar: uni0317
Encoding: 791 791 546
Width: 0
Flags: W
HStem: -205 21G<-246 -246>
VStem: -270 240<-156 -126>
LayerCount: 2
Fore
SplineSet
-70 -49 m 1
 -30 -126 l 1
 -246 -205 l 1
 -270 -156 l 1
 -70 -49 l 1
EndSplineSet
EndChar
StartChar: uni0318
Encoding: 792 792 547
Width: 0
Flags: W
HStem: -237 57<-234 -94 -234 -94>
VStem: -94 64<-353 -237 -237 -237 -180 -63 -353 -63>
LayerCount: 2
Fore
SplineSet
-94 -63 m 1
 -30 -63 l 1
 -30 -353 l 1
 -94 -353 l 1
 -94 -237 l 1
 -234 -237 l 1
 -234 -180 l 1
 -94 -180 l 1
 -94 -63 l 1
EndSplineSet
EndChar
StartChar: uni031C
Encoding: 796 796 624
Width: 0
Flags: W
HStem: -276 212<-63.5 -30> -226 112<-46.5 -30>
VStem: -144 114<-276 -140.5>
LayerCount: 2
Fore
SplineSet
-30 -276 m 1xa0
 -30 -226 l 1
 -63 -226 -83 -205 -83 -170 c 0
 -83 -135 -63 -114 -30 -114 c 1
 -30 -64 l 1
 -97 -64 -144 -111 -144 -170 c 0x60
 -144 -229 -97 -276 -30 -276 c 1xa0
EndSplineSet
EndChar
StartChar: uni031D
Encoding: 797 797 159
Width: 0
Flags: W
HStem: -310 59<-330 -212 -149 -30 -330 -212>
VStem: -212 63<-251 -91 -251 -91>
LayerCount: 2
Fore
SplineSet
-30 -251 m 1
 -30 -310 l 1
 -330 -310 l 1
 -330 -251 l 1
 -212 -251 l 1
 -212 -91 l 1
 -149 -91 l 1
 -149 -251 l 1
 -30 -251 l 1
EndSplineSet
EndChar
StartChar: uni031F
Encoding: 799 799 627
Width: 0
Flags: W
HStem: -236 65<-283 -192 -283 -192 -121 -30>
VStem: -192 71<-323 -236 -323 -236 -171 -82>
LayerCount: 2
Fore
SplineSet
-121 -82 m 1
 -121 -171 l 1
 -30 -171 l 1
 -30 -236 l 1
 -121 -236 l 1
 -121 -323 l 1
 -192 -323 l 1
 -192 -236 l 1
 -283 -236 l 1
 -283 -171 l 1
 -192 -171 l 1
 -192 -82 l 1
 -121 -82 l 1
EndSplineSet
EndChar
StartChar: uni0321
Encoding: 801 801 163
Width: 0
Flags: W
HStem: -213 74<-202.5 -166.5 -202.5 -135.5>
VStem: -122 92<-65 -57 -57 1 -108.5 1>
LayerCount: 2
Fore
SplineSet
-181 -213 m 0
 -234 -213 -271 -194 -296 -175 c 1
 -260 -117 l 1
 -237 -130 -219 -139 -186 -139 c 0
 -147 -139 -122 -118 -122 -65 c 2
 -122 1 l 1
 -30 1 l 1
 -30 -57 l 2
 -30 -160 -90 -213 -181 -213 c 0
EndSplineSet
EndChar
StartChar: uni0324
Encoding: 804 804 631
Width: 0
Flags: W
HStem: -192 114<-313.5 -281 -104 -71.5>
VStem: -355 115<-151 -119> -145 115<-151 -119>
LayerCount: 2
Fore
SplineSet
-297 -78 m 0
 -265 -78 -240 -103 -240 -135 c 0
 -240 -167 -265 -192 -297 -192 c 0
 -330 -192 -355 -167 -355 -135 c 0
 -355 -103 -330 -78 -297 -78 c 0
-88 -78 m 0
 -55 -78 -30 -103 -30 -135 c 0
 -30 -167 -55 -192 -88 -192 c 0
 -120 -192 -145 -167 -145 -135 c 0
 -145 -103 -120 -78 -88 -78 c 0
EndSplineSet
EndChar
StartChar: uni0325
Encoding: 805 805 166
Width: 0
Flags: W
HStem: -276 50<-160.5 -128 -160.5 -110.5> -114 50<-160.5 -127.5>
VStem: -258 61<-187.5 -152.5 -187.5 -140.5> -91 61<-187.5 -152.5>
LayerCount: 2
Fore
SplineSet
-144 -64 m 0
 -77 -64 -30 -111 -30 -170 c 0
 -30 -229 -77 -276 -144 -276 c 0
 -211 -276 -258 -229 -258 -170 c 0
 -258 -111 -211 -64 -144 -64 c 0
-144 -114 m 0
 -177 -114 -197 -135 -197 -170 c 0
 -197 -205 -177 -226 -144 -226 c 0
 -112 -226 -91 -205 -91 -170 c 0
 -91 -135 -111 -114 -144 -114 c 0
EndSplineSet
EndChar
StartChar: uni0326
Encoding: 806 806 167
Width: 0
Flags: W
HStem: -296 219<-103 -97 -150 -71>
VStem: -145 115<-141.5 -117 -141.5 -117>
LayerCount: 2
Fore
SplineSet
-87 -77 m 0
 -55 -77 -30 -101 -30 -133 c 0
 -30 -150 -35 -166 -56 -210 c 2
 -97 -296 l 1
 -150 -296 l 1
 -121 -180 l 1
 -135 -168 -145 -152 -145 -133 c 0
 -145 -101 -119 -77 -87 -77 c 0
EndSplineSet
EndChar
